<svg width="32" height="32" viewBox="0 0 32 32" fill="none" xmlns="http://www.w3.org/2000/svg">
<g clip-path="url(#clip0_586_35045)">
<rect width="32" height="32" rx="8" fill="#131129"/>
<g clip-path="url(#clip1_586_35045)">
<g filter="url(#filter0_f_586_35045)">
<circle cx="15.5" cy="16.5" r="7.5" fill="#CAFB01"/>
</g>
</g>
<path d="M5.3335 10.6667L16.0002 4L26.6668 10.6667V21.3333L16.0002 28L5.3335 21.3333V10.6667Z" stroke="#CAFB01" stroke-width="1.5" stroke-linecap="round" stroke-linejoin="round"/>
<path d="M9.3335 12.6667L16.0002 8L22.6668 12.6667V19.5556L16.0002 24L9.3335 19.5556V12.6667Z" stroke="#CAFB01" stroke-width="1.5" stroke-linecap="round" stroke-linejoin="round"/>
<path d="M5.3335 10.6667L9.3335 12.6667" stroke="#CAFB01" stroke-width="1.5" stroke-linecap="round" stroke-linejoin="round"/>
<path d="M16 4V8" stroke="#CAFB01" stroke-width="1.5" stroke-linecap="round" stroke-linejoin="round"/>
<path d="M5.3335 21.3333L9.3335 19.3333" stroke="#CAFB01" stroke-width="1.5" stroke-linecap="round" stroke-linejoin="round"/>
<path d="M16 28V24" stroke="#CAFB01" stroke-width="1.5" stroke-linecap="round" stroke-linejoin="round"/>
<path d="M26.667 21.3333L22.667 19.3333" stroke="#CAFB01" stroke-width="1.5" stroke-linecap="round" stroke-linejoin="round"/>
<path d="M22.667 12.6667L26.667 10.6667" stroke="#CAFB01" stroke-width="1.5" stroke-linecap="round" stroke-linejoin="round"/>
</g>
<defs>
<filter id="filter0_f_586_35045" x="-22" y="-21" width="75" height="75" filterUnits="userSpaceOnUse" color-interpolation-filters="sRGB">
<feFlood flood-opacity="0" result="BackgroundImageFix"/>
<feBlend mode="normal" in="SourceGraphic" in2="BackgroundImageFix" result="shape"/>
<feGaussianBlur stdDeviation="15" result="effect1_foregroundBlur_586_35045"/>
</filter>
<clipPath id="clip0_586_35045">
<rect width="32" height="32" rx="8" fill="white"/>
</clipPath>
<clipPath id="clip1_586_35045">
<rect width="32" height="32" fill="white"/>
</clipPath>
</defs>
</svg>
