<svg width="32" height="32" viewBox="0 0 32 32" fill="none" xmlns="http://www.w3.org/2000/svg">
<g clip-path="url(#clip0_600_95890)">
<rect width="32" height="32" rx="8" fill="#131129"/>
<g clip-path="url(#clip1_600_95890)">
<g filter="url(#filter0_f_600_95890)">
<circle cx="15.5" cy="16.5" r="7.5" fill="#FF0088"/>
</g>
<path d="M25.3333 18.6666L16 26.6666L6.66667 18.6666L4 10.6666L6.66667 6.66665L10.6667 5.33331L16 8.66665L21.3333 5.33331L25.3333 6.66665L28 10.6666L25.3333 18.6666Z" stroke="#FF0088" stroke-width="1.5" stroke-linecap="round" stroke-linejoin="round"/>
<path d="M20.6667 16.6666L16 20L11.3333 16.6666L10 13.3333L12 10.6666L16 12.6666L20 10.6666L22 13.3333L20.6667 16.6666Z" stroke="#FF0088" stroke-width="1.5" stroke-linecap="round" stroke-linejoin="round"/>
<path d="M19.9997 10.6666L21.333 5.33331" stroke="#FF0088" stroke-width="1.5" stroke-linecap="round" stroke-linejoin="round"/>
<path d="M12.0003 10.6666L10.667 5.33331" stroke="#FF0088" stroke-width="1.5" stroke-linecap="round" stroke-linejoin="round"/>
<path d="M16 8.66663V12.6666" stroke="#FF0088" stroke-width="1.5" stroke-linecap="round" stroke-linejoin="round"/>
<path d="M4 10.6666L10 13.3333" stroke="#FF0088" stroke-width="1.5" stroke-linecap="round" stroke-linejoin="round"/>
<path d="M28 10.6666L22 13.3333" stroke="#FF0088" stroke-width="1.5" stroke-linecap="round" stroke-linejoin="round"/>
<path d="M16 26.6667V20" stroke="#FF0088" stroke-width="1.5" stroke-linecap="round" stroke-linejoin="round"/>
<path d="M6.66699 18.6666L11.3337 16.6666" stroke="#FF0088" stroke-width="1.5" stroke-linecap="round" stroke-linejoin="round"/>
<path d="M25.333 18.6666L20.6663 16.6666" stroke="#FF0088" stroke-width="1.5" stroke-linecap="round" stroke-linejoin="round"/>
</g>
</g>
<defs>
<filter id="filter0_f_600_95890" x="-22" y="-21" width="75" height="75" filterUnits="userSpaceOnUse" color-interpolation-filters="sRGB">
<feFlood flood-opacity="0" result="BackgroundImageFix"/>
<feBlend mode="normal" in="SourceGraphic" in2="BackgroundImageFix" result="shape"/>
<feGaussianBlur stdDeviation="15" result="effect1_foregroundBlur_600_95890"/>
</filter>
<clipPath id="clip0_600_95890">
<rect width="32" height="32" rx="8" fill="white"/>
</clipPath>
<clipPath id="clip1_600_95890">
<rect width="32" height="32" fill="white"/>
</clipPath>
</defs>
</svg>
