<svg width="32" height="32" viewBox="0 0 32 32" fill="none" xmlns="http://www.w3.org/2000/svg">
<g clip-path="url(#clip0_600_95924)">
<rect width="32" height="32" rx="8" fill="#131129"/>
<g clip-path="url(#clip1_600_95924)">
<g filter="url(#filter0_f_600_95924)">
<circle cx="15.5" cy="16.5" r="7.5" fill="#D4F7FF"/>
</g>
</g>
<path d="M24 11.3333C20.6667 5.99998 16 3.99998 16 3.99998C16 3.99998 11.3333 5.99998 8 11.3333C4.66667 16.6666 4 22.6666 4 22.6666C4 22.6666 9.33333 25.3333 16 25.3333C22.6667 25.3333 28 22.6666 28 22.6666C28 22.6666 27.3333 16.6666 24 11.3333Z" stroke="#D4F7FF" stroke-width="1.5" stroke-linecap="round" stroke-linejoin="round"/>
<path d="M20.4448 13.4583C18.5929 10.4583 16.0003 9.33331 16.0003 9.33331C16.0003 9.33331 13.4077 10.4583 11.5559 13.4583C9.70403 16.4583 9.33366 19.8333 9.33366 19.8333C9.33366 19.8333 12.2966 21.3333 16.0003 21.3333C19.704 21.3333 22.667 19.8333 22.667 19.8333C22.667 19.8333 22.2966 16.4583 20.4448 13.4583Z" stroke="#D4F7FF" stroke-width="1.5" stroke-linecap="round" stroke-linejoin="round"/>
<path d="M4 22.6667L9.33333 20" stroke="#D4F7FF" stroke-width="1.5" stroke-linecap="round" stroke-linejoin="round"/>
<path d="M22.667 20L28.0003 22.6667" stroke="#D4F7FF" stroke-width="1.5" stroke-linecap="round" stroke-linejoin="round"/>
<path d="M16 9.33333V4" stroke="#D4F7FF" stroke-width="1.5" stroke-linecap="round" stroke-linejoin="round"/>
</g>
<defs>
<filter id="filter0_f_600_95924" x="-22" y="-21" width="75" height="75" filterUnits="userSpaceOnUse" color-interpolation-filters="sRGB">
<feFlood flood-opacity="0" result="BackgroundImageFix"/>
<feBlend mode="normal" in="SourceGraphic" in2="BackgroundImageFix" result="shape"/>
<feGaussianBlur stdDeviation="15" result="effect1_foregroundBlur_600_95924"/>
</filter>
<clipPath id="clip0_600_95924">
<rect width="32" height="32" rx="8" fill="white"/>
</clipPath>
<clipPath id="clip1_600_95924">
<rect width="32" height="32" fill="white"/>
</clipPath>
</defs>
</svg>
