<svg xmlns="http://www.w3.org/2000/svg" width="42" height="36" viewBox="0 0 42 36" fill="none">
    <path d="M6.13845 30.6832C6.13845 30.6832 0.423983 11.3255 1.56203 6.72934C2.69662 2.13322 5.32901 -0.422873 10.1268 7.40127C15.7202 16.5208 14.0979 31.4209 14.0979 31.4209L6.14191 30.6832H6.13845Z" fill="#8C1927"/>
    <path d="M33.39 30.6448L14.095 31.4207C14.095 31.4207 14.7661 21.6258 12.6491 13.8432C10.5356 6.05715 6.7202 3.00923 5.32617 2.49316C5.32617 2.49316 14.4582 4.09332 20.0274 4.50894C25.6001 4.92111 32.7708 4.24918 35.04 3.78506C35.04 3.78506 37.8246 18.1449 33.39 30.6448Z" fill="url(#paint0_linear_2324_124073)"/>
    <path d="M14.9594 8.36719C14.9594 8.36719 28.8097 9.06336 32.0612 8.94906L32.3311 9.21922L14.3125 8.52305L14.9594 8.36719Z" fill="#7C1338"/>
    <path d="M14.8461 14.0234C21.6952 14.4114 33.2244 14.0234 33.2244 14.0234L32.799 14.4114C32.799 14.4114 19.5298 14.1793 13.4141 14.4114L14.8461 14.0234Z" fill="#7C1338"/>
    <path d="M17.4505 28.6291C17.4505 28.6291 26.0222 28.5217 32.8367 27.8151C32.9474 27.8047 32.6464 28.2204 32.6464 28.2204C32.6464 28.2204 16.7033 28.9373 16.821 28.9373C16.9386 28.9373 17.454 28.6291 17.454 28.6291H17.4505Z" fill="#7C1338"/>
    <path opacity="0.46" d="M20.127 8.74854C20.127 8.74854 24.9836 9.18148 26.6474 9.31656C28.3112 9.45163 31.037 9.17109 31.037 9.17109L20.127 8.74854Z" fill="url(#paint1_radial_2324_124073)"/>
    <path opacity="0.46" d="M19.4121 14.3105L29.6061 14.366C29.6061 14.366 26.0467 14.508 23.5527 14.5668C21.0587 14.6257 19.4121 14.3105 19.4121 14.3105Z" fill="url(#paint2_radial_2324_124073)"/>
    <path opacity="0.46" d="M19.2422 28.8265C19.3183 28.823 27.9972 28.4316 27.9972 28.4316C27.9972 28.4316 23.7667 28.9789 21.7189 28.9408C19.6677 28.9027 19.2422 28.8299 19.2422 28.8299V28.8265Z" fill="url(#paint3_radial_2324_124073)"/>
    <path style="mix-blend-mode:screen" opacity="0.3" d="M17.2952 6.62532C18.1531 7.41847 20.443 8.04537 22.0654 8.09732C23.6877 8.14928 28.9767 6.23394 28.4198 5.48928C27.8629 4.74462 21.9893 5.15332 19.2012 4.8693C16.4166 4.58529 15.6176 5.07712 17.2918 6.62532H17.2952Z" fill="url(#paint4_radial_2324_124073)"/>
    <path style="mix-blend-mode:screen" opacity="0.3" d="M18.7926 9.3543C18.0662 10.1855 19.2838 13.4447 19.7196 13.4932C20.1589 13.5452 25.4445 9.95349 24.258 9.61753C23.0715 9.28156 19.4083 8.64427 18.7891 9.35083L18.7926 9.3543Z" fill="url(#paint5_radial_2324_124073)"/>
    <path d="M29.7418 8.94903C29.7418 8.60267 29.427 7.8684 28.9185 7.90304C28.41 7.94114 27.8047 8.94903 27.8047 8.94903H29.7383H29.7418Z" fill="#7C1338"/>
    <path d="M19.243 28.5943C18.6619 28.5077 19.8899 27.8566 20.3361 28.0505C20.7823 28.2445 21.0349 28.5458 21.0349 28.5458C21.0349 28.5458 20.177 28.7363 19.243 28.5978V28.5943Z" fill="#7C1338"/>
    <path style="mix-blend-mode:soft-light" opacity="0.5" d="M18.6306 30.565C18.513 22.5089 24.5249 25.2173 27.908 25.4459C31.291 25.678 30.3812 29.7061 29.9246 30.3295C29.468 30.953 18.641 31.379 18.6306 30.565Z" fill="url(#paint6_linear_2324_124073)"/>
    <path d="M14.095 1.82145C14.095 1.82145 9.40097 0.0966048 2.33398 0.221292C2.33398 0.221292 8.47392 2.22668 10.9991 9.25767C13.5277 16.2852 13.9739 31.1507 13.9739 31.1507L18.6299 30.5688C18.6299 30.5688 19.3944 22.6131 18.6299 14.5292C17.8551 6.31712 14.095 1.82145 14.095 1.82145Z" fill="url(#paint7_linear_2324_124073)"/>
    <path d="M26.8379 2.37871C26.8379 2.37871 33.3895 1.46087 37.7237 1.61327C37.7237 1.61327 40.4046 3.72949 40.5602 10.9094C40.7159 18.0893 35.0671 29.7372 35.0671 29.7372L31.231 30.0004C31.231 30.0004 34.2404 22.4707 33.7008 14.1097C33.0297 3.67754 26.8379 2.37525 26.8379 2.37525V2.37871Z" fill="url(#paint8_linear_2324_124073)"/>
    <path d="M6.87605 7.08931C3.8597 6.7395 4.86284 12.0075 5.32983 14.6814C5.79335 17.3552 8.92731 31.4172 8.92731 31.4172H7.10781C7.10781 31.4172 4.12951 20.2612 3.0053 14.2554C1.88454 8.2496 2.42416 6.00522 3.78014 5.42335C5.13265 4.84147 6.87605 7.08931 6.87605 7.08931Z" fill="url(#paint9_linear_2324_124073)"/>
    <path d="M11.6287 30.9081L12.068 30.5999L12.0472 30.4129C11.9815 29.8033 11.7428 27.739 11.2136 24.4452C11.0648 23.5239 10.8953 22.5056 10.6982 21.3973C10.6601 21.1895 10.622 20.9747 10.584 20.76C10.4318 19.9183 10.2658 19.0282 10.0859 18.093C10.034 17.8298 9.98211 17.5735 9.93023 17.3207C9.91639 17.2653 9.90601 17.2098 9.89563 17.151L9.85412 16.957C8.20066 9.18828 5.90381 6.04685 4.20538 6.04685C2.50695 6.04685 2.68337 10.1823 3.89406 16.5968C3.91482 16.7146 3.93903 16.8358 3.96324 16.957C3.97016 16.9916 3.97708 17.0228 3.984 17.0574C4.19155 18.1069 4.44406 19.2603 4.71733 20.4344C4.7623 20.6214 4.80381 20.8085 4.84878 20.9955C5.09438 22.0276 5.35035 23.0667 5.60287 24.0573C6.37771 27.1017 7.10067 29.6924 7.24941 30.2189C7.2667 30.2847 7.27708 30.3193 7.27708 30.3193L8.60192 30.5999L5.59249 30.2916C5.54752 30.1704 5.50255 30.0492 5.46104 29.9314L5.44721 29.8968C4.74155 27.9676 4.07393 25.9484 3.46167 23.9118C3.15727 22.8901 2.8667 21.8648 2.59343 20.8431C2.545 20.6665 2.50004 20.4898 2.45507 20.3097C2.16104 19.1806 1.88777 18.0584 1.63871 16.957C1.63526 16.9397 1.6318 16.9224 1.62488 16.9051L1.60066 16.7942C-0.326065 8.12498 -0.665059 0.664511 2.334 0.221178C5.70318 -0.277572 11.1029 5.54118 12.6526 13.8398C12.8497 14.8962 13.0158 16.0115 13.161 17.151C13.168 17.2098 13.1749 17.2687 13.1818 17.3276C13.3202 18.4567 13.4343 19.6032 13.5277 20.7288C13.545 20.9435 13.5623 21.1548 13.5796 21.3696C13.6626 22.4121 13.7249 23.4304 13.7768 24.3932C13.7768 24.3932 13.7768 24.4002 13.7768 24.4036C13.9463 27.5901 13.9705 30.1531 13.9739 30.9151C13.9739 31.0675 13.9739 31.1471 13.9739 31.1471L11.6252 30.9047L11.6287 30.9081Z" fill="url(#paint10_linear_2324_124073)"/>
    <path d="M26.8386 2.37895C25.3373 2.37895 24.1543 4.63372 24.1543 4.63372C24.1543 4.63372 26.4235 4.61986 27.2744 4.58176C27.2744 4.58176 30.3357 4.72377 31.7886 11.2976C33.2829 18.0653 30.2666 29.8656 30.2666 29.8656L31.2282 30.0007C31.2282 30.0007 34.0958 23.652 34.0958 14.4806C34.0958 7.51192 30.1628 2.37549 26.8351 2.37549L26.8386 2.37895Z" fill="url(#paint11_linear_2324_124073)"/>
    <path d="M1.5625 20.0639L1.73891 20.8432L11.6009 21.7091L40.0694 20.2994L40.2631 19.2153L11.0924 19.9323L1.5625 20.0639Z" fill="url(#paint12_linear_2324_124073)"/>
    <path d="M41.3365 16.5933L40.5651 19.5581L13.5321 20.7287L13.2277 20.7426L11.5707 20.8153L10.5849 20.7599L4.71822 20.4309L2.45941 20.3062L0.996207 20.2231C0.453125 18.6852 0.453125 16.8981 0.453125 16.8981L1.64306 16.95L3.98489 17.0539L9.93457 17.3171L11.2594 17.376L13.1861 17.3241L41.3399 16.5933H41.3365Z" fill="url(#paint13_linear_2324_124073)"/>
    <path d="M40.4834 20.1816L39.6463 22.8867L13.779 24.3898L11.9838 24.4937L11.2158 24.4418L5.60515 24.0504L3.46741 23.9015L2.33628 23.8218C1.48534 22.2113 0.994141 20.722 0.994141 20.722L2.59917 20.8328L4.85106 20.9886L10.7004 21.3939L11.5687 21.4528L13.5819 21.3662L40.4869 20.1816H40.4834Z" fill="url(#paint14_linear_2324_124073)"/>
    <path d="M11.2578 17.376L11.5691 20.8119L40.4874 19.8455L41.3349 16.5933L11.2578 17.376Z" fill="url(#paint15_radial_2324_124073)"/>
    <path d="M11.9815 24.4972L11.5664 21.4562L40.4846 20.1816L39.6475 22.8867C39.6475 22.8867 12.234 24.5145 11.9815 24.4972Z" fill="url(#paint16_radial_2324_124073)"/>
    <path d="M0.992188 20.7254L1.65288 20.4622L1.68401 20.5938L12.2897 20.9783L40.1321 19.9565L40.1529 19.8457L40.485 20.1817L11.5667 21.4562L0.992188 20.7254Z" fill="url(#paint17_linear_2324_124073)"/>
    <path d="M38.5237 30.0042L36.7423 34.2609L14.3134 35.8091L4.29576 34.3613L3.19922 29.8691L5.25048 29.353L5.4511 29.8899L5.46494 29.9245L7.25331 30.2154L8.61274 30.0042L12.0476 30.4094L12.0684 30.5999L13.9744 30.9151H13.9778L18.6303 30.5653L18.658 30.2743L30.2703 29.8691L31.2319 30.0042L35.0681 29.7409L35.3552 29.1313L38.5237 30.0042Z" fill="url(#paint18_linear_2324_124073)"/>
    <path d="M38.5242 30.0042C38.5242 30.0042 35.3003 31.161 28.3371 31.4173C21.3739 31.6736 14.3173 31.4069 14.3173 31.4069C5.60029 30.2848 3.20312 29.8657 3.20312 29.8657L5.25438 29.3496L5.46885 29.9245L7.2157 30.2086C7.24684 30.2155 7.28143 30.2155 7.31256 30.2086L8.61319 30.0042L12.0516 30.4094L12.0723 30.5965L13.9783 30.9117L18.6343 30.5618L18.6585 30.2709L30.2707 29.8657L31.2324 30.0007L35.0685 29.7375L35.3556 29.1279L38.5242 30.0042Z" fill="url(#paint19_linear_2324_124073)"/>
    <path d="M14.3125 31.4105V35.8092L36.7414 34.261L38.5229 30.0078C38.5229 30.0078 33.8046 30.7733 27.1493 31.227C22.2823 31.5595 14.316 31.414 14.316 31.414L14.3125 31.4105Z" fill="url(#paint20_linear_2324_124073)"/>
    <path d="M41.3365 16.5932L13.1827 17.3274L11.256 17.3759L9.93111 17.3171L3.98489 17.0538L1.64306 16.9499L0.453125 16.898L1.60501 16.7871L1.62923 16.898L3.96413 16.9568L5.75941 16.8703L9.85501 16.9568L9.89652 17.1508H13.1585L18.821 16.9672L18.8107 16.7871L32.2044 16.3611L34.0481 16.5932L39.8905 16.3611L39.9286 16.1914L41.3365 16.5932Z" fill="url(#paint21_linear_2324_124073)"/>
    <path d="M17.4512 31.4173C17.4512 31.4173 18.7933 31.1333 23.3317 30.9254C27.87 30.7176 37.1024 30.2085 37.1024 30.2085C37.1024 30.2085 35.5251 31.1437 29.1292 31.5281C23.9751 31.8364 17.4512 31.4173 17.4512 31.4173Z" fill="#E6ADFF"/>
    <path style="mix-blend-mode:multiply" opacity="0.5" d="M24.1582 4.6339C24.1582 4.6339 25.151 2.59042 26.8425 2.37914C28.5305 2.16786 31.917 4.77591 33.145 8.74859C34.373 12.7213 34.0513 16.5935 34.0513 16.5935H32.2007L29.7447 16.0428C29.7447 16.0428 29.4576 12.8771 28.4648 9.48286C27.472 6.08859 24.8431 4.59234 24.8431 4.59234L24.1617 4.63737L24.1582 4.6339Z" fill="url(#paint22_linear_2324_124073)"/>
    <path d="M20.6161 16.7286V15.3016C20.6161 15.3016 26.4205 14.6816 30.1114 15.4263C30.1114 15.4263 32.4083 16.2956 32.602 16.9572C32.7957 17.6152 32.2457 25.0584 31.9067 25.377C31.291 25.9554 29.468 26.8871 29.468 26.8871L20.7787 27.1954L20.3359 24.0262L21.6919 23.9812C21.6919 23.9812 21.9064 22.1698 22.062 20.8155L22.0793 20.3791C22.0793 20.3791 22.1174 18.3252 21.8476 17.165L20.6161 16.732V16.7286Z" fill="url(#paint23_linear_2324_124073)"/>
    <path d="M24.726 17.5492C24.6464 18.4151 24.4043 24.601 24.4043 24.9889C24.4043 25.3768 31.2776 25.6851 31.7791 25.4149C32.2807 25.1447 32.7546 17.6912 32.1804 17.2652C31.8725 17.0366 24.7571 17.2202 24.726 17.5527V17.5492Z" fill="url(#paint24_linear_2324_124073)"/>
    <g style="mix-blend-mode:soft-light" opacity="0.5">
        <path d="M25.3692 22.6547C24.8158 22.6409 24.629 18.1556 25.1098 17.7573C25.5941 17.359 32.0765 17.0611 32.1664 17.5148C32.2564 17.9685 32.54 23.1292 31.9208 23.2331C31.3016 23.337 30.0494 21.9689 29.9284 21.6053C29.8073 21.2451 28.8941 19.8943 28.4236 19.8458C27.9497 19.7973 27.0988 22.6963 25.3727 22.6547H25.3692Z" fill="#594275"/>
    </g>
    <g style="mix-blend-mode:soft-light" opacity="0.31">
        <path d="M20.6152 15.3016C20.6152 15.3016 21.1687 15.8003 24.1332 16.784C24.5517 16.9225 32.3105 17.1442 32.3313 16.9537C32.3728 16.5935 30.5291 15.4852 30.1105 15.4228C26.2951 14.8721 22.5558 15.0245 20.6152 15.2981V15.3016Z" fill="#E75A29"/>
    </g>
    <path style="mix-blend-mode:multiply" opacity="0.5" d="M23.344 25.8862C21.9189 26.4508 20.7773 27.1954 20.7773 27.1954L29.4667 26.8872C29.4667 26.8872 31.2862 25.9763 31.2619 25.765C31.2377 25.5537 24.6481 25.3736 23.344 25.8897V25.8862Z" fill="url(#paint25_linear_2324_124073)"/>
    <path d="M26.682 23.8115C27.0902 23.9535 28.5153 24.376 29.8471 23.8669C29.9059 23.8461 29.937 23.7803 29.9197 23.718L29.0238 20.7324C28.9927 20.6112 29.0238 20.4865 29.1068 20.3895C29.2798 20.1782 29.3697 19.8977 29.3317 19.5964C29.2694 19.1322 28.8889 18.7616 28.4254 18.7097C27.8027 18.6404 27.2769 19.1288 27.2769 19.7384C27.2769 19.9254 27.4049 20.1609 27.5191 20.3306C27.6332 20.5003 27.6678 20.7151 27.6194 20.9125L26.6093 23.6522C26.5851 23.7145 26.6197 23.7872 26.682 23.808V23.8115Z" fill="#630F0F"/>
    <path d="M29.8473 23.8666C29.2281 24.1022 28.5847 24.1368 28.0381 24.0918C28.3702 24.0606 28.7127 23.9948 29.0482 23.8666C29.107 23.8459 29.1381 23.78 29.1208 23.7177L28.2249 20.7321C28.1938 20.6109 28.2249 20.4862 28.308 20.3892C28.4809 20.178 28.5708 19.8974 28.5328 19.5926C28.4844 19.229 28.2388 18.9207 27.9102 18.7822C28.0658 18.7163 28.2422 18.6886 28.4256 18.7094C28.8891 18.7614 29.2696 19.132 29.3319 19.5961C29.3734 19.8974 29.28 20.178 29.1105 20.3927C29.0309 20.4897 28.9963 20.6144 29.0275 20.7356L29.9234 23.7212C29.9407 23.78 29.9095 23.8459 29.8507 23.8701L29.8473 23.8666Z" fill="#941717"/>
    <path d="M30.8604 5.1014C31.0092 5.98114 31.5038 7.73716 32.0089 7.8376C32.2787 7.89302 32.3548 7.79604 32.5035 7.59515C32.9152 7.04098 32.8598 5.78372 32.4344 5.38541C32.0089 4.98711 30.7117 4.19049 30.8639 5.1014H30.8604Z" fill="url(#paint26_linear_2324_124073)"/>
    <path d="M31.518 6.44527C31.0338 6.58728 31.6841 7.86186 32.0715 7.89996C32.4589 7.94152 32.7287 6.09199 31.518 6.44527Z" fill="#8753A1"/>
    <path style="mix-blend-mode:multiply" opacity="0.5" d="M31.2309 30.004C31.2309 30.004 32.9535 25.4079 33.2234 23.2605H32.2756C32.2756 23.2605 32.1407 24.871 31.9089 25.3732C31.9089 25.3732 26.7237 25.7127 24.8419 25.5153C24.2504 25.4529 24.4061 24.49 24.5098 22.0448C24.6136 19.5995 24.3957 16.8737 24.1363 16.7837C23.8768 16.6971 20.6183 15.3013 20.6183 15.3013L18.7988 16.5932L18.8127 16.7871L20.3416 16.7386L20.7844 17.1577C20.7844 17.1577 21.1649 19.1666 21.0473 20.4931L20.0683 20.5243V20.6871L21.0403 21.0334C21.0403 21.0334 21.0057 22.9141 20.7463 23.9809L18.8957 24.1021L18.8023 28.0055C18.8023 28.0055 23.1712 27.538 28.2699 27.538C28.4705 27.538 28.384 29.0619 28.4256 29.9278L30.2727 29.862L31.2344 29.9971L31.2309 30.004Z" fill="url(#paint27_linear_2324_124073)"/>
    <path style="mix-blend-mode:multiply" opacity="0.5" d="M14.3129 31.4104V35.8091L4.29532 34.3613L3.19878 29.8691L5.25004 29.353L5.45066 29.8899C4.745 27.9607 4.07739 25.9414 3.46513 23.9049L2.334 23.8252C1.48305 22.2147 0.991859 20.7253 0.991859 20.7253L1.65255 20.4621C1.60412 20.2855 1.65255 20.4344 1.60412 20.2578L0.991859 20.2231C0.448778 18.6853 0.448778 16.8981 0.448778 16.8981L1.60066 16.7873C-0.326065 8.12498 -0.665059 0.664511 2.334 0.221178C5.70318 -0.277572 11.1029 5.54118 12.6526 13.8398C12.8497 14.8962 13.0158 16.0115 13.161 17.151L11.2585 17.3796L11.5698 20.8154L19.384 20.5522L17.9277 20.7911L11.5664 21.4596L11.9815 24.5006L13.7802 24.4071L13.9739 30.9185L11.6287 30.9116L14.3164 31.4138L14.3129 31.4104Z" fill="url(#paint28_linear_2324_124073)"/>
    <path style="mix-blend-mode:multiply" opacity="0.5" d="M5.71763 24.497C6.97329 24.5109 7.76542 25.9552 7.76542 25.9552C7.76542 25.9552 9.6714 26.0348 11.7227 27.8151L11.2176 24.4451L7.38146 24.1957L5.61039 24.0571L3.47266 23.9082L3.58335 24.2684L5.72454 24.5005L5.71763 24.497Z" fill="url(#paint29_linear_2324_124073)"/>
    <path style="mix-blend-mode:multiply" opacity="0.5" d="M4.20577 6.04342C2.97432 5.96723 2.64916 8.94241 3.29602 13.0363C3.29602 13.0363 3.8564 11.9314 4.82495 11.5851C4.82495 11.5851 6.47841 11.8726 7.86552 13.1333C8.70954 13.9022 9.41866 15.0556 9.41866 15.0556C9.41866 15.0556 8.27023 10.7192 7.04916 8.58566C5.83155 6.45558 4.76614 6.07806 4.20577 6.04342Z" fill="url(#paint30_linear_2324_124073)"/>
    <path d="M11.2552 17.376C11.0269 17.705 10.8712 18.7371 10.9992 19.2151C11.1272 19.6931 11.5527 20.6663 11.5527 20.6663C11.5527 20.6663 11.5907 19.2809 11.5631 18.8168C11.5389 18.3527 11.2517 17.3794 11.2517 17.3794L11.2552 17.376Z" fill="#9220D9"/>
    <path d="M11.5655 21.4561C11.9287 21.9132 12.0325 22.6371 12.1086 22.8692C12.1847 23.1012 11.9806 24.497 11.9806 24.497C11.9806 24.497 11.4375 23.0077 11.4375 22.7826C11.4375 22.5575 11.5655 21.4561 11.5655 21.4561Z" fill="#9220D9"/>
    <path d="M13.8057 25.1934C13.6086 26.2532 13.273 27.7321 13.4148 28.0127C13.5567 28.2932 13.9752 30.9151 13.9752 30.9151C13.9752 30.9151 14.3488 28.8474 14.1966 28.0542C14.0444 27.2611 13.8023 25.1934 13.8023 25.1934H13.8057Z" fill="#9220D9"/>
    <path d="M10.1478 6.70836C9.43521 6.72914 10.7635 12.0249 10.9572 12.1808C11.1509 12.3366 11.9984 12.5306 12.2682 12.257C12.538 11.9868 12.6695 9.76667 12.5519 9.35451C12.1299 7.90328 10.9157 6.68412 10.1478 6.70836Z" fill="url(#paint31_linear_2324_124073)"/>
    <path d="M11.576 10.5494C10.7943 9.45141 10.4034 9.38561 10.4311 9.9848C10.4587 10.5805 10.898 12.1876 11.0779 12.25C11.2578 12.3123 11.8216 12.4439 11.9531 12.1287C12.0845 11.8135 11.8701 10.9615 11.576 10.5528V10.5494Z" fill="#8753A1"/>
    <g style="mix-blend-mode:soft-light" opacity="0.5">
        <path d="M22.4799 20.9296C22.3208 21.2898 21.6981 25.7855 21.878 25.969C22.0579 26.1526 23.9812 25.072 24.1091 24.8261C24.2371 24.5801 24.2856 21.8647 23.9777 21.2517C23.6698 20.6421 22.6356 20.5832 22.4834 20.9296H22.4799Z" fill="#683C11"/>
    </g>
    <g style="mix-blend-mode:soft-light" opacity="0.29">
        <path d="M10.8404 19.371C11.131 19.7208 11.4043 20.6629 11.2555 20.6663C11.1068 20.6698 7.78257 20.5867 7.74452 20.462C7.70647 20.3373 10.5084 18.9692 10.8404 19.371Z" fill="#FFC29C"/>
    </g>
    <g style="mix-blend-mode:soft-light" opacity="0.5">
        <path d="M13.6602 31.8469C11.9444 31.3447 4.14066 29.8865 3.85701 30.3298C3.57337 30.7732 3.67368 33.8072 4.65607 34.1813C5.63846 34.5554 12.1139 35.1095 12.3699 35.061C13.6602 34.829 14.0026 31.9473 13.6602 31.8469Z" fill="#683C11"/>
    </g>
    <g style="mix-blend-mode:soft-light" opacity="0.5">
        <path d="M1.56233 0.893324C-0.388614 2.56621 0.237486 8.37111 1.41359 8.10095C1.79063 8.01436 2.98057 6.0159 3.91107 5.87736C4.83812 5.74228 5.97617 6.04361 6.82711 6.04361C7.67805 6.04361 8.32491 5.03918 7.05195 3.2139C5.77554 1.38861 2.82491 -0.194227 1.56233 0.893324Z" fill="#683C11"/>
    </g>
    <path d="M32.8609 20.5176C35.7043 21.2068 40.2634 20.1816 40.2634 20.1816C40.2634 20.1816 38.2917 20.2267 37.2643 20.2128C36.2404 20.199 32.8574 20.5176 32.8574 20.5176H32.8609Z" fill="#E6ADFF"/>
    <path d="M13.1816 17.3279C14.9735 17.8335 20.3351 17.1408 20.3351 17.1408C20.3351 17.1408 19.0068 17.0404 16.4228 17.1408C13.8389 17.2413 13.1816 17.3279 13.1816 17.3279Z" fill="#E6ADFF"/>
    <g style="mix-blend-mode:soft-light" opacity="0.5">
        <path d="M28.9178 2.6353C29.6477 3.22756 31.6851 4.66147 32.0621 4.79308C35.0785 5.84946 39.8382 5.84946 39.4508 5.11519C39.0634 4.37746 38.4062 2.20928 36.936 2.05342C35.4659 1.89756 28.3989 2.21621 28.9178 2.6353Z" fill="#594275"/>
    </g>
    <g style="mix-blend-mode:soft-light" opacity="0.3">
        <path d="M32.8609 26.3741C32.5461 26.8486 31.9616 29.4117 32.3109 29.4913C32.6603 29.5675 36.5207 26.5473 36.4792 25.6572C36.4411 24.7671 33.3002 25.7161 32.8609 26.3776V26.3741Z" fill="#D2FFF1"/>
    </g>
    <g style="mix-blend-mode:soft-light" opacity="0.1">
        <path d="M37.9795 11.2665C37.2946 12.0285 37.516 12.7073 37.9795 12.7073C38.443 12.7073 39.6814 11.0899 39.6053 10.9686C39.5292 10.8474 38.4984 10.6881 37.9795 11.2665Z" fill="#D2FFF1"/>
    </g>
    <g style="mix-blend-mode:soft-light" opacity="0.5">
        <path d="M6.56465 0.536351C5.35396 0.557133 9.72975 5.30911 11.2068 5.73513C12.6838 6.16114 15.5584 6.39666 15.5411 5.34721C15.5134 3.82325 14.5172 2.02221 13.0851 1.59619C11.653 1.17018 7.38793 0.522497 6.56465 0.536351Z" fill="#594275"/>
    </g>
    <g style="mix-blend-mode:soft-light" opacity="0.1">
        <path d="M13.181 8.94946C12.8385 10.0647 13.4957 16.3753 13.9766 16.597C14.4574 16.8152 17.9407 16.8221 17.9407 16.0463C17.9407 15.2704 13.4923 7.94504 13.181 8.95293V8.94946Z" fill="#D2FFF1"/>
    </g>
    <g style="mix-blend-mode:soft-light" opacity="0.1">
        <path d="M14.959 8.94944C14.959 9.38931 16.0279 12.1671 16.4222 12.1671C16.8165 12.1671 17.3942 9.1434 16.7577 8.94944C16.1213 8.75549 14.9555 8.46455 14.959 8.94944Z" fill="#D2FFF1"/>
    </g>
    <path style="mix-blend-mode:multiply" opacity="0.5" d="M18.6582 30.2744C21.218 29.5055 30.2705 29.8691 30.2705 29.8691C30.2705 29.8691 28.1639 30.361 24.2897 30.4649C20.4154 30.5688 18.6582 30.2778 18.6582 30.2778V30.2744Z" fill="url(#paint32_linear_2324_124073)"/>
    <g style="mix-blend-mode:soft-light" opacity="0.5">
        <path d="M14.3125 35.8093C16.4675 34.5694 26.243 31.7397 31.5839 31.6427C36.9248 31.5457 36.7414 34.2577 36.7414 34.2577L14.3125 35.8059V35.8093Z" fill="#594275"/>
    </g>
    <path d="M9.41452 20.7186C9.50445 20.7012 11.4623 20.1748 11.5661 20.1817C12.4067 20.2614 14.3714 20.5973 14.8315 20.6874C14.8765 20.6943 11.6906 20.8121 11.5695 20.8121C10.7843 20.8121 9.34533 20.7289 9.41452 20.7151V20.7186Z" fill="#6720D9"/>
    <path d="M41.2427 16.957C41.1908 16.9917 35.7289 16.8808 35.7012 16.7423C35.6908 16.6973 41.3361 16.4895 41.3361 16.5968C41.3361 16.7527 41.2877 16.9293 41.2427 16.957Z" fill="#E6ADFF"/>
    <path d="M11.5667 21.4564C11.7189 21.7092 12.0648 22.5647 12.127 22.6513C12.2896 22.8834 18.0248 21.207 17.6167 21.1862C17.205 21.1689 11.4352 21.2347 11.5667 21.4529V21.4564Z" fill="#E6ADFF"/>
    <path style="mix-blend-mode:multiply" opacity="0.5" d="M37.6831 23.5274C37.6831 23.5274 35.4243 24.3483 32.8611 24.9059C32.8611 24.9059 32.2869 25.4081 31.0347 26.3745C31.0347 26.3745 30.9793 26.849 30.8721 27.1988C30.8721 27.1988 21.3214 27.6248 18.8724 27.5486L18.8793 24.7085C18.8793 24.7085 16.5859 24.9717 13.8359 25.422C13.8359 25.422 12.2758 25.7406 11.4249 25.7926L11.3073 25.1969L10.9648 24.4314L21.702 23.9846C21.702 23.9846 20.8648 24.7085 20.5535 25.3804L20.7887 27.2023L29.4781 26.894C29.4781 26.894 31.6192 25.848 31.9167 25.3839C32.2142 24.9198 32.2834 23.2711 32.2834 23.2711L37.8906 23.001L37.6935 23.5344L37.6831 23.5274Z" fill="url(#paint33_linear_2324_124073)"/>
    <g style="mix-blend-mode:soft-light" opacity="0.5">
        <path d="M40.2624 12.7871C39.9545 12.2468 34.0567 14.5847 34.1812 15.0592C34.3058 15.5337 33.9149 16.5623 34.3438 16.5623C34.7728 16.5623 39.235 16.4515 39.6086 16.1917C39.9822 15.9285 40.5737 13.3309 40.2624 12.7871Z" fill="#594275"/>
    </g>
    <g style="mix-blend-mode:soft-light" opacity="0.3">
        <path d="M33.5533 17.0295C33.0483 17.3032 32.4222 19.8316 32.8615 19.8939C33.3008 19.9528 39.337 19.7588 39.7036 19.5475C40.0703 19.3328 40.5823 17.1161 40.1672 17.033C39.7521 16.9499 34.1898 16.6867 33.5499 17.033L33.5533 17.0295Z" fill="#D2FFF1"/>
    </g>
    <g style="mix-blend-mode:soft-light" opacity="0.29">
        <path d="M0.991866 17.3034C0.614822 18.2316 0.684005 19.3642 0.991866 19.2984C1.29973 19.2326 3.62772 17.5424 2.96702 17.3761C2.30633 17.2133 1.13715 16.9432 0.991866 17.3034Z" fill="#FFC29C"/>
    </g>
    <g style="mix-blend-mode:soft-light" opacity="0.3">
        <path d="M15.1523 32.0129C13.9105 32.6814 14.6196 34.8149 15.7957 34.5447C20.7769 33.3949 16.9234 31.057 15.1523 32.0129Z" fill="#D2FFF1"/>
    </g>
    <g style="mix-blend-mode:soft-light" opacity="0.29">
        <path d="M4.47487 24.9368C4.50255 25.6191 5.29122 28.8437 5.50569 29.1311C5.69594 29.3805 6.59877 29.623 6.60223 29.4048C6.61261 28.9649 4.4472 24.3134 4.47487 24.9368Z" fill="#FFC29C"/>
    </g>
    <g style="mix-blend-mode:soft-light" opacity="0.29">
        <path d="M10.0487 13.497C9.33611 14.1931 9.74082 16.5899 10.3081 16.7873C10.8754 16.9847 12.5635 17.4246 12.5946 16.441C12.6257 15.4573 11.9304 11.6647 10.0487 13.497Z" fill="#FFC29C"/>
    </g>
    <g style="mix-blend-mode:soft-light" opacity="0.9">
        <path d="M40.0146 6.2684C39.9178 5.93937 32.8612 6.70827 32.8612 6.70827L32.5879 7.39059C32.5879 7.39059 33.3662 9.01153 33.5876 10.2203C33.5876 10.2203 33.6913 9.51028 34.0891 9.35442C34.5181 9.18817 39.6307 8.9284 40.0734 8.94918C40.5162 8.9665 40.4885 9.61072 40.4885 9.61072C40.4885 9.61072 40.4539 7.76812 40.0181 6.27187L40.0146 6.2684Z" fill="#CADAFC"/>
    </g>
    <g style="mix-blend-mode:soft-light" opacity="0.9">
        <path d="M9.66406 5.8667C10.7606 6.24076 16.8175 6.79493 16.8175 6.79493C16.8832 6.96118 17.2949 8.10761 17.2949 8.10761C17.2949 8.10761 13.3619 7.48417 11.57 7.57769C11.57 7.57769 10.7122 6.6737 10.1483 6.70834L9.66752 5.8667H9.66406Z" fill="#CADAFC"/>
    </g>
    <path style="mix-blend-mode:color-dodge" opacity="0.6" d="M35.0304 15.7374C38.4422 14.3027 40.0465 10.3704 38.6137 6.95417C37.1809 3.53797 33.2536 1.9316 29.8417 3.36623C26.4299 4.80087 24.8256 8.73324 26.2584 12.1494C27.6912 15.5656 31.6185 17.172 35.0304 15.7374Z" fill="url(#paint34_radial_2324_124073)"/>
    <path style="mix-blend-mode:color-dodge" opacity="0.6" d="M20.8256 21.9577C21.4885 18.3124 19.0746 14.8192 15.434 14.1555C11.7934 13.4917 8.30466 15.9087 7.64174 19.554C6.97881 23.1992 9.39271 26.6924 13.0333 27.3562C16.6739 28.0199 20.1627 25.603 20.8256 21.9577Z" fill="url(#paint35_radial_2324_124073)"/>
    <path style="mix-blend-mode:color-dodge" opacity="0.6" d="M22.4406 31.3826C26.141 31.3826 29.1409 28.3789 29.1409 24.6737C29.1409 20.9685 26.141 17.9648 22.4406 17.9648C18.7401 17.9648 15.7402 20.9685 15.7402 24.6737C15.7402 28.3789 18.7401 31.3826 22.4406 31.3826Z" fill="url(#paint36_radial_2324_124073)"/>
    <path style="mix-blend-mode:multiply" opacity="0.5" d="M26.2954 18.6398C24.2061 20.0841 24.0954 23.6446 25.0812 24.8291C25.9633 25.889 31.7573 26.0206 31.875 21.8851C31.9926 17.7497 27.8243 17.5869 26.2989 18.6398H26.2954Z" fill="url(#paint37_linear_2324_124073)"/>
    <path d="M30.4732 18.0751C28.1279 16.7036 25.6962 18.3903 25.3537 20.6174C25.0113 22.8479 27.066 25.3867 29.854 24.4827C32.6421 23.5822 32.5314 19.277 30.4698 18.0717L30.4732 18.0751Z" fill="url(#paint38_linear_2324_124073)"/>
    <path d="M31.1067 19.5435C30.4633 18.3209 28.3601 17.8879 27.0803 18.9893C25.8004 20.0907 25.6966 22.6122 27.5369 23.5958C29.5189 24.6557 32.7152 22.6018 31.1067 19.5435Z" fill="url(#paint39_linear_2324_124073)"/>
    <path d="M28.927 23.6409C27.5641 23.6651 26.4364 22.5533 26.4087 21.1506C26.381 19.7513 27.4672 18.5945 28.8301 18.5668C30.193 18.5426 31.3207 19.6543 31.3483 21.0571C31.376 22.4564 30.2899 23.6132 28.927 23.6409Z" fill="url(#paint40_linear_2324_124073)"/>
    <path d="M29.0124 23.5682C27.6876 23.5925 26.591 22.5084 26.5668 21.1472C26.5426 19.786 27.5942 18.6604 28.9225 18.6361C30.2473 18.6119 31.3439 19.696 31.3681 21.0572C31.3923 22.4183 30.3407 23.544 29.0124 23.5682Z" fill="url(#paint41_linear_2324_124073)"/>
    <path style="mix-blend-mode:multiply" opacity="0.5" d="M29.0124 23.5684C27.6876 23.5926 26.591 22.5085 26.5668 21.1474C26.5426 19.7862 27.5942 18.6605 28.9225 18.6363C29.5693 18.6224 30.1574 18.8753 30.5967 19.2909C30.2715 19.0865 29.8841 18.9688 29.469 18.9792C28.3517 19 27.4627 19.9109 27.4835 21.0123C27.5042 22.1137 28.4278 22.99 29.5451 22.9692C30.2093 22.9553 30.7904 22.6297 31.1502 22.1379C30.7766 22.9692 29.9671 23.551 29.0159 23.5684H29.0124Z" fill="url(#paint42_linear_2324_124073)"/>
    <path style="mix-blend-mode:color-dodge" opacity="0.3" d="M29.3913 22.7611C28.402 22.7784 27.5856 21.9714 27.5649 20.9566C27.5441 19.9418 28.3328 19.1036 29.3221 19.0828C30.3114 19.0655 31.1277 19.8725 31.1485 20.8873C31.1693 21.9021 30.3806 22.7403 29.3913 22.7611Z" fill="url(#paint43_radial_2324_124073)"/>
    <path d="M29.2591 19.7653C29.1795 19.89 29.4874 20.2364 29.6015 20.2918C29.6015 20.2918 29.9716 20.1809 29.9889 19.9073C29.9889 19.9073 29.816 19.554 29.5358 19.4917C29.5358 19.4917 29.3732 19.5887 29.2591 19.7653Z" fill="url(#paint44_linear_2324_124073)"/>
    <path d="M25.3573 20.6207C25.6167 18.9374 27.0626 17.5659 28.768 17.5832C26.8274 17.8603 25.1567 19.3461 25.8796 22.2382C25.9696 22.5915 26.8931 24.5449 28.9098 24.6696C26.6233 24.7977 25.0564 22.5915 25.3573 20.6207Z" fill="url(#paint45_linear_2324_124073)"/>
    <path style="mix-blend-mode:color-dodge" opacity="0.5" d="M30.1831 24.3581C29.8926 24.2403 31.3281 22.6678 31.6394 22.8653C31.3488 23.506 30.868 24.0463 30.1831 24.3581Z" fill="url(#paint46_linear_2324_124073)"/>
    <path style="mix-blend-mode:color-dodge" opacity="0.5" d="M34.7156 21.6051C35.2217 18.5965 33.1961 15.7467 30.1913 15.24C27.1865 14.7333 24.3403 16.7615 23.8343 19.7701C23.3282 22.7788 25.3538 25.6285 28.3586 26.1353C31.3634 26.642 34.2096 24.6138 34.7156 21.6051Z" fill="url(#paint47_radial_2324_124073)"/>
    <path d="M17.9348 23.5342C16.603 22.9246 14.9219 20.9296 14.9219 20.9296C14.9219 20.9296 16.4716 18.803 17.7687 18.0791C19.0382 18.8064 20.3389 20.6802 20.3389 20.6802C20.3389 20.6802 19.1558 22.7099 17.9382 23.5342H17.9348Z" fill="url(#paint48_linear_2324_124073)"/>
    <path style="mix-blend-mode:multiply" opacity="0.5" d="M17.7687 18.0825C16.475 18.8029 14.9219 20.933 14.9219 20.933L15.9423 20.9988C16.7656 19.6792 17.7549 18.7822 17.7549 18.7822C17.7549 18.7822 17.7929 18.4739 17.7653 18.0825H17.7687Z" fill="url(#paint49_linear_2324_124073)"/>
    <path d="M15.9449 20.9989C15.9449 20.9989 16.8269 19.3468 17.7574 18.7822C17.7574 18.7822 18.7225 19.236 19.9886 20.7114C19.9886 20.7114 19.1238 22.3081 17.92 23.1324C17.92 23.1324 17.1659 22.4951 15.9414 20.9989H15.9449Z" fill="url(#paint50_linear_2324_124073)"/>
    <path d="M17.7554 19.354C16.7315 20.0571 16.2715 21.0511 16.2715 21.0511C16.9426 22.0105 17.8488 22.5266 17.8488 22.5266C18.5891 21.872 19.2809 20.878 19.2809 20.878C18.6583 20.1541 17.7554 19.354 17.7554 19.354Z" fill="url(#paint51_linear_2324_124073)"/>
    <path d="M17.7559 19.354L17.8493 22.5266C18.4581 22.0071 19.2813 20.878 19.2813 20.878C18.6587 20.1541 17.7559 19.354 17.7559 19.354Z" fill="url(#paint52_linear_2324_124073)"/>
    <path d="M17.8352 21.5672L18.3887 20.9507L17.7972 20.3203L17.2402 20.968L17.8352 21.5672Z" fill="url(#paint53_linear_2324_124073)"/>
    <path d="M17.8549 22.2978L17.8341 21.567L17.2391 20.9678L16.5508 20.9989L17.8549 22.2978Z" fill="url(#paint54_linear_2324_124073)"/>
    <path d="M19.0293 20.9229L18.3894 20.9506L17.8359 21.5671L17.8567 22.2979L19.0293 20.9229Z" fill="url(#paint55_linear_2324_124073)"/>
    <path d="M17.7961 20.3202L17.2391 20.9678L16.5508 20.999L17.7719 19.5894L17.7961 20.3202Z" fill="url(#paint56_linear_2324_124073)"/>
    <path d="M19.0291 20.9228L18.3892 20.9505L17.7977 20.3202L17.7734 19.5894L19.0291 20.9228Z" fill="url(#paint57_linear_2324_124073)"/>
    <path d="M18.973 19.3536C19.0837 19.1734 19.824 20.0601 19.7928 20.2922C19.779 20.3857 18.9004 19.4748 18.973 19.3536Z" fill="url(#paint58_linear_2324_124073)"/>
    <path d="M18.0895 20.9469C18.2244 20.6456 17.9961 20.6871 17.8542 20.7737C17.7124 20.8568 17.6778 21.1997 18.0168 21.03L18.0895 20.9504V20.9469Z" fill="url(#paint59_linear_2324_124073)"/>
    <path style="mix-blend-mode:multiply" opacity="0.5" d="M17.768 18.0825C16.4224 18.3319 13.2262 20.7425 13.2262 20.7425L12.8906 20.9607C12.8906 20.9607 16.0108 23.0839 17.9375 23.5376L17.9236 23.1324C17.9236 23.1324 16.5469 21.9028 15.945 20.9988C15.945 20.9988 16.5504 19.6827 17.7576 18.7822L17.768 18.0825Z" fill="url(#paint60_linear_2324_124073)"/>
    <path d="M36.3219 22.4674C35.1769 21.8856 33.7656 20.0637 33.7656 20.0637C33.7656 20.0637 35.17 18.2038 36.3185 17.5942C37.4046 18.2766 38.4873 19.9841 38.4873 19.9841C38.4873 19.9841 37.4046 21.7678 36.3219 22.4709V22.4674Z" fill="url(#paint61_linear_2324_124073)"/>
    <path style="mix-blend-mode:multiply" opacity="0.5" d="M36.3185 17.5909C35.1735 18.2004 33.7656 20.0604 33.7656 20.0604L34.6442 20.1608C35.3949 19.004 36.2908 18.2108 36.2908 18.2108C36.2908 18.2108 36.3323 17.9372 36.3185 17.5874V17.5909Z" fill="url(#paint62_linear_2324_124073)"/>
    <path d="M34.6445 20.1643C34.6445 20.1643 35.4643 18.6958 36.2911 18.2144C36.2911 18.2144 37.1213 18.6438 38.1832 19.9981C38.1832 19.9981 37.3911 21.4008 36.3222 22.1074C36.3222 22.1074 35.6719 21.5324 34.6445 20.1643Z" fill="url(#paint63_linear_2324_124073)"/>
    <path d="M36.2728 18.7266C35.3631 19.3293 34.9688 20.1432 34.9688 20.1432C35.5291 21.0195 36.2728 21.5598 36.2728 21.5598C36.9335 20.9952 37.5631 20.1259 37.5631 20.1259C37.0408 19.4643 36.2728 18.7231 36.2728 18.7231V18.7266Z" fill="url(#paint64_linear_2324_124073)"/>
    <path d="M36.2734 18.7266V21.5632C36.82 21.1164 37.5637 20.1293 37.5637 20.1293C37.0414 19.4678 36.2734 18.7266 36.2734 18.7266Z" fill="url(#paint65_linear_2324_124073)"/>
    <path d="M36.2828 20.7041L36.7844 20.1673L36.2828 19.5889L35.7812 20.1534L36.2828 20.7041Z" fill="url(#paint66_linear_2324_124073)"/>
    <path d="M36.2831 21.3591V20.7045L35.7816 20.1538L35.1797 20.1642L36.2831 21.3591Z" fill="url(#paint67_linear_2324_124073)"/>
    <path d="M37.3382 20.1606L36.7848 20.1676L36.2832 20.7044V21.359L37.3382 20.1606Z" fill="url(#paint68_linear_2324_124073)"/>
    <path d="M36.2831 19.5892L35.7816 20.1537L35.1797 20.1641L36.2831 18.9346V19.5892Z" fill="url(#paint69_linear_2324_124073)"/>
    <path d="M37.3382 20.1607L36.7848 20.1676L36.2832 19.5892V18.9346L37.3382 20.1607Z" fill="url(#paint70_linear_2324_124073)"/>
    <path d="M37.3323 18.7581C37.4326 18.6023 38.0552 19.4093 38.0206 19.6171C38.0068 19.7002 37.2665 18.8655 37.3323 18.7581Z" fill="url(#paint71_linear_2324_124073)"/>
    <path d="M36.5271 20.1575C36.6516 19.8908 36.451 19.9255 36.3265 19.9948C36.202 20.0675 36.1605 20.3723 36.4614 20.2268L36.5271 20.1575Z" fill="url(#paint72_linear_2324_124073)"/>
    <path style="mix-blend-mode:multiply" opacity="0.5" d="M36.3166 17.5908C34.3172 18.3597 32.5531 19.9045 32.5531 19.9045L32.5254 20.3339C32.5254 20.3339 34.6562 22.0103 36.32 22.4675V22.1073C36.32 22.1073 35.1439 20.9886 34.6424 20.1642C34.6424 20.1642 35.2131 18.9866 36.2889 18.2143L36.3166 17.5908Z" fill="url(#paint73_linear_2324_124073)"/>
    <defs>
        <linearGradient id="paint0_linear_2324_124073" x1="20.6155" y1="3.65345" x2="20.6155" y2="30.3331" gradientUnits="userSpaceOnUse">
            <stop offset="0.02" stop-color="#CD6D22"/>
            <stop offset="0.29" stop-color="#CA5E2E"/>
            <stop offset="0.66" stop-color="#C7513A"/>
            <stop offset="1" stop-color="#C74D3E"/>
        </linearGradient>
        <radialGradient id="paint1_radial_2324_124073" cx="0" cy="0" r="1" gradientUnits="userSpaceOnUse" gradientTransform="translate(25.582 9.04986) scale(3.86384 3.86878)">
            <stop offset="0.02" stop-color="#FFA41A"/>
            <stop offset="1" stop-color="#FF8836"/>
        </radialGradient>
        <radialGradient id="paint2_radial_2324_124073" cx="0" cy="0" r="1" gradientUnits="userSpaceOnUse" gradientTransform="translate(24.5074 14.4422) scale(3.6044 3.609)">
            <stop offset="0.02" stop-color="#FFA41A"/>
            <stop offset="1" stop-color="#FF8836"/>
        </radialGradient>
        <radialGradient id="paint3_radial_2324_124073" cx="0" cy="0" r="1" gradientUnits="userSpaceOnUse" gradientTransform="translate(23.6214 28.6845) scale(3.09937 3.10332)">
            <stop offset="0.02" stop-color="#FFA41A"/>
            <stop offset="1" stop-color="#FF8836"/>
        </radialGradient>
        <radialGradient id="paint4_radial_2324_124073" cx="0" cy="0" r="1" gradientUnits="userSpaceOnUse" gradientTransform="translate(22.4424 6.44522) scale(4.41384 4.41948)">
            <stop offset="0.02" stop-color="#FFA41A"/>
            <stop offset="1" stop-color="#FF8836"/>
        </radialGradient>
        <radialGradient id="paint5_radial_2324_124073" cx="0" cy="0" r="1" gradientUnits="userSpaceOnUse" gradientTransform="translate(21.4976 11.2662) scale(2.60472 2.60805)">
            <stop offset="0.02" stop-color="#FFA41A"/>
            <stop offset="1" stop-color="#FF8836"/>
        </radialGradient>
        <linearGradient id="paint6_linear_2324_124073" x1="22.9441" y1="29.5987" x2="27.4867" y2="26.1442" gradientUnits="userSpaceOnUse">
            <stop stop-color="#36193B"/>
            <stop offset="1" stop-color="#8E37E2"/>
        </linearGradient>
        <linearGradient id="paint7_linear_2324_124073" x1="2.33398" y1="15.6825" x2="18.9724" y2="15.6825" gradientUnits="userSpaceOnUse">
            <stop stop-color="#655ED6"/>
            <stop offset="1" stop-color="#F07FD8"/>
        </linearGradient>
        <linearGradient id="paint8_linear_2324_124073" x1="26.8379" y1="15.7999" x2="40.5637" y2="15.7999" gradientUnits="userSpaceOnUse">
            <stop stop-color="#655ED6"/>
            <stop offset="1" stop-color="#F07FD8"/>
        </linearGradient>
        <linearGradient id="paint9_linear_2324_124073" x1="7.76159" y1="32.4251" x2="4.27296" y2="5.93018" gradientUnits="userSpaceOnUse">
            <stop stop-color="#5652D6"/>
            <stop offset="1" stop-color="#D43FB3"/>
        </linearGradient>
        <linearGradient id="paint10_linear_2324_124073" x1="9.1796" y1="4.21118" x2="3.82885" y2="38.1448" gradientUnits="userSpaceOnUse">
            <stop stop-color="#6544CF"/>
            <stop offset="0.49" stop-color="#993EC7"/>
            <stop offset="1" stop-color="#662D87"/>
        </linearGradient>
        <linearGradient id="paint11_linear_2324_124073" x1="24.1578" y1="16.1916" x2="34.0993" y2="16.1916" gradientUnits="userSpaceOnUse">
            <stop stop-color="#6544CF"/>
            <stop offset="0.49" stop-color="#993EC7"/>
            <stop offset="1" stop-color="#662D87"/>
        </linearGradient>
        <linearGradient id="paint12_linear_2324_124073" x1="1.5625" y1="20.4622" x2="40.2631" y2="20.4622" gradientUnits="userSpaceOnUse">
            <stop stop-color="#481E52"/>
            <stop offset="1" stop-color="#66115E"/>
        </linearGradient>
        <linearGradient id="paint13_linear_2324_124073" x1="20.3569" y1="18.6229" x2="2.63582" y2="18.3914" gradientUnits="userSpaceOnUse">
            <stop stop-color="#6544CF"/>
            <stop offset="0.49" stop-color="#993EC7"/>
            <stop offset="1" stop-color="#662D87"/>
        </linearGradient>
        <linearGradient id="paint14_linear_2324_124073" x1="20.3064" y1="22.2632" x2="2.58533" y2="22.0318" gradientUnits="userSpaceOnUse">
            <stop stop-color="#6544CF"/>
            <stop offset="0.49" stop-color="#993EC7"/>
            <stop offset="1" stop-color="#662D87"/>
        </linearGradient>
        <radialGradient id="paint15_radial_2324_124073" cx="0" cy="0" r="1" gradientUnits="userSpaceOnUse" gradientTransform="translate(24.8003 12.7626) scale(16.8217 16.8432)">
            <stop stop-color="#F07FD8"/>
            <stop offset="0.13" stop-color="#E97DD7"/>
            <stop offset="0.32" stop-color="#D678D7"/>
            <stop offset="0.55" stop-color="#B771D7"/>
            <stop offset="0.8" stop-color="#8D67D6"/>
            <stop offset="1" stop-color="#655ED6"/>
        </radialGradient>
        <radialGradient id="paint16_radial_2324_124073" cx="0" cy="0" r="1" gradientUnits="userSpaceOnUse" gradientTransform="translate(27.0079 18.5676) scale(20.7651 20.7916)">
            <stop stop-color="#F07FD8"/>
            <stop offset="0.13" stop-color="#E97DD7"/>
            <stop offset="0.32" stop-color="#D678D7"/>
            <stop offset="0.55" stop-color="#B771D7"/>
            <stop offset="0.8" stop-color="#8D67D6"/>
            <stop offset="1" stop-color="#655ED6"/>
        </radialGradient>
        <linearGradient id="paint17_linear_2324_124073" x1="0.992188" y1="20.6527" x2="40.485" y2="20.6527" gradientUnits="userSpaceOnUse">
            <stop stop-color="#E82AD5"/>
            <stop offset="1" stop-color="#FFA3D1"/>
        </linearGradient>
        <linearGradient id="paint18_linear_2324_124073" x1="20.8615" y1="36.0688" x2="20.8615" y2="28.6603" gradientUnits="userSpaceOnUse">
            <stop stop-color="#6544CF"/>
            <stop offset="0.49" stop-color="#993EC7"/>
            <stop offset="1" stop-color="#662D87"/>
        </linearGradient>
        <linearGradient id="paint19_linear_2324_124073" x1="3.19967" y1="30.3298" x2="38.5242" y2="30.3298" gradientUnits="userSpaceOnUse">
            <stop stop-color="#E82AD5"/>
            <stop offset="1" stop-color="#FFA3D1"/>
        </linearGradient>
        <linearGradient id="paint20_linear_2324_124073" x1="14.3125" y1="32.9068" x2="38.5229" y2="32.9068" gradientUnits="userSpaceOnUse">
            <stop stop-color="#655ED6"/>
            <stop offset="1" stop-color="#F07FD8"/>
        </linearGradient>
        <linearGradient id="paint21_linear_2324_124073" x1="0.453125" y1="16.7837" x2="41.3365" y2="16.7837" gradientUnits="userSpaceOnUse">
            <stop stop-color="#E82AD5"/>
            <stop offset="1" stop-color="#FFA3D1"/>
        </linearGradient>
        <linearGradient id="paint22_linear_2324_124073" x1="25.5349" y1="10.9064" x2="33.8938" y2="8.47032" gradientUnits="userSpaceOnUse">
            <stop stop-color="white"/>
            <stop offset="0.44" stop-color="#881DED"/>
            <stop offset="1" stop-color="#262262"/>
        </linearGradient>
        <linearGradient id="paint23_linear_2324_124073" x1="20.3359" y1="21.1273" x2="32.6435" y2="21.1273" gradientUnits="userSpaceOnUse">
            <stop stop-color="#655ED6"/>
            <stop offset="1" stop-color="#F07FD8"/>
        </linearGradient>
        <linearGradient id="paint24_linear_2324_124073" x1="28.4203" y1="25.5812" x2="28.4203" y2="18.9173" gradientUnits="userSpaceOnUse">
            <stop stop-color="#655ED6"/>
            <stop offset="1" stop-color="#F07FD8"/>
        </linearGradient>
        <linearGradient id="paint25_linear_2324_124073" x1="26.0214" y1="25.6091" x2="26.0214" y2="27.9401" gradientUnits="userSpaceOnUse">
            <stop stop-color="#E54136"/>
            <stop offset="1" stop-color="white"/>
        </linearGradient>
        <linearGradient id="paint26_linear_2324_124073" x1="30.8501" y1="6.26862" x2="32.7837" y2="6.26862" gradientUnits="userSpaceOnUse">
            <stop stop-color="#481E52"/>
            <stop offset="1" stop-color="#66115E"/>
        </linearGradient>
        <linearGradient id="paint27_linear_2324_124073" x1="22.7561" y1="28.7606" x2="24.6177" y2="24.2701" gradientUnits="userSpaceOnUse">
            <stop stop-color="white"/>
            <stop offset="0.44" stop-color="#881DED"/>
            <stop offset="1" stop-color="#262262"/>
        </linearGradient>
        <linearGradient id="paint28_linear_2324_124073" x1="-2.02449" y1="17.9995" x2="13.5692" y2="17.9995" gradientUnits="userSpaceOnUse">
            <stop stop-color="white"/>
            <stop offset="0.44" stop-color="#881DED"/>
            <stop offset="1" stop-color="#262262"/>
        </linearGradient>
        <linearGradient id="paint29_linear_2324_124073" x1="3.4692" y1="25.8582" x2="11.7227" y2="25.8582" gradientUnits="userSpaceOnUse">
            <stop stop-color="white"/>
            <stop offset="0.44" stop-color="#881DED"/>
            <stop offset="1" stop-color="#262262"/>
        </linearGradient>
        <linearGradient id="paint30_linear_2324_124073" x1="6.25357" y1="15.7968" x2="6.13565" y2="8.94241" gradientUnits="userSpaceOnUse">
            <stop stop-color="white"/>
            <stop offset="0.44" stop-color="#881DED"/>
            <stop offset="1" stop-color="#262262"/>
        </linearGradient>
        <linearGradient id="paint31_linear_2324_124073" x1="9.93678" y1="9.54847" x2="12.5934" y2="9.54847" gradientUnits="userSpaceOnUse">
            <stop stop-color="#481E52"/>
            <stop offset="1" stop-color="#66115E"/>
        </linearGradient>
        <linearGradient id="paint32_linear_2324_124073" x1="18.6582" y1="30.1358" x2="30.2705" y2="30.1358" gradientUnits="userSpaceOnUse">
            <stop stop-color="white"/>
            <stop offset="0.44" stop-color="#881DED"/>
            <stop offset="1" stop-color="#262262"/>
        </linearGradient>
        <linearGradient id="paint33_linear_2324_124073" x1="10.9545" y1="25.2731" x2="37.8803" y2="25.2731" gradientUnits="userSpaceOnUse">
            <stop stop-color="white"/>
            <stop offset="0.44" stop-color="#881DED"/>
            <stop offset="1" stop-color="#262262"/>
        </linearGradient>
        <radialGradient id="paint34_radial_2324_124073" cx="0" cy="0" r="1" gradientUnits="userSpaceOnUse" gradientTransform="translate(32.4361 9.54983) scale(6.70031 6.70888)">
            <stop stop-color="#27A0D7"/>
            <stop offset="0.1" stop-color="#2495C9"/>
            <stop offset="0.3" stop-color="#1E7BA5"/>
            <stop offset="0.57" stop-color="#13506B"/>
            <stop offset="0.89" stop-color="#05151C"/>
            <stop offset="1"/>
        </radialGradient>
        <radialGradient id="paint35_radial_2324_124073" cx="0" cy="0" r="1" gradientUnits="userSpaceOnUse" gradientTransform="translate(14.2329 20.755) scale(6.70031 6.70888)">
            <stop stop-color="#27A0D7"/>
            <stop offset="0.1" stop-color="#2495C9"/>
            <stop offset="0.3" stop-color="#1E7BA5"/>
            <stop offset="0.57" stop-color="#13506B"/>
            <stop offset="0.89" stop-color="#05151C"/>
            <stop offset="1"/>
        </radialGradient>
        <radialGradient id="paint36_radial_2324_124073" cx="0" cy="0" r="1" gradientUnits="userSpaceOnUse" gradientTransform="translate(22.4405 24.6737) scale(6.70031 6.70888)">
            <stop stop-color="#27A0D7"/>
            <stop offset="0.1" stop-color="#2495C9"/>
            <stop offset="0.3" stop-color="#1E7BA5"/>
            <stop offset="0.57" stop-color="#13506B"/>
            <stop offset="0.89" stop-color="#05151C"/>
            <stop offset="1"/>
        </radialGradient>
        <linearGradient id="paint37_linear_2324_124073" x1="25.5655" y1="24.7806" x2="27.4223" y2="22.691" gradientUnits="userSpaceOnUse">
            <stop stop-color="white"/>
            <stop offset="0.44" stop-color="#881DED"/>
            <stop offset="1" stop-color="#262262"/>
        </linearGradient>
        <linearGradient id="paint38_linear_2324_124073" x1="25.3587" y1="27.2308" x2="31.6428" y2="27.1124" gradientUnits="userSpaceOnUse">
            <stop stop-color="#E07BD8"/>
            <stop offset="0.11" stop-color="#BE73D7"/>
            <stop offset="0.29" stop-color="#8E67D6"/>
            <stop offset="0.42" stop-color="#7060D6"/>
            <stop offset="0.5" stop-color="#655ED6"/>
            <stop offset="0.57" stop-color="#6F60D6"/>
            <stop offset="0.69" stop-color="#8C67D6"/>
            <stop offset="0.84" stop-color="#BA72D7"/>
            <stop offset="1" stop-color="#F07FD8"/>
        </linearGradient>
        <linearGradient id="paint39_linear_2324_124073" x1="25.5631" y1="27.2196" x2="30.0937" y2="27.1343" gradientUnits="userSpaceOnUse">
            <stop stop-color="#6544CF"/>
            <stop offset="0.49" stop-color="#993EC7"/>
            <stop offset="1" stop-color="#662D87"/>
        </linearGradient>
        <linearGradient id="paint40_linear_2324_124073" x1="25.2442" y1="27.2149" x2="28.4952" y2="27.1537" gradientUnits="userSpaceOnUse">
            <stop stop-color="#481E52"/>
            <stop offset="1" stop-color="#66115E"/>
        </linearGradient>
        <linearGradient id="paint41_linear_2324_124073" x1="28.9767" y1="24.6647" x2="29.0702" y2="29.619" gradientUnits="userSpaceOnUse">
            <stop stop-color="#882785"/>
            <stop offset="0.16" stop-color="#792681"/>
            <stop offset="0.47" stop-color="#532377"/>
            <stop offset="0.89" stop-color="#162067"/>
            <stop offset="1" stop-color="#061F63"/>
        </linearGradient>
        <linearGradient id="paint42_linear_2324_124073" x1="26.7753" y1="27.1862" x2="29.6321" y2="27.1324" gradientUnits="userSpaceOnUse">
            <stop stop-color="#8B2788"/>
            <stop offset="1" stop-color="white"/>
        </linearGradient>
        <radialGradient id="paint43_radial_2324_124073" cx="0" cy="0" r="1" gradientUnits="userSpaceOnUse" gradientTransform="translate(29.4161 26.9577) rotate(88.9214) scale(1.84794 1.79183)">
            <stop stop-color="#00FFFF"/>
            <stop offset="0.19" stop-color="#00FCFC"/>
            <stop offset="0.32" stop-color="#00F2F2"/>
            <stop offset="0.44" stop-color="#00E3E3"/>
            <stop offset="0.54" stop-color="#00CDCD"/>
            <stop offset="0.64" stop-color="#00B0B0"/>
            <stop offset="0.74" stop-color="#008D8D"/>
            <stop offset="0.83" stop-color="#006363"/>
            <stop offset="0.92" stop-color="#003434"/>
            <stop offset="1"/>
        </radialGradient>
        <linearGradient id="paint44_linear_2324_124073" x1="31.1172" y1="20.6663" x2="31.7859" y2="20.9945" gradientUnits="userSpaceOnUse">
            <stop stop-color="white"/>
            <stop offset="1" stop-color="#FFF7C4"/>
        </linearGradient>
        <linearGradient id="paint45_linear_2324_124073" x1="27.0695" y1="23.6374" x2="27.2039" y2="30.7567" gradientUnits="userSpaceOnUse">
            <stop stop-color="#6544CF"/>
            <stop offset="0.49" stop-color="#993EC7"/>
            <stop offset="1" stop-color="#662D87"/>
        </linearGradient>
        <linearGradient id="paint46_linear_2324_124073" x1="30.9368" y1="28.9096" x2="30.9648" y2="30.3969" gradientUnits="userSpaceOnUse">
            <stop stop-color="#EBBD38"/>
            <stop offset="1" stop-color="#FFF29E"/>
        </linearGradient>
        <radialGradient id="paint47_radial_2324_124073" cx="0" cy="0" r="1" gradientUnits="userSpaceOnUse" gradientTransform="translate(29.2776 20.6882) scale(5.51729 5.52435)">
            <stop offset="0.1" stop-color="#1B75B2"/>
            <stop offset="0.34" stop-color="#12507A"/>
            <stop offset="0.65" stop-color="#082538"/>
            <stop offset="0.88" stop-color="#020A0F"/>
            <stop offset="1"/>
        </radialGradient>
        <linearGradient id="paint48_linear_2324_124073" x1="14.8939" y1="21.0212" x2="20.1329" y2="20.9569" gradientUnits="userSpaceOnUse">
            <stop stop-color="#655ED6"/>
            <stop offset="1" stop-color="#C88FF0"/>
        </linearGradient>
        <linearGradient id="paint49_linear_2324_124073" x1="17.926" y1="18.0483" x2="15.6537" y2="20.377" gradientUnits="userSpaceOnUse">
            <stop stop-color="white"/>
            <stop offset="0.44" stop-color="#ED8A1D"/>
            <stop offset="1" stop-color="#B41E2D"/>
        </linearGradient>
        <linearGradient id="paint50_linear_2324_124073" x1="19.198" y1="21.0642" x2="16.7494" y2="21.1124" gradientUnits="userSpaceOnUse">
            <stop stop-color="#655ED6"/>
            <stop offset="1" stop-color="#C88FF0"/>
        </linearGradient>
        <linearGradient id="paint51_linear_2324_124073" x1="18.0149" y1="21.0769" x2="14.0684" y2="21.1339" gradientUnits="userSpaceOnUse">
            <stop stop-color="#C7C8FF"/>
            <stop offset="1" stop-color="#D8D4FF"/>
        </linearGradient>
        <linearGradient id="paint52_linear_2324_124073" x1="18.4093" y1="19.479" x2="18.472" y2="22.651" gradientUnits="userSpaceOnUse">
            <stop stop-color="#705AB5"/>
            <stop offset="1" stop-color="#662D87"/>
        </linearGradient>
        <linearGradient id="paint53_linear_2324_124073" x1="16.6415" y1="31.2726" x2="17.1401" y2="30.808" gradientUnits="userSpaceOnUse">
            <stop stop-color="#882785"/>
            <stop offset="0.17" stop-color="#7C358E"/>
            <stop offset="0.5" stop-color="#5E5BA8"/>
            <stop offset="0.95" stop-color="#2D98D1"/>
            <stop offset="1" stop-color="#27A0D7"/>
        </linearGradient>
        <linearGradient id="paint54_linear_2324_124073" x1="17.0999" y1="31.1066" x2="16.3802" y2="32.022" gradientUnits="userSpaceOnUse">
            <stop stop-color="#882785"/>
            <stop offset="0.16" stop-color="#792681"/>
            <stop offset="0.47" stop-color="#532377"/>
            <stop offset="0.89" stop-color="#162067"/>
            <stop offset="1" stop-color="#061F63"/>
        </linearGradient>
        <linearGradient id="paint55_linear_2324_124073" x1="16.9555" y1="30.9163" x2="17.6795" y2="32.062" gradientUnits="userSpaceOnUse">
            <stop stop-color="#882785"/>
            <stop offset="0.16" stop-color="#792681"/>
            <stop offset="0.47" stop-color="#532377"/>
            <stop offset="0.89" stop-color="#162067"/>
            <stop offset="1" stop-color="#061F63"/>
        </linearGradient>
        <linearGradient id="paint56_linear_2324_124073" x1="16.6235" y1="30.5629" x2="16.328" y2="30.2498" gradientUnits="userSpaceOnUse">
            <stop stop-color="#882785"/>
            <stop offset="0.16" stop-color="#792681"/>
            <stop offset="0.47" stop-color="#532377"/>
            <stop offset="0.89" stop-color="#162067"/>
            <stop offset="1" stop-color="#061F63"/>
        </linearGradient>
        <linearGradient id="paint57_linear_2324_124073" x1="17.7472" y1="30.1655" x2="17.2439" y2="30.9772" gradientUnits="userSpaceOnUse">
            <stop stop-color="#882785"/>
            <stop offset="0.16" stop-color="#792681"/>
            <stop offset="0.47" stop-color="#532377"/>
            <stop offset="0.89" stop-color="#162067"/>
            <stop offset="1" stop-color="#061F63"/>
        </linearGradient>
        <linearGradient id="paint58_linear_2324_124073" x1="18.7253" y1="19.7221" x2="18.7287" y2="19.722" gradientUnits="userSpaceOnUse">
            <stop stop-color="white"/>
            <stop offset="1" stop-color="#FFF7C4"/>
        </linearGradient>
        <linearGradient id="paint59_linear_2324_124073" x1="17.5921" y1="21.0404" x2="17.5921" y2="21.0404" gradientUnits="userSpaceOnUse">
            <stop stop-color="white"/>
            <stop offset="1" stop-color="#FFF7C4"/>
        </linearGradient>
        <linearGradient id="paint60_linear_2324_124073" x1="12.8906" y1="20.8083" x2="17.934" y2="20.8083" gradientUnits="userSpaceOnUse">
            <stop stop-color="white"/>
            <stop offset="0.44" stop-color="#881DED"/>
            <stop offset="1" stop-color="#262262"/>
        </linearGradient>
        <linearGradient id="paint61_linear_2324_124073" x1="33.8973" y1="19.9911" x2="38.4643" y2="20.0692" gradientUnits="userSpaceOnUse">
            <stop stop-color="#655ED6"/>
            <stop offset="1" stop-color="#C88FF0"/>
        </linearGradient>
        <linearGradient id="paint62_linear_2324_124073" x1="36.493" y1="17.5782" x2="34.4289" y2="19.571" gradientUnits="userSpaceOnUse">
            <stop stop-color="white"/>
            <stop offset="0.44" stop-color="#ED8A1D"/>
            <stop offset="1" stop-color="#B41E2D"/>
        </linearGradient>
        <linearGradient id="paint63_linear_2324_124073" x1="37.3933" y1="20.2387" x2="35.2522" y2="20.2178" gradientUnits="userSpaceOnUse">
            <stop stop-color="#655ED6"/>
            <stop offset="1" stop-color="#C88FF0"/>
        </linearGradient>
        <linearGradient id="paint64_linear_2324_124073" x1="36.3699" y1="20.2144" x2="32.97" y2="20.1605" gradientUnits="userSpaceOnUse">
            <stop stop-color="#C7C8FF"/>
            <stop offset="1" stop-color="#D8D4FF"/>
        </linearGradient>
        <linearGradient id="paint65_linear_2324_124073" x1="36.7441" y1="18.7979" x2="36.7164" y2="21.6309" gradientUnits="userSpaceOnUse">
            <stop stop-color="#705AB5"/>
            <stop offset="1" stop-color="#662D87"/>
        </linearGradient>
        <linearGradient id="paint66_linear_2324_124073" x1="34.5594" y1="30.2505" x2="35.0108" y2="29.8536" gradientUnits="userSpaceOnUse">
            <stop stop-color="#882785"/>
            <stop offset="0.17" stop-color="#7C358E"/>
            <stop offset="0.5" stop-color="#5E5BA8"/>
            <stop offset="0.95" stop-color="#2D98D1"/>
            <stop offset="1" stop-color="#27A0D7"/>
        </linearGradient>
        <linearGradient id="paint67_linear_2324_124073" x1="34.9814" y1="30.1185" x2="34.3089" y2="30.9272" gradientUnits="userSpaceOnUse">
            <stop stop-color="#882785"/>
            <stop offset="0.16" stop-color="#792681"/>
            <stop offset="0.47" stop-color="#532377"/>
            <stop offset="0.89" stop-color="#162067"/>
            <stop offset="1" stop-color="#061F63"/>
        </linearGradient>
        <linearGradient id="paint68_linear_2324_124073" x1="34.8255" y1="29.9434" x2="35.4481" y2="30.9983" gradientUnits="userSpaceOnUse">
            <stop stop-color="#882785"/>
            <stop offset="0.16" stop-color="#792681"/>
            <stop offset="0.47" stop-color="#532377"/>
            <stop offset="0.89" stop-color="#162067"/>
            <stop offset="1" stop-color="#061F63"/>
        </linearGradient>
        <linearGradient id="paint69_linear_2324_124073" x1="34.5681" y1="29.6192" x2="34.3077" y2="29.3279" gradientUnits="userSpaceOnUse">
            <stop stop-color="#882785"/>
            <stop offset="0.16" stop-color="#792681"/>
            <stop offset="0.47" stop-color="#532377"/>
            <stop offset="0.89" stop-color="#162067"/>
            <stop offset="1" stop-color="#061F63"/>
        </linearGradient>
        <linearGradient id="paint70_linear_2324_124073" x1="35.5621" y1="29.2916" x2="35.0838" y2="30.0112" gradientUnits="userSpaceOnUse">
            <stop stop-color="#882785"/>
            <stop offset="0.16" stop-color="#792681"/>
            <stop offset="0.47" stop-color="#532377"/>
            <stop offset="0.89" stop-color="#162067"/>
            <stop offset="1" stop-color="#061F63"/>
        </linearGradient>
        <linearGradient id="paint71_linear_2324_124073" x1="37.1238" y1="19.0747" x2="37.1238" y2="19.0747" gradientUnits="userSpaceOnUse">
            <stop stop-color="white"/>
            <stop offset="1" stop-color="#FFF7C4"/>
        </linearGradient>
        <linearGradient id="paint72_linear_2324_124073" x1="35.9972" y1="20.1732" x2="35.9972" y2="20.1732" gradientUnits="userSpaceOnUse">
            <stop stop-color="white"/>
            <stop offset="1" stop-color="#FFF7C4"/>
        </linearGradient>
        <linearGradient id="paint73_linear_2324_124073" x1="32.5344" y1="19.9096" x2="36.3896" y2="20.0225" gradientUnits="userSpaceOnUse">
            <stop stop-color="white"/>
            <stop offset="0.44" stop-color="#881DED"/>
            <stop offset="1" stop-color="#262262"/>
        </linearGradient>
    </defs>
</svg>
