<svg xmlns="http://www.w3.org/2000/svg" xmlns:xlink="http://www.w3.org/1999/xlink" version="1.1" id="Layer_1" x="0px" y="0px" enable-background="new 0 0 600 600" xml:space="preserve" viewBox="1 1 600 600">
<path fill="#000000" opacity="1.000000" stroke="none" d=" M394.000000,601.000000   C262.666656,601.000000 131.833328,601.000000 1.000000,601.000000   C1.000000,401.000000 1.000000,201.000000 1.000000,1.000000   C201.000000,1.000000 401.000000,1.000000 601.000000,1.000000   C601.000000,201.000000 601.000000,401.000000 601.000000,601.000000   C532.166687,601.000000 463.333344,601.000000 394.000000,601.000000  M309.085693,117.226562   C302.093964,114.007393 295.558136,115.418503 289.123993,118.993065   C276.473541,126.021133 263.747528,132.912949 251.078995,139.908646   C219.633057,157.273376 188.155136,174.581589 156.832657,192.166473   C153.473557,194.052307 151.054077,197.611801 148.198715,200.394913   C151.297897,203.180405 153.998413,206.694901 157.556747,208.640762   C202.635452,233.291794 247.857162,257.681122 292.982880,282.246582   C298.479889,285.239044 303.438843,285.293060 308.954285,282.228271   C330.897583,270.034698 352.953186,258.042664 374.992432,246.022324   C399.228546,232.803818 423.504242,219.657928 447.737183,206.433655   C455.174988,202.374741 455.510406,198.041306 448.395569,193.687271   C440.601898,188.917831 432.516449,184.617828 424.492950,180.232605   C386.259338,159.336060 348.003540,138.480133 309.085693,117.226562  M308.394379,359.499695   C308.394379,394.905731 308.394379,430.311798 308.394379,465.959808   C309.678375,465.743134 310.201538,465.780304 310.592438,465.570801   C325.693085,457.476379 340.840637,449.464630 355.789398,441.097992   C357.458740,440.163666 358.870361,437.212860 358.908478,435.169373   C359.181793,420.509613 359.447357,405.828705 358.907623,391.184265   C358.662781,384.541473 360.768677,381.035248 366.802094,378.255341   C377.612610,373.274445 387.986725,367.346405 399.123871,361.509918   C406.563568,376.850250 413.753387,391.675323 421.050568,406.721802   C433.512360,400.074310 445.323914,393.965881 456.934784,387.497284   C462.566833,384.359558 463.055237,381.591644 459.756256,376.032593   C452.708710,364.156921 445.739960,352.228851 438.390381,340.541443   C436.071472,336.853912 435.838257,334.469757 439.037445,331.119751   C446.744507,323.049408 451.735443,313.260925 455.027710,302.651459   C460.883667,283.780396 459.189209,264.340424 458.460419,245.116333   C458.016754,233.413437 447.334564,226.390015 436.034515,229.568954   C430.208374,231.207947 424.771667,234.418091 419.351349,237.282272   C383.775574,256.081116 348.263641,275.000763 312.690491,293.804596   C309.834808,295.314056 308.010651,296.792938 308.062897,300.522675   C308.333588,319.846100 308.311554,339.173615 308.394379,359.499695  M268.960052,336.508545   C276.814819,340.740631 284.669617,344.972687 293.371216,349.661011   C293.371216,332.085266 293.444794,315.489410 293.233429,298.897247   C293.216248,297.549133 291.515930,295.764160 290.142273,294.971069   C284.237457,291.561920 278.162384,288.447540 272.149353,285.225861   C233.002563,264.251556 193.858490,243.272171 154.704605,222.311111   C151.000443,220.328094 147.234802,218.459976 142.906998,216.234787   C142.906998,232.346771 142.779831,247.494934 143.078354,262.634705   C143.113113,264.398407 145.133972,266.763092 146.861633,267.745636   C155.670837,272.755432 164.605118,277.564850 173.667847,282.100250   C177.547516,284.041809 179.119553,286.329010 179.085571,290.905792   C178.848114,322.896729 179.224030,354.893829 178.794266,386.880768   C178.671310,396.031921 182.429901,401.601349 190.010437,405.636505   C198.223572,410.008484 206.304138,414.628845 214.463791,419.102081   C220.468246,422.393799 226.506897,425.623138 233.649078,429.485229   C233.649078,391.551483 233.649078,354.904877 233.649078,317.370667   C245.845886,323.997742 257.069183,330.095856 268.960052,336.508545  M552.000000,267.500000   C552.000000,322.089172 552.000000,376.678345 552.000000,431.267517   C552.247925,431.267029 552.495850,431.266571 552.743774,431.266113   C552.743774,343.756165 552.743774,256.246216 552.743774,168.736282   C552.495850,168.735367 552.247925,168.734467 552.000000,168.733551   C552.000000,201.322372 552.000000,233.911179 552.000000,267.500000  z"/>
<path fill="#C0F427" opacity="1.000000" stroke="none" d=" M309.420654,117.418152   C348.003540,138.480133 386.259338,159.336060 424.492950,180.232605   C432.516449,184.617828 440.601898,188.917831 448.395569,193.687271   C455.510406,198.041306 455.174988,202.374741 447.737183,206.433655   C423.504242,219.657928 399.228546,232.803818 374.992432,246.022324   C352.953186,258.042664 330.897583,270.034698 308.954285,282.228271   C303.438843,285.293060 298.479889,285.239044 292.982880,282.246582   C247.857162,257.681122 202.635452,233.291794 157.556747,208.640762   C153.998413,206.694901 151.297897,203.180405 148.198715,200.394913   C151.054077,197.611801 153.473557,194.052307 156.832657,192.166473   C188.155136,174.581589 219.633057,157.273376 251.078995,139.908646   C263.747528,132.912949 276.473541,126.021133 289.123993,118.993065   C295.558136,115.418503 302.093964,114.007393 309.420654,117.418152  z"/>
<path fill="#FC6000" opacity="1.000000" stroke="none" d=" M308.392944,358.999695   C308.311554,339.173615 308.333588,319.846100 308.062897,300.522675   C308.010651,296.792938 309.834808,295.314056 312.690491,293.804596   C348.263641,275.000763 383.775574,256.081116 419.351349,237.282272   C424.771667,234.418091 430.208374,231.207947 436.034515,229.568954   C447.334564,226.390015 458.016754,233.413437 458.460419,245.116333   C459.189209,264.340424 460.883667,283.780396 455.027710,302.651459   C451.735443,313.260925 446.744507,323.049408 439.037445,331.119751   C435.838257,334.469757 436.071472,336.853912 438.390381,340.541443   C445.739960,352.228851 452.708710,364.156921 459.756256,376.032593   C463.055237,381.591644 462.566833,384.359558 456.934784,387.497284   C445.323914,393.965881 433.512360,400.074310 421.050568,406.721802   C413.753387,391.675323 406.563568,376.850250 399.123871,361.509918   C387.986725,367.346405 377.612610,373.274445 366.802094,378.255341   C360.768677,381.035248 358.662781,384.541473 358.907623,391.184265   C359.447357,405.828705 359.181793,420.509613 358.908478,435.169373   C358.870361,437.212860 357.458740,440.163666 355.789398,441.097992   C340.840637,449.464630 325.693085,457.476379 310.592438,465.570801   C310.201538,465.780304 309.678375,465.743134 308.394379,465.959808   C308.394379,430.311798 308.394379,394.905731 308.392944,358.999695  M426.124695,302.281860   C426.236633,301.626862 426.310059,300.962555 426.466400,300.318329   C428.117859,293.513275 426.336060,287.628601 420.990479,283.265015   C415.660675,278.914246 410.336090,281.534851 405.177155,284.227448   C390.591248,291.840302 376.013458,299.469971 361.364990,306.961060   C357.503113,308.935974 355.701752,311.690887 355.852295,316.077240   C356.057861,322.066406 355.904877,328.067871 355.905243,334.064087   C355.905518,338.979584 355.905273,343.895111 355.905273,349.798920   C358.581146,348.662445 360.247253,348.091003 361.787048,347.279816   C376.784882,339.378845 391.659302,331.235565 406.782776,323.584137   C415.806549,319.018829 422.734467,312.872772 426.124695,302.281860  z"/>
<path fill="#FE6100" opacity="1.000000" stroke="none" d=" M268.626251,336.351257   C257.069183,330.095856 245.845886,323.997742 233.649078,317.370667   C233.649078,354.904877 233.649078,391.551483 233.649078,429.485229   C226.506897,425.623138 220.468246,422.393799 214.463791,419.102081   C206.304138,414.628845 198.223572,410.008484 190.010437,405.636505   C182.429901,401.601349 178.671310,396.031921 178.794266,386.880768   C179.224030,354.893829 178.848114,322.896729 179.085571,290.905792   C179.119553,286.329010 177.547516,284.041809 173.667847,282.100250   C164.605118,277.564850 155.670837,272.755432 146.861633,267.745636   C145.133972,266.763092 143.113113,264.398407 143.078354,262.634705   C142.779831,247.494934 142.906998,232.346771 142.906998,216.234787   C147.234802,218.459976 151.000443,220.328094 154.704605,222.311111   C193.858490,243.272171 233.002563,264.251556 272.149353,285.225861   C278.162384,288.447540 284.237457,291.561920 290.142273,294.971069   C291.515930,295.764160 293.216248,297.549133 293.233429,298.897247   C293.444794,315.489410 293.371216,332.085266 293.371216,349.661011   C284.669617,344.972687 276.814819,340.740631 268.626251,336.351257  z"/>
<path fill="#090909" opacity="1.000000" stroke="none" d=" M552.000000,267.000000   C552.000000,233.911179 552.000000,201.322372 552.000000,168.733551   C552.247925,168.734467 552.495850,168.735367 552.743774,168.736282   C552.743774,256.246216 552.743774,343.756165 552.743774,431.266113   C552.495850,431.266571 552.247925,431.267029 552.000000,431.267517   C552.000000,376.678345 552.000000,322.089172 552.000000,267.000000  z"/>
<path fill="#030100" opacity="1.000000" stroke="none" d=" M426.056610,302.684570   C422.734467,312.872772 415.806549,319.018829 406.782776,323.584137   C391.659302,331.235565 376.784882,339.378845 361.787048,347.279816   C360.247253,348.091003 358.581146,348.662445 355.905273,349.798920   C355.905273,343.895111 355.905518,338.979584 355.905243,334.064087   C355.904877,328.067871 356.057861,322.066406 355.852295,316.077240   C355.701752,311.690887 357.503113,308.935974 361.364990,306.961060   C376.013458,299.469971 390.591248,291.840302 405.177155,284.227448   C410.336090,281.534851 415.660675,278.914246 420.990479,283.265015   C426.336060,287.628601 428.117859,293.513275 426.466400,300.318329   C426.310059,300.962555 426.236633,301.626862 426.056610,302.684570  z"/>
</svg>