<svg width="24" height="24" viewBox="0 0 24 24" fill="none" xmlns="http://www.w3.org/2000/svg">
<path fill-rule="evenodd" clip-rule="evenodd" d="M3.47151 12.103C3.53674 11.9408 3.63015 11.724 3.75511 11.4692C4.04911 10.8696 4.51174 10.0711 5.18321 9.27615C6.51428 7.70025 8.65384 6.14282 12 6.14282C15.3462 6.14282 17.4858 7.70025 18.8168 9.27615C19.4883 10.0711 19.9509 10.8696 20.2449 11.4692C20.3716 11.7276 20.4659 11.9467 20.5312 12.1096C20.4641 12.2689 20.3679 12.4821 20.2396 12.7329C19.9393 13.32 19.4692 14.1005 18.7931 14.8742C17.4531 16.4078 15.3164 17.9097 12.0164 17.8557C8.69481 17.8014 6.54388 16.2875 5.20108 14.7778C4.52418 14.0167 4.05437 13.2568 3.75489 12.6885C3.63149 12.4543 3.53796 12.2545 3.47151 12.103ZM21.6 12.119C22.5543 11.8201 22.5542 11.8196 22.554 11.8191L22.5537 11.818L22.5528 11.8152L22.5504 11.8077L22.5431 11.7853C22.537 11.7671 22.5287 11.7423 22.518 11.7114C22.4965 11.6498 22.4653 11.5637 22.4236 11.4566C22.3404 11.2427 22.2149 10.944 22.0407 10.5887C21.6933 9.88026 21.1464 8.93467 20.3447 7.98562C18.7297 6.07346 16.0692 4.14282 12 4.14282C7.93082 4.14282 5.27039 6.07346 3.6553 7.98562C2.8537 8.93467 2.30671 9.88026 1.95936 10.5887C1.78516 10.944 1.65967 11.2427 1.57643 11.4566C1.53478 11.5637 1.5036 11.6498 1.4821 11.7114C1.47134 11.7423 1.463 11.7671 1.45697 11.7853L1.44965 11.8077L1.44727 11.8152L1.44639 11.818L1.44603 11.8191C1.44587 11.8196 1.44572 11.8201 2.40002 12.119L1.44572 11.8201L1.34753 12.1337L1.45444 12.4443L2.40002 12.119C1.45444 12.4443 1.45461 12.4448 1.45478 12.4453L1.45518 12.4465L1.45613 12.4492L1.45868 12.4565L1.46645 12.4782C1.47282 12.4958 1.48158 12.5196 1.49284 12.5491C1.51534 12.6082 1.54784 12.6905 1.59104 12.7928C1.67738 12.9971 1.80692 13.282 1.98554 13.6209C2.34183 14.297 2.89895 15.1988 3.70666 16.1069C5.33309 17.9356 7.98217 19.79 11.9837 19.8554C16.0067 19.9212 18.67 18.0547 20.2992 16.1901C21.1078 15.2647 21.6646 14.3386 22.0201 13.6438C22.1984 13.2954 22.3275 13.002 22.4135 12.7918C22.4565 12.6866 22.4888 12.6019 22.5112 12.5412C22.5223 12.5108 22.531 12.4865 22.5373 12.4685L22.5449 12.4463L22.5474 12.439L22.5484 12.4362L22.5487 12.4351C22.5489 12.4346 22.5491 12.4341 21.6 12.119ZM21.6 12.119L22.5491 12.4341L22.6507 12.128L22.5543 11.8201L21.6 12.119ZM12 10.6938C11.2009 10.6938 10.6 11.3172 10.6 12.0291C10.6 12.7411 11.2009 13.3645 12 13.3645C12.7991 13.3645 13.4 12.7411 13.4 12.0291C13.4 11.3172 12.7991 10.6938 12 10.6938ZM20.6464 12.42C20.6466 12.4205 20.6466 12.4205 20.6465 12.4202L20.6464 12.42ZM8.60002 12.0291C8.60002 10.1615 10.1482 8.69377 12 8.69377C13.8519 8.69377 15.4 10.1615 15.4 12.0291C15.4 13.8968 13.8519 15.3645 12 15.3645C10.1482 15.3645 8.60002 13.8968 8.60002 12.0291Z" fill="#BABABA"/>
</svg>
