<svg width="20" height="20" viewBox="0 0 20 20" fill="none" xmlns="http://www.w3.org/2000/svg">
<path d="M6.66667 5H5V6.66667H6.66667V5ZM2.5 4.375C2.5 3.87772 2.69754 3.40081 3.04917 3.04917C3.40081 2.69754 3.87772 2.5 4.375 2.5H7.29167C7.78895 2.5 8.26586 2.69754 8.61749 3.04917C8.96912 3.40081 9.16667 3.87772 9.16667 4.375V7.29167C9.16667 7.78895 8.96912 8.26586 8.61749 8.61749C8.26586 8.96912 7.78895 9.16667 7.29167 9.16667H4.375C3.87772 9.16667 3.40081 8.96912 3.04917 8.61749C2.69754 8.26586 2.5 7.78895 2.5 7.29167V4.375ZM4.375 3.75C4.20924 3.75 4.05027 3.81585 3.93306 3.93306C3.81585 4.05027 3.75 4.20924 3.75 4.375V7.29167C3.75 7.63667 4.03 7.91667 4.375 7.91667H7.29167C7.45743 7.91667 7.6164 7.85082 7.73361 7.73361C7.85082 7.6164 7.91667 7.45743 7.91667 7.29167V4.375C7.91667 4.20924 7.85082 4.05027 7.73361 3.93306C7.6164 3.81585 7.45743 3.75 7.29167 3.75H4.375ZM5 13.3333H6.66667V15H5V13.3333ZM2.5 12.7083C2.5 12.2111 2.69754 11.7341 3.04917 11.3825C3.40081 11.0309 3.87772 10.8333 4.375 10.8333H7.29167C7.78895 10.8333 8.26586 11.0309 8.61749 11.3825C8.96912 11.7341 9.16667 12.2111 9.16667 12.7083V15.625C9.16667 16.1223 8.96912 16.5992 8.61749 16.9508C8.26586 17.3025 7.78895 17.5 7.29167 17.5H4.375C3.87772 17.5 3.40081 17.3025 3.04917 16.9508C2.69754 16.5992 2.5 16.1223 2.5 15.625V12.7083ZM4.375 12.0833C4.20924 12.0833 4.05027 12.1492 3.93306 12.2664C3.81585 12.3836 3.75 12.5426 3.75 12.7083V15.625C3.75 15.97 4.03 16.25 4.375 16.25H7.29167C7.45743 16.25 7.6164 16.1842 7.73361 16.0669C7.85082 15.9497 7.91667 15.7908 7.91667 15.625V12.7083C7.91667 12.5426 7.85082 12.3836 7.73361 12.2664C7.6164 12.1492 7.45743 12.0833 7.29167 12.0833H4.375ZM15 5H13.3333V6.66667H15V5ZM12.7083 2.5C12.2111 2.5 11.7341 2.69754 11.3825 3.04917C11.0309 3.40081 10.8333 3.87772 10.8333 4.375V7.29167C10.8333 7.78895 11.0309 8.26586 11.3825 8.61749C11.7341 8.96912 12.2111 9.16667 12.7083 9.16667H15.625C16.1223 9.16667 16.5992 8.96912 16.9508 8.61749C17.3025 8.26586 17.5 7.78895 17.5 7.29167V4.375C17.5 3.87772 17.3025 3.40081 16.9508 3.04917C16.5992 2.69754 16.1223 2.5 15.625 2.5H12.7083ZM12.0833 4.375C12.0833 4.20924 12.1492 4.05027 12.2664 3.93306C12.3836 3.81585 12.5426 3.75 12.7083 3.75H15.625C15.7908 3.75 15.9497 3.81585 16.0669 3.93306C16.1842 4.05027 16.25 4.20924 16.25 4.375V7.29167C16.25 7.45743 16.1842 7.6164 16.0669 7.73361C15.9497 7.85082 15.7908 7.91667 15.625 7.91667H12.7083C12.5426 7.91667 12.3836 7.85082 12.2664 7.73361C12.1492 7.6164 12.0833 7.45743 12.0833 7.29167V4.375ZM10.8333 10.8333H13.125V13.125H10.8333V10.8333ZM15.2083 13.125H13.125V15.2083H10.8333V17.5H13.125V15.2083H15.2083V17.5H17.5V15.2083H15.2083V13.125ZM15.2083 13.125V10.8333H17.5V13.125H15.2083Z" fill="#CAFB01"/>
</svg>
