<svg width="200" height="200" viewBox="0 0 200 200" fill="none" xmlns="http://www.w3.org/2000/svg">
<path d="M170.155 45.0496C171.574 51.1418 173.579 69.4244 173.006 72.9275C172.433 76.4305 123.629 164.871 116.794 166.016C109.958 167.155 34.3542 167.155 33.215 160.88C32.0758 154.605 27.2264 139.326 29.7912 133.417C32.356 127.501 85.364 43.9103 91.3831 45.0557C97.4021 46.1949 169.57 42.5457 170.155 45.0557V45.0496Z" fill="#E6B4BE"/>
<path d="M38.8597 158.364C41.2722 159.827 112.331 163.165 115.189 160.692C118.04 158.218 116.712 139.582 112.143 138.821C107.579 138.059 32.6396 130.054 32.8285 135.969C33.0173 141.885 35.6674 156.439 38.8536 158.37L38.8597 158.364Z" fill="#C45E83"/>
<path d="M62.8834 59.1286C58.3204 67.4993 20.8108 121.391 20.092 126.368C19.3731 131.345 51.4727 135.781 61.5553 136.353C71.6378 136.926 109.482 139.399 113.479 136.353C117.475 133.307 165.214 50.764 165.975 48.4795C166.737 46.1949 168.449 33.2612 165.975 31.9331C163.502 30.5989 116.086 29.4596 93.6732 31.9331C71.2601 34.4065 62.8895 59.1286 62.8895 59.1286H62.8834Z" fill="url(#paint0_linear_597_89653)"/>
<path d="M66.4047 64.234C64.9548 69.2418 58.1315 69.6987 59.6546 72.0685C61.1776 74.4384 64.3577 75.005 61.4822 78.7151C58.6067 82.4253 56.6085 87.823 54.0437 89.3338C51.4789 90.8447 48.6217 88.9866 47.056 92.4104C45.4842 95.8342 40.2084 97.8994 42.4929 98.2954C44.7775 98.6914 53.4771 97.2537 55.9018 100.824C58.3265 104.394 58.6128 109.389 58.3265 113.952C58.0402 118.515 53.7634 123.487 55.7617 124.796C57.7599 126.1 68.3116 120.8 71.3089 122.512C74.3063 124.224 76.3959 125.509 76.9198 126.648C77.4437 127.788 74.1601 130.645 75.5917 131.071C77.0173 131.498 77.3036 128.787 80.8675 125.649C84.4315 122.512 92.9849 117.803 96.695 112.953C100.405 108.104 102.83 104.643 107.539 105.375C112.248 106.106 117.098 108.238 122.087 108.244C127.083 108.244 132.072 101.603 132.645 99.0752C133.218 96.547 129.507 94.366 128.935 94.0309C128.362 93.6958 132.931 86.2999 134.923 81.7247C136.922 77.1494 137.348 73.421 139.06 72.9336C140.772 72.4402 145.609 72.6107 146.255 72.5255C146.901 72.4402 151.043 66.0495 149.472 63.3262C147.9 60.603 146.907 62.6013 143.623 58.0321C140.339 53.4691 141.485 53.1827 134.923 51.4708C128.362 49.7589 126.723 50.7581 128.185 46.6215C129.648 42.4849 133.303 39.3474 130.762 38.3483C128.222 37.3491 121.07 34.9732 116.69 36.35C112.309 37.7269 113.187 46.6215 108.148 50.0453C103.11 53.4691 97.2616 56.1375 87.8492 59.5125C78.4368 62.8876 74.4403 61.4559 71.4429 60.8894C68.4456 60.3228 67.4952 60.4568 66.4047 64.2401V64.234Z" fill="url(#paint1_radial_597_89653)"/>
<path d="M80.0026 74.3226C76.5849 74.5237 73.2829 72.3488 69.7251 74.3226C66.1673 76.2965 60.7879 81.6028 61.5494 84.5149C62.3109 87.4269 73.1733 85.8369 70.7364 89.3399C68.2995 92.8429 60.7392 95.3468 64.4493 97.6618C68.1594 99.9768 70.4257 101.573 69.719 104.126C69.0123 106.678 72.1315 108.25 76.8469 106.252C81.5622 104.254 85.6988 106.642 87.8432 105.381C89.9816 104.113 90.408 100.464 92.5525 100.367C94.6908 100.263 96.0494 102.688 101.075 102.688C106.101 102.688 113.948 99.197 114.521 97.6618C115.094 96.1266 116.946 91.8133 122.368 88.9743C127.79 86.1415 131.64 85.4531 131.78 81.7307C131.92 78.0084 132.554 77.6185 128.18 75.2486C123.811 72.8849 124.932 70.1617 123.647 67.8832C122.362 65.5986 118.798 65.8849 113.235 67.8832C107.673 69.8814 105.815 70.7343 105.535 66.8841C105.249 63.0338 108.819 61.6082 102.251 61.6082C95.6839 61.6082 86.4664 63.3201 83.5909 65.7448C80.7154 68.1695 84.4255 74.0668 80.0026 74.3287V74.3226Z" fill="url(#paint2_linear_597_89653)"/>
<path d="M116.707 30.7878C116.519 30.7878 107.764 45.6223 104.913 48.0957C102.062 50.5691 87.0385 58.3671 83.9924 59.1226C80.9463 59.8841 64.0223 59.3114 62.883 59.1226C61.7438 58.9337 61.5488 54.5595 61.5488 53.2253C61.5488 51.8911 71.7045 34.4431 76.0056 30.7817C81.1413 26.4075 116.707 27.7356 116.707 27.7356C116.707 27.7356 116.896 30.7817 116.707 30.7817V30.7878Z" fill="#745C73"/>
<path d="M135.916 30.9767C135.538 32.1159 134.393 33.0663 134.015 34.5345C133.637 36.0027 121.276 35.5458 120.606 35.5458C119.936 35.5458 119.18 32.6947 119.369 31.5494C119.558 30.404 120.204 30.6538 121.843 28.8992C124.316 26.2552 133.631 26.6025 135.916 26.6025C136.433 26.6025 136.732 26.767 136.89 27.0411C137.414 27.961 136.214 30.0994 135.916 30.9828V30.9767Z" fill="#745C73"/>
<path d="M59.6486 75.6751C59.6486 77.0093 53.1787 89.1815 51.6618 89.3703C50.1387 89.5592 43.1022 90.7045 43.1022 90.7045L40.1841 93.6349C40.1841 93.6349 39.4469 89.1815 39.2946 87.3782C39.0388 84.2224 47.6653 71.3009 50.5164 70.0093C53.3676 68.7239 56.0298 70.7282 56.8096 71.1059C57.1813 71.2887 57.8514 72.0502 58.4484 72.9275C59.0942 73.8779 59.6486 74.9806 59.6486 75.669V75.6751Z" fill="#745C73"/>
<path d="M181.851 81.8099C180.644 84.1554 128.179 170.585 124.913 171.81C121.173 173.205 31.7883 173.893 28.6508 167.533C25.6839 161.526 17.1305 123.054 16.8625 122.116C16.4787 120.812 32.0076 98.6548 34.7369 95.889C35.8152 94.8046 43.2964 100.202 43.2964 100.202C43.2964 100.202 54.3293 100.403 55.0909 103.017C55.0909 103.017 55.0909 103.017 55.0909 103.029C55.8524 105.661 57.9359 115.628 56.0351 120.38C54.5913 123.992 48.9743 129.798 45.9465 132.546C56.62 133.313 69.1029 134.221 80.3978 134.861C79.9469 133.563 80.1784 130.791 80.1297 130.395C79.9713 129.104 90.5108 120.867 91.717 119.88C99.0337 113.904 105.498 108.768 109.11 108.201C112.711 107.635 125.364 109.517 128.154 110.285C137.402 94.3964 149.026 73.8962 157.799 58.8606C155.551 59.3176 152.517 59.9999 151.902 59.5186C150.951 58.7632 147.527 55.5221 146.004 53.8102C144.658 52.2933 136.909 47.0601 134.752 44.4221C134.466 44.0749 134.283 43.7764 134.216 43.5388C133.643 41.4492 138.407 30.9157 139.729 27.565C141.563 22.9228 157.037 23.9524 158.56 23.9524C160.083 23.9524 158.944 26.6025 158.944 26.6025C158.944 26.6025 168.454 26.4258 172.639 27.5711C173.334 27.76 173.858 28.2352 174.26 28.9175C176.258 32.3352 174.985 40.846 175.302 43.5449C175.545 45.6101 170.233 54.0661 166.048 59.939C157.701 75.1694 139.991 106.014 127.155 125.899C124.054 132.649 118.992 141.227 115.775 143.207C115.282 143.512 114.575 143.755 113.71 143.956C113.356 144.2 113.064 144.34 112.826 144.352C112.479 144.371 111.919 144.371 111.175 144.358C102.043 145.345 84.443 143.518 83.8216 143.207C60.8175 142.062 32.7143 140.478 32.7143 140.478C31.6664 146.838 37.6611 158.699 37.6611 158.699C42.0292 159.272 114.971 163.281 116.811 161.758C119.601 159.455 172.737 71.4106 172.737 69.5159V65.8057C172.737 65.8057 179.201 64.7762 180.705 65.9702C181.832 66.9084 183.234 79.1537 181.857 81.8221L181.851 81.8099Z" fill="#745C73"/>
<path d="M181.854 81.8099C180.647 84.1554 128.181 170.585 124.916 171.81C121.175 173.205 31.6814 173.942 28.6536 167.533C15.531 139.777 17.1333 123.054 16.8652 122.116C16.8652 122.116 22.0923 125.796 24.9617 126.655C27.8251 127.507 40.8745 127.861 40.8745 127.861C40.8745 127.861 41.7822 126.655 43.4941 125.223C45.206 123.791 47.6551 125.223 47.6551 125.223C47.6551 125.223 51.481 119.807 54.0458 116.188C56.5557 112.636 55.1545 103.376 55.0997 103.029C55.8612 105.661 57.9448 115.628 56.044 120.38C54.6002 123.992 48.9832 129.798 45.9554 132.546C56.6289 133.313 69.1117 134.221 80.4066 134.861L80.1325 130.395C80.1325 130.395 88.8382 129.755 93.2306 130.742C97.8607 131.784 94.7293 133.198 94.7293 133.198L111.678 132.071C113.103 131.218 116.801 126.648 116.801 126.648C116.801 126.648 115.102 124.65 115.102 122.11C115.102 119.569 121.949 118.375 122.802 118.375C123.655 118.375 128.157 110.279 128.157 110.279C137.405 94.3903 149.029 73.8901 157.802 58.8545C155.554 59.3115 152.52 59.9938 151.904 59.5125C150.954 58.7571 147.53 55.516 146.007 53.8041C144.661 52.2872 136.912 47.054 134.755 44.416L134.219 43.5327C134.219 43.5327 140.207 42.7712 141.066 43.5327C141.919 44.2942 149.34 49.9051 150.199 50.9164C151.051 51.9277 157.198 51.0443 159.197 50.1853C161.195 49.3263 173.02 32.4997 174.257 28.8992C176.255 32.317 174.982 40.8277 175.298 43.5266C175.542 45.5918 170.23 54.0478 166.044 59.9207C157.698 75.1512 139.988 105.996 127.152 125.881C124.051 132.631 118.988 141.209 115.772 143.189C115.278 143.493 114.572 143.737 113.706 143.938C113.353 144.182 113.061 144.322 112.823 144.334C112.476 144.352 111.915 144.352 111.172 144.34C102.04 145.327 84.4396 143.499 83.8182 143.189C60.8142 142.043 32.711 140.459 32.711 140.459L28.5135 140.91C28.5135 140.91 27.6484 149.567 34.5143 163.451C35.2027 164.84 116.807 166.016 119.36 165.163C121.906 164.31 166.745 89.5592 180.708 65.9519C181.835 66.8901 183.236 79.1354 181.86 81.8038L181.854 81.8099Z" fill="url(#paint3_linear_597_89653)"/>
<path d="M116.707 30.7878C116.519 30.7878 107.764 45.6223 104.913 48.0957C102.062 50.5691 87.0385 58.3671 83.9924 59.1226C80.9463 59.8841 64.0223 59.3114 62.883 59.1226C61.7438 58.9337 61.5488 54.5595 61.5488 53.2253C68.5853 55.1261 76.9925 55.1261 79.4476 54.7484C81.9028 54.3707 96.4753 40.8643 101.075 38.3908C105.674 35.9174 116.707 27.7356 116.707 27.7356C116.707 27.7356 116.896 30.7817 116.707 30.7817V30.7878Z" fill="url(#paint4_linear_597_89653)"/>
<path d="M59.6486 75.675C59.6486 77.0092 53.1788 89.1814 51.6618 89.3703C50.1388 89.5591 43.1023 90.7045 43.1023 90.7045L40.2085 93.7749C40.2085 93.7749 39.447 89.1814 39.3008 87.3781C42.7246 87.0857 47.4826 87.1162 50.7114 84.1554C53.9464 81.1945 58.4546 72.9335 58.4546 72.9335C59.1003 73.8839 59.6547 74.9866 59.6547 75.675H59.6486Z" fill="url(#paint5_linear_597_89653)"/>
<path d="M158.555 23.9402C152.012 23.7453 154.132 29.9837 154.894 30.934C155.655 31.8844 156.843 27.5285 158.933 26.5903C158.933 26.5903 159.7 23.9768 158.555 23.9402Z" fill="url(#paint6_linear_597_89653)"/>
<path d="M135.916 30.9766C135.538 32.1159 134.393 33.0663 134.015 34.5345C133.637 36.0027 121.276 35.5458 120.606 35.5458C119.936 35.5458 119.18 32.6946 119.369 31.5493C125.267 32.8774 129.446 32.1463 132.87 31.0985C135.526 30.2821 136.561 28.0097 136.884 27.0411C137.408 27.961 136.208 30.0994 135.91 30.9827L135.916 30.9766Z" fill="url(#paint7_linear_597_89653)"/>
<g style="mix-blend-mode:multiply" opacity="0.8">
<path d="M131.827 62.6317C127.885 67.8831 130.115 73.6646 136.39 68.7178C142.665 63.7709 134.106 59.5856 131.827 62.6317Z" fill="#C90055"/>
</g>
<g style="mix-blend-mode:multiply" opacity="0.8">
<path d="M123.013 53.9929C128.429 58.9885 137.494 64.4715 138.822 57.0573C140.15 49.6431 118.474 49.8137 123.013 53.9929Z" fill="#C90055"/>
</g>
<g style="mix-blend-mode:multiply" opacity="0.8">
<path d="M121.966 59.4882C121.472 62.8145 126.151 64.5142 127.674 63.18C129.197 61.8458 122.35 56.9294 121.966 59.4882Z" fill="#C90055"/>
</g>
<g style="mix-blend-mode:multiply" opacity="0.8">
<path d="M71.0649 115.567C73.1849 121.19 83.3771 116.889 83.5965 114.446C83.8097 112.003 70.1145 113.045 71.0649 115.567Z" fill="#C90055"/>
</g>
<g style="mix-blend-mode:multiply" opacity="0.8">
<path d="M64.7827 118.333C62.4981 119.77 67.0673 123.602 68.0176 119.99C68.968 116.377 68.0176 116.292 64.7827 118.333Z" fill="#C90055"/>
</g>
<g style="mix-blend-mode:multiply" opacity="0.8">
<path d="M64.1565 111.43C64.1809 113.904 72.9658 112.764 73.7273 110.669C74.4888 108.579 64.0956 105.722 64.1565 111.43Z" fill="#C90055"/>
</g>
<g style="mix-blend-mode:soft-light">
<path d="M116.795 39.92C115.15 44.8181 115.436 54.0417 104.854 56.7527C94.2722 59.4637 82.6179 61.2549 86.9433 63.643C91.2688 66.025 93.5899 58.3732 99.6394 61.6874C105.683 65.0016 102.862 74.2982 108.15 72.5315C113.438 70.7648 120.657 64.4167 120.231 59.5186C119.805 54.6144 127.328 46.6823 128.187 42.2046C129.046 37.7329 118.178 35.8078 116.801 39.92H116.795Z" fill="#EE9C50"/>
</g>
<g style="mix-blend-mode:soft-light">
<path d="M48.4746 92.5566C46.9516 96.2058 38.4835 98.2589 42.486 98.2954C46.4825 98.332 54.7557 96.681 57.0342 100.824C59.3187 104.966 60.458 108.39 62.5963 106.252C64.7347 104.113 58.4597 96.6932 60.7443 94.6949C63.0289 92.6967 70.0044 91.2528 68.3717 89.3338C66.739 87.4148 62.6999 84.5636 59.6538 87.561C56.6077 90.5583 49.9063 89.1328 48.4807 92.5566H48.4746Z" fill="#EE9C50"/>
</g>
<g style="mix-blend-mode:soft-light">
<path d="M69.7247 63.3263C70.7421 66.8293 69.7308 67.475 66.8797 70.6003C64.0285 73.7256 70.1816 69.8205 74.5802 72.0686C78.9787 74.3166 80.1789 76.5646 81.2816 72.5255C82.3904 68.4863 81.9456 66.5856 82.4695 64.234C82.9935 61.8824 68.8962 60.4873 69.7186 63.3263H69.7247Z" fill="#EE9C50"/>
</g>
<g style="mix-blend-mode:soft-light">
<path d="M61.5498 113.666C57.9372 121.561 56.0364 126.076 62.7378 122.225C69.4392 118.375 73.722 119.941 75.7203 122.366C77.7185 124.79 81.4713 121.025 86.942 116.986C92.4128 112.947 102.112 106.544 94.9776 105.959C87.8437 105.368 79.9969 109.804 72.4366 108.238C64.8762 106.672 65.4793 105.07 61.5498 113.66V113.666Z" fill="#EE9C50"/>
</g>
<g style="mix-blend-mode:soft-light">
<path d="M112.617 100.513C111.642 107.007 119.038 108.616 124.454 105.064C129.876 101.518 128.164 97.7654 127.165 93.7202C126.166 89.6749 122.029 89.4861 119.464 95.5722C116.899 101.658 113.043 97.6557 112.617 100.513Z" fill="#EE9C50"/>
</g>
<path d="M161.784 125.125C160.809 126.916 153.425 137.895 150.599 141.16C150.117 141.708 149.776 142.043 149.612 142.074C148.472 142.281 144.89 142.074 144.89 142.074L147.096 138.559L147.546 137.84C147.997 137.121 139.34 96.2179 137.665 94.0369C135.983 91.8559 134.4 93.1779 133.254 92.6053C132.913 92.4347 131.122 89.7541 129.861 88.2067C128.947 87.0796 137.805 78.4714 139.669 76.199C140.358 75.3583 147.644 73.5306 149.794 74.7064C151.951 75.8822 162.917 123.036 161.778 125.131L161.784 125.125Z" fill="#745C73"/>
<path d="M150.602 141.16C150.121 141.708 149.78 142.043 149.615 142.074C148.476 142.281 144.894 142.074 144.894 142.074L147.099 138.559L147.55 137.84C148.001 137.121 139.003 96.4433 137.669 94.0369C136.87 92.6052 134.537 92.6052 133.258 92.6052C131.162 92.6052 129.712 88.5235 129.864 88.2067C133.575 88.2067 139.88 88.5174 141.178 89.3337C143.34 90.6984 149.42 122.652 150.602 128.738C151.778 134.824 152.089 136.158 150.602 141.16Z" fill="url(#paint8_linear_597_89653)"/>
<path d="M124.7 83.0893C123.938 85.185 112.528 96.7846 110.243 98.3076C107.958 99.8307 96.1701 98.6853 94.647 98.3076C93.124 97.9238 92.2589 94.3538 91.4121 92.2215C90.8394 90.7716 98.8324 77.0093 100.733 74.5359C102.634 72.0624 119.18 69.784 121.654 69.589C122.787 69.4976 123.682 71.8919 124.243 74.7065C124.907 78.0389 125.108 81.9623 124.694 83.0954L124.7 83.0893Z" fill="#745C73"/>
<path d="M104.608 69.5828C104.297 70.9109 103.018 71.6786 100.733 72.635C98.4488 73.5854 96.6821 81.0301 92.9354 80.8108C89.1887 80.5914 85.7101 78.1485 85.1374 77.0092C84.5647 75.87 83.4072 69.1137 83.6144 66.7378C83.8824 63.6734 101.111 62.9363 103.201 63.5028C103.621 63.6186 103.944 63.8806 104.188 64.2339C105.144 65.6412 104.852 68.5228 104.608 69.5828Z" fill="#745C73"/>
<path d="M86.0893 87.4695C84.9501 88.7976 72.7779 88.0422 71.066 87.4695C69.3541 86.8968 67.6422 85.1849 66.8807 83.0953C66.1192 81.0057 69.2566 78.0875 72.7779 75.4922C74.697 74.0789 84.9501 79.2938 86.0893 80.8229C87.2285 82.3521 87.2285 86.1414 86.0893 87.4756V87.4695Z" fill="#745C73"/>
<path d="M87.8002 102.109C87.2275 102.682 72.9657 104.582 71.2538 104.01C69.5419 103.437 69.7308 101.914 69.7308 100.355C69.7308 99.4772 69.7551 97.3328 70.0354 95.1396C70.2547 93.4338 70.6202 91.6975 71.2538 90.5034C72.2773 88.5661 82.8594 89.3642 85.3328 90.5034C85.8263 90.7289 86.271 90.9543 86.667 91.1858C88.2814 92.1057 89.1404 93.0317 89.177 94.0247C89.2196 95.2614 88.3728 101.536 87.8002 102.103V102.109Z" fill="#745C73"/>
<path d="M86.0875 87.4695C84.9483 88.7976 72.7761 88.0422 71.0642 87.4695C69.3523 86.8968 67.6404 85.1849 66.8789 83.0953C70.8754 84.0457 82.4261 84.8499 83.5897 84.4478C84.7534 84.0457 86.0875 80.8168 86.0875 80.8168C87.2268 82.346 87.2268 86.1353 86.0875 87.4695Z" fill="url(#paint9_linear_597_89653)"/>
<path d="M104.608 69.5829C104.297 70.911 103.018 71.6786 100.733 72.6351C98.4488 73.5855 96.6821 81.0301 92.9354 80.8108C89.1887 80.5915 85.7101 78.1485 85.1374 77.0093C84.5647 75.87 83.4072 69.1138 83.6144 66.7378C85.704 69.7839 86.6544 73.8657 88.3663 75.2425C90.0782 76.6255 94.0746 77.0946 95.5977 75.2425C97.1207 73.3905 100.922 65.3793 103.396 64.5325C103.639 64.4472 103.901 64.3497 104.188 64.2339C105.144 65.6412 104.852 68.5229 104.608 69.5829Z" fill="url(#paint10_linear_597_89653)"/>
<path d="M124.702 83.0893C123.94 85.185 112.53 96.7846 110.245 98.3076C107.96 99.8307 96.172 98.6853 94.649 98.3076C93.126 97.9238 92.2609 94.3538 91.4141 92.2215C94.649 92.7942 105.865 95.4626 108.149 94.0309C110.434 92.5992 113.096 88.2068 113.096 88.2068C113.096 88.2068 113.047 82.7603 116.093 81.7247C119.14 80.6951 120.894 81.8039 120.894 81.8039C120.894 81.8039 123.526 79.1477 124.245 74.7004C124.909 78.0328 125.11 81.9562 124.696 83.0893H124.702Z" fill="url(#paint11_linear_597_89653)"/>
<path d="M87.8002 102.109C87.2275 102.682 72.9657 104.583 71.2538 104.01C69.5419 103.437 69.7308 101.914 69.7308 100.355C69.7308 99.4773 69.7551 97.3328 70.0354 95.1396C70.3948 96.4251 70.937 98.4294 71.065 99.0691C71.2538 100.026 81.7141 100.013 84.1875 100.19C86.6609 100.373 87.0386 96.4007 86.6609 91.1858C88.2754 92.1057 89.1343 93.0317 89.1709 94.0248C89.2135 95.2615 88.3667 101.536 87.7941 102.103L87.8002 102.109Z" fill="url(#paint12_linear_597_89653)"/>
<path opacity="0.36" d="M123.439 84.9413C124.987 83.6558 124.176 81.3104 123.177 81.8099C122.178 82.3095 115.288 87.7985 112.528 90.8203C110.408 93.1414 108.775 93.5313 108.775 94.6766C108.775 95.822 109.561 98.7949 110.128 98.3624C110.694 97.9299 115.014 95.2188 118.626 91.5879C121.685 88.5174 122.653 85.5932 123.439 84.9474V84.9413Z" fill="#FF0000"/>
<path opacity="0.36" d="M87.6187 103.346C88.9163 102.718 84.3533 100.61 80.5761 100.47C76.799 100.33 71.7303 99.6782 71.3038 100.824C70.8774 101.969 71.4318 104.784 72.7172 105.052C74.0027 105.32 86.0713 104.095 87.6248 103.346H87.6187Z" fill="#FF0000"/>
<path opacity="0.36" d="M83.5897 58.5317C80.2755 58.2575 81.0553 54.59 84.0527 51.7389C87.05 48.8877 96.7609 42.625 101.08 40.0602C105.394 37.4953 106.076 47.0418 104.851 49.04C103.627 51.0383 88.1588 58.9155 83.5897 58.5317Z" fill="#FF0000"/>
<path opacity="0.36" d="M51.6615 89.3703C51.4727 87.1832 49.2856 88.158 53.94 81.7307C58.6005 75.2973 59.0757 74.8222 59.6484 75.6812C60.221 76.5402 58.3873 81.8282 56.6023 85.2885C54.8173 88.7489 51.6554 89.3764 51.6554 89.3764L51.6615 89.3703Z" fill="#FF0000"/>
<path opacity="0.36" d="M151.603 58.7632C153.814 58.1296 151.231 55.0104 149.824 52.1836C148.416 49.3568 142.586 45.074 140.107 44.148C137.627 43.222 135.19 44.0627 134.746 44.41C134.307 44.7633 132.595 48.4673 135.16 49.899C137.725 51.3246 149.891 59.2566 151.609 58.7632H151.603Z" fill="#FF0000"/>
<path d="M112.526 60.6761C112.38 62.1687 113.239 63.0825 113.952 61.2C114.665 59.3175 112.672 59.1835 112.526 60.6761Z" fill="url(#paint13_linear_597_89653)"/>
<path d="M126.406 49.0826C126.406 49.0826 123.22 47.1209 128.447 43.2524C129.702 42.3264 117.536 37.5257 115.014 40.3098C112.492 43.094 118.036 47.2793 107.91 52.3846C97.7853 57.4898 87.7637 57.7396 87.7637 57.7396C87.7637 57.7396 104.347 56.972 111.005 51.0077C117.664 45.0435 114.569 43.2828 115.599 41.0835C116.628 38.8843 126.808 41.2968 126.778 43.6179C126.747 45.939 120.984 46.7676 126.406 49.0887V49.0826Z" fill="url(#paint14_linear_597_89653)"/>
<path d="M86.8338 113.806C83.3308 116.584 88.6005 117.516 89.1671 116.231C89.7337 114.945 90.2454 111.095 86.8338 113.806Z" fill="url(#paint15_linear_597_89653)"/>
<path d="M91.4122 113.721C90.2852 114.555 94.1659 114.659 94.2207 113.063C94.2755 111.461 93.3313 112.307 91.4122 113.721Z" fill="url(#paint16_linear_597_89653)"/>
<path d="M114.106 105.911C115.818 108.043 119.656 107.141 118.376 105.911C117.091 104.68 113.265 104.857 114.106 105.911Z" fill="url(#paint17_linear_597_89653)"/>
<path d="M47.9501 96.7296C47.8648 98.0334 54.0362 97.3389 52.8969 96.7296C51.7577 96.1204 48.0476 95.2431 47.9501 96.7296Z" fill="url(#paint18_linear_597_89653)"/>
<path d="M49.4736 94.0309C50.028 95.2432 51.4719 95.3589 50.8078 94.1222C50.1438 92.8855 48.9984 92.9891 49.4736 94.0309Z" fill="url(#paint19_linear_597_89653)"/>
<path d="M127.454 72.9335C129.227 74.6637 130.872 76.6802 130.64 74.3226C130.403 71.9649 126.406 71.91 127.454 72.9335Z" fill="url(#paint20_linear_597_89653)"/>
<path d="M141.435 71.5871C143.909 71.977 144.762 72.2512 144.859 71.5871C144.957 70.9231 141.003 71.5201 141.435 71.5871Z" fill="url(#paint21_linear_597_89653)"/>
<g style="mix-blend-mode:multiply" opacity="0.7">
<path d="M149.825 75.8639C149.203 75.5167 141.332 88.7794 142.142 90.0709C142.953 91.3625 148.673 118.936 150.428 127.83C152.182 136.725 151.896 136.725 153.224 135.488C154.558 134.252 161.022 125.485 161.308 123.621C161.595 121.75 151.36 76.7168 149.819 75.8639H149.825Z" fill="#BE81A9"/>
</g>
<g style="mix-blend-mode:soft-light">
<path d="M151.703 24.8906C146.726 24.2996 141.797 24.3667 140.298 27.8453C138.794 31.3239 136.21 36.021 137.825 36.4962C139.439 36.9714 142.394 39.5728 144.861 37.6537C147.335 35.7347 154.17 25.1891 151.703 24.8967V24.8906Z" fill="#B6D3FF"/>
</g>
<g style="mix-blend-mode:soft-light">
<path d="M155.319 32.2134C154.923 32.7556 153.509 34.1203 154.557 35.9297C155.605 37.739 164.378 40.4196 165.84 39.5423C167.302 38.659 174.034 30.8 171.774 28.9054C169.513 27.0107 160.96 26.6025 159.187 27.7478C157.414 28.8932 156.129 31.1168 155.325 32.2195L155.319 32.2134Z" fill="#B6D3FF"/>
</g>
<g style="mix-blend-mode:soft-light">
<path d="M99.0213 37.6537C92.6124 36.6789 82.5237 29.9349 83.5898 29.4597C84.6621 28.9845 113.35 26.7547 113.307 28.5093C113.259 30.2638 102.256 38.1471 99.0213 37.6537Z" fill="#B6D3FF"/>
</g>
<g style="mix-blend-mode:multiply" opacity="0.7">
<path d="M96.691 39.2438C94.5831 42.2167 80.9122 54.1818 77.8905 54.0356C74.8688 53.8955 62.3372 53.7675 63.0317 51.2576C63.7201 48.7476 75.7521 31.4884 77.3117 31.0619C78.8652 30.6416 98.0556 37.3247 96.697 39.2438H96.691Z" fill="#BE81A9"/>
</g>
<g style="mix-blend-mode:multiply" opacity="0.7">
<path d="M146.491 37.2151C144.785 39.5057 140.576 42.8686 141.051 43.5327C141.526 44.1967 145.931 48.248 146.308 47.6815C146.686 47.1149 154.551 33.974 154.551 32.7617C154.551 31.5493 153.57 27.1142 152.461 27.7478C151.353 28.3814 149.817 32.7617 146.491 37.2212V37.2151Z" fill="#BE81A9"/>
</g>
<g style="mix-blend-mode:soft-light">
<path d="M121.926 29.7887C120.433 31.9392 134.135 29.6546 134.848 28.8992C135.56 28.1438 135.95 27.2056 134.257 27.1081C132.563 27.0045 124.058 26.7243 121.926 29.7887Z" fill="#B6D3FF"/>
</g>
<g style="mix-blend-mode:soft-light">
<path d="M120.797 80.8108C118.366 82.3095 103.392 74.676 103.678 74.3165C103.964 73.9571 121.156 68.9432 121.924 70.5942C122.698 72.2452 122.576 79.7081 120.791 80.8047L120.797 80.8108Z" fill="#B6D3FF"/>
</g>
<g style="mix-blend-mode:multiply" opacity="0.7">
<path d="M107.123 93.647C108.543 91.8681 114.373 81.8647 113.307 80.8108C112.241 79.7629 103.492 73.823 101.396 75.2425C99.3007 76.6559 91.3505 91.0761 92.7151 91.6488C94.0737 92.2215 106.002 95.0543 107.123 93.647Z" fill="#BE81A9"/>
</g>
<g style="mix-blend-mode:soft-light">
<path d="M131.164 87.2746C132.413 88.5357 140.132 88.0605 141.399 87.2868C142.666 86.5131 149.605 76.1685 148.088 75.6324C146.565 75.0963 143.141 75.5289 140.729 76.6194C138.316 77.7099 130.207 86.306 131.164 87.2685V87.2746Z" fill="#B6D3FF"/>
</g>
<g style="mix-blend-mode:multiply" opacity="0.7">
<path d="M41.4201 103.011C40.4819 105.052 25.6475 126.35 24.2219 125.217C22.7963 124.084 19.3725 123.267 19.0862 120.8C18.7999 118.333 33.348 97.1013 35.7788 97.4668C38.2034 97.8324 42.2243 101.268 41.4201 103.011Z" fill="#BE81A9"/>
</g>
<g style="mix-blend-mode:soft-light">
<path d="M45.0537 101.396C43.1895 103.053 25.0836 123.925 27.9347 125.217C30.7858 126.502 47.3139 123.462 48.7638 122.524C50.2138 121.586 54.6489 113.946 55.0205 112.837C55.3921 111.729 55.1789 104.059 53.0405 103.017C50.9022 101.975 46.26 100.33 45.0537 101.402V101.396Z" fill="#B6D3FF"/>
</g>
<g style="mix-blend-mode:soft-light">
<path d="M109.67 109.152C111.51 112.411 115.567 118.199 117.182 118.333C118.796 118.467 122.031 118.272 123.268 116.803C124.505 115.335 125.309 111.716 124.907 110.864C124.505 110.011 108.72 107.476 109.67 109.152Z" fill="#B6D3FF"/>
</g>
<g style="mix-blend-mode:multiply" opacity="0.7">
<path d="M106.628 110.455C104.07 112.167 81.3338 128.452 82.473 129.311C83.6123 130.17 109.102 131.784 110.814 130.261C112.526 128.738 115.091 119.435 114.902 118.333C114.713 117.23 109.09 108.81 106.628 110.455Z" fill="#BE81A9"/>
</g>
<g style="mix-blend-mode:multiply" opacity="0.7">
<path d="M130.477 90.0709C130.477 90.0709 127.65 92.4651 129.076 93.2206C130.501 93.976 134.784 95.4747 136.063 96.5774C137.343 97.6861 138.884 107.184 138.884 107.184L135.716 112.186C135.716 112.186 134.431 119.204 138.884 126.843L143.13 128.342L146.499 139.491L144.885 142.062C144.885 142.062 147.614 142.512 149.606 142.062C151.604 141.611 151.781 135.567 151.05 131.102C150.319 126.636 143.313 93.2815 141.394 90.0587C139.475 86.8359 129.861 88.1945 129.861 88.1945L130.471 90.0587L130.477 90.0709Z" fill="#BE5286"/>
</g>
<g style="mix-blend-mode:multiply" opacity="0.7">
<path d="M152.23 51.8972C151.785 52.6283 152.139 59.5612 153.418 59.5064C154.697 59.4576 158.578 59.0068 159.187 57.7336C159.79 56.4603 160.674 52.1775 159.187 51.8972C157.701 51.617 153.04 50.563 152.23 51.8972Z" fill="#BE81A9"/>
</g>
<path opacity="0.36" d="M83.5967 85.2763C84.6994 86.3668 85.199 87.7071 84.1877 87.9203C83.1764 88.1275 75.2809 89.4129 72.7161 88.0544C70.1513 86.6958 68.8415 84.4356 70.4011 84.1554C71.9607 83.8751 82.555 84.2467 83.5967 85.2824V85.2763Z" fill="#FF0000"/>
<g style="mix-blend-mode:multiply" opacity="0.7">
<path d="M113.984 88.0544C114.666 88.7063 120.905 83.1014 120.381 82.3582C118.919 80.2868 115.629 82.0962 114.666 83.5218C113.704 84.9474 112.93 87.0553 113.984 88.0544Z" fill="#BE81A9"/>
</g>
<g style="mix-blend-mode:multiply" opacity="0.7">
<path d="M117.322 125.601C119.54 126.362 124.218 120.654 122.982 119.892C121.745 119.131 116.012 119.277 115.659 121.494C115.305 123.712 115.939 125.119 117.322 125.601Z" fill="#BE81A9"/>
</g>
<g style="mix-blend-mode:multiply" opacity="0.7">
<path d="M111.858 133.807C114.995 136.134 112.851 143.481 113.691 143.944C114.234 144.243 116.969 142.421 118.041 141.093C118.041 141.093 116.61 142.768 115.568 144.17C115.568 144.17 117.188 159.321 115.19 160.692C113.186 162.062 95.1224 161.691 95.1224 161.691C95.1224 161.691 104.102 163.64 119.345 165.163C119.345 165.163 125.175 170.464 124.913 171.81C124.651 173.156 36.9604 173.802 30.3078 168.697C23.6551 163.598 13.8163 124.126 18.6656 125.674C23.515 127.221 40.9204 127.312 42.6323 131.114C44.3442 134.916 44.204 134.94 52.6173 136.073C61.0306 137.206 83.9981 136.512 90.4193 136.073C96.8404 135.634 109.201 131.833 111.864 133.807H111.858Z" fill="#BE81A9"/>
</g>
<path d="M58.2705 124.175C54.5116 126.825 50.3628 131.699 50.3263 135.019C50.2958 138.333 57.7465 169.391 59.6473 172.748C61.5481 176.105 75.2189 174.96 76.8516 174.96C78.4843 174.96 82.4747 172.675 82.4747 172.675L76.8516 172.584C76.8516 172.584 69.7116 136.067 70.8691 134.069C71.7281 132.582 74.4817 130.072 74.4817 130.072L73.5314 124.175C73.5314 124.175 59.6778 123.182 58.2705 124.175Z" fill="url(#paint22_linear_597_89653)"/>
<g style="mix-blend-mode:multiply" opacity="0.7">
<path d="M66.7626 133.807C65.6051 131.991 50.3259 133.484 50.332 135.019C50.3564 142.482 57.003 171.901 61.5538 173.436C66.0986 174.978 72.7147 175.916 72.7147 172.492C72.7147 169.068 68.0968 135.896 66.7687 133.801L66.7626 133.807Z" fill="#BE81A9"/>
</g>
<g style="mix-blend-mode:soft-light">
<path d="M52.2338 132.582C54.7499 133.709 67.0683 132.735 67.9273 131.973C68.7802 131.211 73.8245 124.937 72.4903 124.748C71.1561 124.559 60.708 123.931 58.6062 124.748C56.5044 125.564 50.6194 131.863 52.2338 132.582Z" fill="#B6D3FF"/>
</g>
<g style="mix-blend-mode:multiply" opacity="0.7">
<path d="M74.4839 130.072L72.7111 134.392L73.7651 142.683H77.8895C77.8895 142.683 81.563 153.807 81.4229 161.124L77.8895 165.06L78.9617 172.614L82.4769 172.669C82.4769 172.669 79.2724 174.856 76.8538 174.953C74.4352 175.051 73.2168 165.876 71.0175 151.322C68.8182 136.761 66.8931 133.112 67.9287 131.967C68.9583 130.822 73.5396 124.169 73.5396 124.169L74.49 130.066L74.4839 130.072Z" fill="#BE5286"/>
</g>
<g style="mix-blend-mode:multiply" opacity="0.7">
<path d="M180.141 69.5829C178.301 70.7526 165.306 92.5566 165.306 94.9813C165.306 97.406 164.959 105.728 166.592 105.052C168.224 104.375 181.426 82.5837 181.426 81.0058C181.426 79.4279 182.712 67.9502 180.141 69.5829Z" fill="#BE81A9"/>
</g>
<g style="mix-blend-mode:soft-light">
<path d="M176.049 70.6003C172.735 71.9711 166.441 81.152 164.541 87.2564C162.64 93.3607 165.052 92.1667 166.71 89.3947C168.373 86.6228 180.947 68.5777 176.049 70.6003Z" fill="#B6D3FF"/>
</g>
<g style="mix-blend-mode:multiply" opacity="0.7">
<path d="M41.9183 128.171C40.7608 132.052 47.3099 131.12 47.4744 128.171C47.6389 125.223 43.5876 122.561 41.9183 128.171Z" fill="#BE81A9"/>
</g>
<g style="mix-blend-mode:multiply" opacity="0.7">
<path d="M81.714 131.973C83.8402 137.407 96.6459 133.204 94.934 131.973C93.2221 130.742 80.8611 129.786 81.714 131.973Z" fill="#BE81A9"/>
</g>
<g style="mix-blend-mode:multiply" opacity="0.7">
<path d="M131.45 149.439C131.133 152.534 130.737 161.587 131.895 161.075C133.058 160.564 144.95 140.721 144.95 139.491C144.95 138.26 143.397 131.577 142.081 132.68C140.765 133.782 131.693 147.009 131.444 149.445L131.45 149.439Z" fill="#BE81A9"/>
</g>
<g style="mix-blend-mode:soft-light">
<path d="M138.677 132.552C136.599 133.435 129.392 140.648 129.355 147.691C129.343 150.566 134.912 141.696 136.934 138.419C138.957 135.141 142.003 131.138 138.677 132.552Z" fill="#B6D3FF"/>
</g>
<path d="M113.31 28.5032C112.53 30.7208 105.463 34.5101 100.352 37.7024C95.2468 40.8947 89.6055 47.0418 89.6055 47.0418C89.6055 47.0418 97.5618 40.6693 102.996 38.3421C108.43 36.0149 118.519 27.7965 116.71 27.7356C114.9 27.6808 111.19 27.5467 111.19 27.5467C111.19 27.5467 113.706 27.3579 113.304 28.4971L113.31 28.5032Z" fill="#80AFFF"/>
<path d="M121.045 31.8783C126.217 32.78 134.905 29.5937 135.928 28.8992C135.928 28.8992 135.727 30.9949 129.866 31.8539C124.006 32.7129 121.045 31.8783 121.045 31.8783Z" fill="#80AFFF"/>
<path d="M146.972 74.3409C145.724 75.011 149.61 74.7978 146.406 79.2878C143.195 83.7838 141.136 87.9143 139.698 87.9204C138.261 87.9265 131.9 88.1032 131.9 88.1032C131.9 88.1032 138.876 87.2076 140.734 89.3216C142.592 91.4356 142.97 94.7436 142.97 94.7436C142.97 94.7436 141.916 90.0709 142.562 88.1032C143.207 86.1354 150.372 75.3461 150.092 75.0232C149.811 74.7003 147.691 73.951 146.979 74.3348L146.972 74.3409Z" fill="#80AFFF"/>
<path d="M116.795 126.648C114.346 129.609 115.339 131.376 94.7227 133.198C94.7227 133.198 110.91 133.874 112.53 132.972C114.145 132.07 116.795 126.648 116.795 126.648Z" fill="#80AFFF"/>
<path d="M95.8691 165.328C104.63 165.066 117.697 164.871 118.63 164.115C119.562 163.36 128.231 151.712 128.231 151.712C128.231 151.712 120.025 164.182 120.378 165.328C120.731 166.473 122.303 168.039 121.682 167.417C121.06 166.796 119.233 165.255 116.308 165.352C113.384 165.45 95.8752 165.328 95.8752 165.328H95.8691Z" fill="#80AFFF"/>
<path d="M171.487 27.1081C174.57 29.5633 166.053 42.0096 163.208 45.1471C160.363 48.2846 156.39 50.2828 153.954 50.1854C151.517 50.0879 146.734 48.0044 146.734 48.0044C146.734 48.0044 149.902 50.1854 150.658 51.9886C151.419 53.798 158.456 49.698 159.181 51.2515C159.906 52.805 159.997 56.3628 159.997 56.3628C159.997 56.3628 159.973 52.275 160.929 49.9904C161.88 47.7058 173.741 31.2569 174.039 29.3988C174.338 27.5468 171.487 27.0959 171.487 27.0959V27.1081Z" fill="#80AFFF"/>
<path d="M103.002 64.7274C103.002 64.7274 98.7374 71.2765 95.874 75.2486C94.6861 76.8935 93.6687 78.7212 93.6687 78.7212C93.6687 78.7212 94.5703 76.4427 93.0473 76.4305C91.5242 76.4183 88.3136 76.1625 87.6191 74.7064C87.6191 74.7064 90.9333 77.2652 93.6687 75.3522C96.4041 73.4393 100.541 65.5986 103.002 64.7274Z" fill="#80AFFF"/>
<path d="M49.3645 100.69C54.3174 102.109 56.1573 106.965 54.3296 112.192C52.4959 117.419 47.6465 125.217 47.6465 125.217C47.6465 125.217 53.8118 121.062 55.0241 114.763C56.2365 108.463 55.9562 103.9 55.0241 102.249C54.1895 100.769 49.3645 100.683 49.3645 100.683V100.69Z" fill="#80AFFF"/>
<g style="mix-blend-mode:multiply" opacity="0.7">
<path d="M161.869 50.2828C161.595 52.9694 162.015 55.9607 159.999 59.2566C157.982 62.5525 151.116 71.6237 150.848 73.8474C150.58 76.071 152.182 80.5244 152.938 80.433C153.693 80.3417 173.31 47.2489 174.059 44.154C174.809 41.0592 175.436 28.558 173.505 31.4823C171.574 34.4065 162.058 48.3942 161.863 50.2889L161.869 50.2828Z" fill="#BE81A9"/>
</g>
<path d="M77.7188 32.2438C73.4786 33.2917 74.3072 35.4727 75.9338 36.283C77.5604 37.0932 82.2148 39.5301 82.489 37.3004C82.7631 35.0706 79.8937 31.7077 77.7188 32.2499V32.2438Z" fill="#3A1B2B"/>
<g style="mix-blend-mode:multiply" opacity="0.7">
<path d="M78.2462 32.189C75.5596 32.3108 74.6762 33.9496 75.06 35.1985C75.4377 36.4474 81.1826 36.6728 81.0974 35.1985C81.0121 33.7242 79.8667 32.1159 78.2462 32.189Z" fill="#BE81A9"/>
</g>
<g style="mix-blend-mode:soft-light">
<path d="M77.1077 36.8617C80.1416 38.5676 81.2991 39.7738 82.5053 39.457C83.7116 39.1402 82.1763 35.5397 82.1763 35.5397C82.1763 35.5397 82.9013 37.8974 81.427 38.0375C79.642 38.2081 77.1016 36.8678 77.1016 36.8678L77.1077 36.8617Z" fill="#B6D3FF"/>
</g>
<defs>
<linearGradient id="paint0_linear_597_89653" x1="110.427" y1="28.6128" x2="78.7655" y2="135.592" gradientUnits="userSpaceOnUse">
<stop stop-color="#F9B233"/>
<stop offset="1" stop-color="#FFFB00"/>
</linearGradient>
<radialGradient id="paint1_radial_597_89653" cx="0" cy="0" r="1" gradientUnits="userSpaceOnUse" gradientTransform="translate(103.859 82.3826) scale(53.4588 53.459)">
<stop stop-color="#E78000"/>
<stop offset="0.52" stop-color="#E75A29"/>
<stop offset="1" stop-color="#A60000"/>
</radialGradient>
<linearGradient id="paint2_linear_597_89653" x1="61.4763" y1="84.3747" x2="131.896" y2="84.3747" gradientUnits="userSpaceOnUse">
<stop stop-color="#F9B233"/>
<stop offset="1" stop-color="#FFFB00"/>
</linearGradient>
<linearGradient id="paint3_linear_597_89653" x1="16.8591" y1="100.83" x2="182.426" y2="100.83" gradientUnits="userSpaceOnUse">
<stop stop-color="#33141F"/>
<stop offset="1" stop-color="#573962"/>
</linearGradient>
<linearGradient id="paint4_linear_597_89653" x1="61.5488" y1="43.6301" x2="116.793" y2="43.6301" gradientUnits="userSpaceOnUse">
<stop stop-color="#33141F"/>
<stop offset="1" stop-color="#573962"/>
</linearGradient>
<linearGradient id="paint5_linear_597_89653" x1="39.3008" y1="83.3512" x2="59.6486" y2="83.3512" gradientUnits="userSpaceOnUse">
<stop stop-color="#33141F"/>
<stop offset="1" stop-color="#573962"/>
</linearGradient>
<linearGradient id="paint6_linear_597_89653" x1="163.819" y1="44.014" x2="154.882" y2="22.7096" gradientUnits="userSpaceOnUse">
<stop stop-color="#33141F"/>
<stop offset="1" stop-color="#573962"/>
</linearGradient>
<linearGradient id="paint7_linear_597_89653" x1="138.401" y1="54.6814" x2="129.464" y2="33.377" gradientUnits="userSpaceOnUse">
<stop stop-color="#33141F"/>
<stop offset="1" stop-color="#573962"/>
</linearGradient>
<linearGradient id="paint8_linear_597_89653" x1="142.561" y1="114.135" x2="147.885" y2="112.228" gradientUnits="userSpaceOnUse">
<stop stop-color="#33141F"/>
<stop offset="1" stop-color="#573962"/>
</linearGradient>
<linearGradient id="paint9_linear_597_89653" x1="66.8789" y1="84.5087" x2="86.9404" y2="84.5087" gradientUnits="userSpaceOnUse">
<stop stop-color="#33141F"/>
<stop offset="1" stop-color="#573962"/>
</linearGradient>
<linearGradient id="paint10_linear_597_89653" x1="83.59" y1="72.5254" x2="104.852" y2="72.5254" gradientUnits="userSpaceOnUse">
<stop stop-color="#33141F"/>
<stop offset="1" stop-color="#573962"/>
</linearGradient>
<linearGradient id="paint11_linear_597_89653" x1="91.4141" y1="86.8909" x2="124.915" y2="86.8909" gradientUnits="userSpaceOnUse">
<stop stop-color="#33141F"/>
<stop offset="1" stop-color="#573962"/>
</linearGradient>
<linearGradient id="paint12_linear_597_89653" x1="69.7247" y1="97.6557" x2="89.177" y2="97.6557" gradientUnits="userSpaceOnUse">
<stop stop-color="#33141F"/>
<stop offset="1" stop-color="#573962"/>
</linearGradient>
<linearGradient id="paint13_linear_597_89653" x1="90.8746" y1="124.796" x2="115.03" y2="55.7536" gradientUnits="userSpaceOnUse">
<stop stop-color="#F9B233"/>
<stop offset="1" stop-color="#FFFB00"/>
</linearGradient>
<linearGradient id="paint14_linear_597_89653" x1="75.659" y1="119.227" x2="107.253" y2="53.1259" gradientUnits="userSpaceOnUse">
<stop stop-color="#F9B233"/>
<stop offset="1" stop-color="#FFFB00"/>
</linearGradient>
<linearGradient id="paint15_linear_597_89653" x1="84.9818" y1="122.737" x2="109.137" y2="53.6945" gradientUnits="userSpaceOnUse">
<stop stop-color="#F9B233"/>
<stop offset="1" stop-color="#FFFB00"/>
</linearGradient>
<linearGradient id="paint16_linear_597_89653" x1="89.018" y1="124.145" x2="113.174" y2="55.1018" gradientUnits="userSpaceOnUse">
<stop stop-color="#F9B233"/>
<stop offset="1" stop-color="#FFFB00"/>
</linearGradient>
<linearGradient id="paint17_linear_597_89653" x1="107.685" y1="130.675" x2="131.834" y2="61.6327" gradientUnits="userSpaceOnUse">
<stop stop-color="#F9B233"/>
<stop offset="1" stop-color="#FFFB00"/>
</linearGradient>
<linearGradient id="paint18_linear_597_89653" x1="46.159" y1="109.152" x2="70.3146" y2="40.1088" gradientUnits="userSpaceOnUse">
<stop stop-color="#F9B233"/>
<stop offset="1" stop-color="#FFFB00"/>
</linearGradient>
<linearGradient id="paint19_linear_597_89653" x1="45.0507" y1="108.762" x2="69.2002" y2="39.719" gradientUnits="userSpaceOnUse">
<stop stop-color="#F9B233"/>
<stop offset="1" stop-color="#FFFB00"/>
</linearGradient>
<linearGradient id="paint20_linear_597_89653" x1="108.916" y1="131.108" x2="133.071" y2="62.0651" gradientUnits="userSpaceOnUse">
<stop stop-color="#F9B233"/>
<stop offset="1" stop-color="#FFFB00"/>
</linearGradient>
<linearGradient id="paint21_linear_597_89653" x1="120.85" y1="135.281" x2="145.006" y2="66.2383" gradientUnits="userSpaceOnUse">
<stop stop-color="#F9B233"/>
<stop offset="1" stop-color="#FFFB00"/>
</linearGradient>
<linearGradient id="paint22_linear_597_89653" x1="50.3324" y1="149.439" x2="82.4747" y2="149.439" gradientUnits="userSpaceOnUse">
<stop stop-color="#33141F"/>
<stop offset="1" stop-color="#573962"/>
</linearGradient>
</defs>
</svg>
