<svg width="30" height="31" viewBox="0 0 30 31" fill="none" xmlns="http://www.w3.org/2000/svg">
<path fill-rule="evenodd" clip-rule="evenodd" d="M2.14064 5.13829C3.5117 3.82521 5.37102 3.08756 7.3097 3.08756C9.24839 3.08756 11.1077 3.82521 12.4788 5.13829L14.621 7.18875L16.7632 5.13829C17.4376 4.46932 18.2444 3.93573 19.1364 3.56864C20.0284 3.20156 20.9878 3.00835 21.9585 3.00026C22.9293 2.99218 23.8921 3.1694 24.7906 3.52158C25.6891 3.87375 26.5054 4.39383 27.1919 5.05147C27.8784 5.70911 28.4213 6.49114 28.7889 7.35192C29.1565 8.21271 29.3415 9.13501 29.3331 10.065C29.3246 10.995 29.1229 11.9141 28.7397 12.7686C28.3566 13.6232 27.7996 14.396 27.1013 15.0422L14.621 27L2.14064 15.0422C0.769988 13.7287 0 11.9475 0 10.0902C0 8.23297 0.769988 6.45176 2.14064 5.13829Z" fill="#D9D9D9"/>
</svg>
