<svg width="20" height="20" viewBox="0 0 20 20" fill="none" xmlns="http://www.w3.org/2000/svg">
<g id="icons">
<path id="Vector" d="M5.20833 4.16667C4.63333 4.16667 4.16667 4.63333 4.16667 5.20833V14.7917C4.16667 15.3667 4.63333 15.8333 5.20833 15.8333H14.7917C15.3667 15.8333 15.8333 15.3667 15.8333 14.7917V11.6667C15.8333 11.4457 15.9211 11.2337 16.0774 11.0774C16.2337 10.9211 16.4457 10.8333 16.6667 10.8333C16.8877 10.8333 17.0996 10.9211 17.2559 11.0774C17.4122 11.2337 17.5 11.4457 17.5 11.6667V14.7917C17.5 15.51 17.2147 16.1988 16.7067 16.7067C16.1988 17.2147 15.51 17.5 14.7917 17.5H5.20833C4.49004 17.5 3.80116 17.2147 3.29325 16.7067C2.78534 16.1988 2.5 15.51 2.5 14.7917V5.20833C2.5 4.49004 2.78534 3.80116 3.29325 3.29325C3.80116 2.78534 4.49004 2.5 5.20833 2.5H8.33333C8.55435 2.5 8.76631 2.5878 8.92259 2.74408C9.07887 2.90036 9.16667 3.11232 9.16667 3.33333C9.16667 3.55435 9.07887 3.76631 8.92259 3.92259C8.76631 4.07887 8.55435 4.16667 8.33333 4.16667H5.20833ZM11.6667 4.16667C11.4457 4.16667 11.2337 4.07887 11.0774 3.92259C10.9211 3.76631 10.8333 3.55435 10.8333 3.33333C10.8333 3.11232 10.9211 2.90036 11.0774 2.74408C11.2337 2.5878 11.4457 2.5 11.6667 2.5H16.6667C16.8877 2.5 17.0996 2.5878 17.2559 2.74408C17.4122 2.90036 17.5 3.11232 17.5 3.33333V8.33333C17.5 8.55435 17.4122 8.76631 17.2559 8.92259C17.0996 9.07887 16.8877 9.16667 16.6667 9.16667C16.4457 9.16667 16.2337 9.07887 16.0774 8.92259C15.9211 8.76631 15.8333 8.55435 15.8333 8.33333V5.345L12.2558 8.9225C12.0987 9.0743 11.8882 9.15829 11.6697 9.15639C11.4512 9.1545 11.2422 9.06686 11.0877 8.91235C10.9331 8.75784 10.8455 8.54883 10.8436 8.33033C10.8417 8.11184 10.9257 7.90134 11.0775 7.74417L14.655 4.16667H11.6667Z" fill="#CAFB01"/>
</g>
</svg>
