<svg width="16" height="16" viewBox="0 0 16 16" fill="none" xmlns="http://www.w3.org/2000/svg">
<rect width="16" height="16" fill="none"/>
<g id="prototype">
<path d="M-7566 -1008C-7566 -1009.1 -7565.1 -1010 -7564 -1010H25616C25617.1 -1010 25618 -1009.1 25618 -1008V5562C25618 5563.1 25617.1 5564 25616 5564H-7564C-7565.1 5564 -7566 5563.1 -7566 5562V-1008Z" fill="none"/>
<g id="Validate">
<rect width="1440" height="1319" transform="translate(-549 -321)" fill="none"/>
<g id="Frame 18968">
<rect x="-229" y="-222" width="1088" height="943" rx="18" fill="none"/>
<g id="Frame 18963">
<g id="Frame 18962">
<g id="Frame 36264">
<g id="Frame 18972">
<g id="Frame 36263">
<g id="Frame 36196">
<rect x="-197" y="-21" width="233" height="293" rx="16" fill="none"/>
<g id="Frame 36194">
<g id="tabler:dots">
<path id="Vector" d="M8.00033 2.66675C7.82351 2.66675 7.65395 2.73699 7.52892 2.86201C7.4039 2.98703 7.33366 3.1566 7.33366 3.33341C7.33366 3.51023 7.4039 3.67979 7.52892 3.80482C7.65395 3.92984 7.82351 4.00008 8.00033 4.00008C8.17714 4.00008 8.34671 3.92984 8.47173 3.80482C8.59675 3.67979 8.66699 3.51023 8.66699 3.33341C8.66699 3.1566 8.59675 2.98703 8.47173 2.86201C8.34671 2.73699 8.17714 2.66675 8.00033 2.66675ZM8.00033 7.33341C7.82351 7.33341 7.65395 7.40365 7.52892 7.52868C7.4039 7.6537 7.33366 7.82327 7.33366 8.00008C7.33366 8.17689 7.4039 8.34646 7.52892 8.47149C7.65395 8.59651 7.82351 8.66675 8.00033 8.66675C8.17714 8.66675 8.34671 8.59651 8.47173 8.47149C8.59675 8.34646 8.66699 8.17689 8.66699 8.00008C8.66699 7.82327 8.59675 7.6537 8.47173 7.52868C8.34671 7.40365 8.17714 7.33341 8.00033 7.33341ZM8.00033 12.0001C7.82351 12.0001 7.65394 12.0703 7.52892 12.1953C7.4039 12.3204 7.33366 12.4899 7.33366 12.6667C7.33366 12.8436 7.4039 13.0131 7.52892 13.1382C7.65394 13.2632 7.82351 13.3334 8.00033 13.3334C8.17714 13.3334 8.34671 13.2632 8.47173 13.1382C8.59675 13.0131 8.66699 12.8436 8.66699 12.6667C8.66699 12.4899 8.59675 12.3204 8.47173 12.1953C8.34671 12.0703 8.17714 12.0001 8.00033 12.0001Z" stroke="white" stroke-opacity="0.4" stroke-width="2" stroke-linecap="round" stroke-linejoin="round"/>
</g>
</g>
</g>
</g>
</g>
</g>
</g>
</g>
</g>
</g>
<path d="M-7564 -1009H25616V-1011H-7564V-1009ZM25617 -1008V5562H25619V-1008H25617ZM25616 5563H-7564V5565H25616V5563ZM-7565 5562V-1008H-7567V5562H-7565ZM-7564 5563C-7564.55 5563 -7565 5562.55 -7565 5562H-7567C-7567 5563.66 -7565.66 5565 -7564 5565V5563ZM25617 5562C25617 5562.55 25616.6 5563 25616 5563V5565C25617.7 5565 25619 5563.66 25619 5562H25617ZM25616 -1009C25616.6 -1009 25617 -1008.55 25617 -1008H25619C25619 -1009.66 25617.7 -1011 25616 -1011V-1009ZM-7564 -1011C-7565.66 -1011 -7567 -1009.66 -7567 -1008H-7565C-7565 -1008.55 -7564.55 -1009 -7564 -1009V-1011Z" fill="none" fill-opacity="0.1"/>
</g>
</svg>
