<svg width="33" height="32" viewBox="0 0 33 32" fill="none" xmlns="http://www.w3.org/2000/svg">
<g clip-path="url(#clip0_710_40668)">
<rect x="0.666016" width="32" height="32" rx="8" fill="#131129"/>
<g filter="url(#filter0_f_710_40668)">
<circle cx="16.666" cy="16" r="10" fill="#CAFB01"/>
</g>
<path d="M16.4465 24.8C11.5864 24.8 7.64648 20.8601 7.64648 16C7.64648 11.1399 11.5864 7.20001 16.4465 7.20001C20.1396 7.20001 23.3014 9.475 24.6068 12.7M8.74649 19.3H11.3132C12.3257 19.3 13.1465 18.4792 13.1465 17.4667V15.0833C13.1465 14.0708 13.9673 13.25 14.9798 13.25H16.8132C17.8257 13.25 18.6465 12.4292 18.6465 11.4167V8.30001M22.1665 19.52V19.4538M25.6865 19.4435C25.6865 21.7391 22.1665 24.8 22.1665 24.8C22.1665 24.8 18.6465 21.7391 18.6465 19.4435C18.6465 17.5417 20.2224 16 22.1665 16C24.1105 16 25.6865 17.5417 25.6865 19.4435Z" stroke="#CAFB01" stroke-width="2" stroke-linecap="round" stroke-linejoin="round"/>
</g>
<defs>
<filter id="filter0_f_710_40668" x="-28.334" y="-29" width="90" height="90" filterUnits="userSpaceOnUse" color-interpolation-filters="sRGB">
<feFlood flood-opacity="0" result="BackgroundImageFix"/>
<feBlend mode="normal" in="SourceGraphic" in2="BackgroundImageFix" result="shape"/>
<feGaussianBlur stdDeviation="17.5" result="effect1_foregroundBlur_710_40668"/>
</filter>
<clipPath id="clip0_710_40668">
<rect x="0.666016" width="32" height="32" rx="8" fill="white"/>
</clipPath>
</defs>
</svg>
