<svg width="32" height="32" viewBox="0 0 32 32" fill="none" xmlns="http://www.w3.org/2000/svg">
<g clip-path="url(#clip0_710_32814)">
<rect width="32" height="32" rx="8" fill="#131129"/>
<g filter="url(#filter0_f_710_32814)">
<circle cx="16" cy="16" r="10" fill="#CAFB01"/>
</g>
<path d="M7.75 16H8.66667M16 7.75V8.66667M23.3333 16H24.25M10.1333 10.1333L10.775 10.775M21.8667 10.1333L21.225 10.775M13.8917 20.5833H18.1083M13.25 19.6667C12.4804 19.0895 11.912 18.2848 11.6251 17.3666C11.3383 16.4484 11.3477 15.4632 11.6519 14.5506C11.9561 13.638 12.5397 12.8443 13.3201 12.2818C14.1005 11.7193 15.038 11.4167 16 11.4167C16.962 11.4167 17.8995 11.7193 18.6799 12.2818C19.4603 12.8443 20.0439 13.638 20.3481 14.5506C20.6523 15.4632 20.6617 16.4484 20.3749 17.3666C20.088 18.2848 19.5196 19.0895 18.75 19.6667C18.3921 20.0209 18.1226 20.4545 17.9634 20.9322C17.8041 21.41 17.7596 21.9185 17.8333 22.4167C17.8333 22.9029 17.6402 23.3692 17.2964 23.713C16.9525 24.0568 16.4862 24.25 16 24.25C15.5138 24.25 15.0475 24.0568 14.7036 23.713C14.3598 23.3692 14.1667 22.9029 14.1667 22.4167C14.2404 21.9185 14.1959 21.41 14.0366 20.9322C13.8774 20.4545 13.6079 20.0209 13.25 19.6667Z" stroke="#CAFB01" stroke-width="2" stroke-linecap="round" stroke-linejoin="round"/>
</g>
<defs>
<filter id="filter0_f_710_32814" x="-29" y="-29" width="90" height="90" filterUnits="userSpaceOnUse" color-interpolation-filters="sRGB">
<feFlood flood-opacity="0" result="BackgroundImageFix"/>
<feBlend mode="normal" in="SourceGraphic" in2="BackgroundImageFix" result="shape"/>
<feGaussianBlur stdDeviation="17.5" result="effect1_foregroundBlur_710_32814"/>
</filter>
<clipPath id="clip0_710_32814">
<rect width="32" height="32" rx="8" fill="white"/>
</clipPath>
</defs>
</svg>
