<svg width="33" height="32" viewBox="0 0 33 32" fill="none" xmlns="http://www.w3.org/2000/svg">
<g clip-path="url(#clip0_710_24402)">
<rect x="0.332031" width="32" height="32" rx="8" fill="#131129"/>
<g filter="url(#filter0_f_710_24402)">
<circle cx="16.332" cy="16" r="10" fill="#CAFB01"/>
</g>
<g clip-path="url(#clip1_710_24402)">
<path d="M25.7717 9.26483H6.89231C6.01751 9.26483 5.33203 9.95031 5.33203 10.8251V24.2176C5.33203 25.0924 6.01751 25.7779 6.89231 25.7779H25.7717C26.6466 25.7779 27.332 25.0924 27.332 24.2176V10.8251C27.332 9.95031 26.6466 9.26483 25.7717 9.26483ZM25.7717 24.2175H6.89231L6.88037 10.8261C6.88037 10.8261 6.88402 10.8251 6.89231 10.8251H25.7717V24.2175Z" fill="#CAFB01"/>
<path d="M6.11133 14.7518H26.551V16.3121H6.11133V14.7518Z" fill="#CAFB01"/>
<path d="M18.3075 15.5319V18.4184H14.3548V15.5319H12.7945V19.1986C12.7945 19.6295 13.1437 19.9787 13.5746 19.9787H19.0876C19.5188 19.9787 19.8678 19.6295 19.8678 19.1986V15.5319H18.3075ZM19.2697 6.22223H13.3926C12.3888 6.22223 11.5723 7.03876 11.5723 8.04256V10.0449H13.1325V8.04256C13.1325 7.90162 13.2517 7.78251 13.3926 7.78251H19.2696C19.4106 7.78251 19.5297 7.90162 19.5297 8.04256V10.0449H21.09V8.04256C21.09 7.03881 20.2732 6.22223 19.2697 6.22223Z" fill="#CAFB01"/>
</g>
</g>
<defs>
<filter id="filter0_f_710_24402" x="-28.668" y="-29" width="90" height="90" filterUnits="userSpaceOnUse" color-interpolation-filters="sRGB">
<feFlood flood-opacity="0" result="BackgroundImageFix"/>
<feBlend mode="normal" in="SourceGraphic" in2="BackgroundImageFix" result="shape"/>
<feGaussianBlur stdDeviation="17.5" result="effect1_foregroundBlur_710_24402"/>
</filter>
<clipPath id="clip0_710_24402">
<rect x="0.332031" width="32" height="32" rx="8" fill="white"/>
</clipPath>
<clipPath id="clip1_710_24402">
<rect width="22" height="22" fill="white" transform="translate(5.33203 5)"/>
</clipPath>
</defs>
</svg>
