<svg width="270" height="54" viewBox="0 0 270 54" fill="none" xmlns="http://www.w3.org/2000/svg">
<g clip-path="url(#clip0_595_26999)">
<path d="M51.4881 24.8611C44.1803 17.1352 36.871 9.40921 29.5604 1.68328C28.3751 0.417651 27.11 0.105468 25.4876 0.73828C21.6333 2.25703 17.7538 3.7125 13.8744 5.16797C13.3195 5.35659 12.8176 5.67551 12.4104 6.09818C12.0032 6.52086 11.7024 7.03506 11.5332 7.59797C8.08103 17.858 4.61485 28.1095 1.13467 38.3527C0.88884 38.9589 0.83774 39.627 0.98844 40.2638C1.13914 40.9006 1.48412 41.4743 1.97529 41.9048C5.44707 45.3923 8.90206 48.8939 12.3402 52.4095C12.7092 52.8107 13.16 53.1273 13.662 53.3377C14.1639 53.5481 14.7052 53.6474 15.2488 53.6287C18.9433 53.5992 22.6379 53.6287 26.3324 53.6287C30.027 53.6287 33.6374 53.6034 37.29 53.6287C39.2192 53.6287 40.518 52.8187 41.3922 51.0975C44.9817 43.9805 48.6132 36.8888 52.2279 29.7844C53.2156 27.8227 53.0223 26.4684 51.4881 24.8611ZM40.7575 33.2016C39.4041 35.6147 38.118 38.0658 36.8445 40.5253C36.6784 40.9073 36.4034 41.2314 36.0541 41.4566C35.7047 41.6819 35.2967 41.7982 34.8816 41.7909C30.4893 42.0736 26.097 42.4322 21.4316 42.7866C20.2169 43.1367 19.4393 42.3647 18.75 41.0991C16.8418 37.6017 14.8369 34.1592 12.8236 30.7209C12.5644 30.3427 12.4215 29.8965 12.4125 29.4376C12.4035 28.9787 12.5289 28.5272 12.7731 28.1391C15.2222 23.6981 17.6432 19.2389 20.0362 14.7614C20.2071 14.3798 20.478 14.0519 20.8199 13.8127C21.1619 13.5734 21.5622 13.4318 21.978 13.403C23.5584 13.2384 25.1345 12.9811 26.7065 12.7238C27.1734 12.6109 27.6644 12.6555 28.1035 12.8507C28.5426 13.0459 28.9054 13.3808 29.1359 13.8038C32.9439 19.4878 36.7842 25.1494 40.6567 30.7884C40.9339 31.1238 41.0949 31.5406 41.1154 31.976C41.1358 32.4113 41.0147 32.8414 40.7702 33.2016H40.7575Z" fill="#CAFB01"/>
<path d="M183.004 50.6081C178.889 43.4363 174.791 36.2644 170.626 29.1305C170.092 28.2192 170.205 27.7425 170.882 27.0211C174.665 22.8867 178.347 18.7017 182.058 14.5252C182.403 14.137 182.937 13.7911 182.647 13.1288C182.357 12.4664 181.743 12.6225 181.222 12.6225C169.726 12.6225 158.226 12.6225 146.731 12.593C145.777 12.593 145.546 12.8419 145.55 13.7869C145.596 20.115 145.575 26.4094 145.575 32.7206C145.575 39.0319 145.6 45.2588 145.55 51.5278C145.55 52.5741 145.705 52.9453 146.886 52.9411C158.47 52.8862 170.05 52.9074 181.634 52.9074C183.689 52.8947 184.013 52.342 183.004 50.6081ZM153.771 33.2859C153.771 29.0672 153.771 24.8864 153.771 20.6845C153.771 20.0306 153.851 19.7269 154.612 19.7353C158.882 19.7733 163.157 19.7353 167.738 19.7353L154.044 33.9356C153.653 33.8048 153.771 33.5095 153.771 33.2859ZM155.507 44.5036C155.532 44.4023 155.507 44.2716 155.583 44.1999C158.346 41.1061 161.114 38.0039 163.888 34.8933C164.128 34.6233 164.342 34.0495 164.788 34.7667C166.822 37.9814 168.877 41.1834 171 44.5036H155.507Z" fill="white"/>
<path d="M119.217 41.6011L124.98 33.5391C130.024 26.5078 135.057 19.4681 140.082 12.42C140.405 11.9644 140.641 11.2388 141.385 11.4581C142.129 11.6775 141.956 12.3947 141.956 12.9684C141.956 25.8919 141.965 38.8167 141.981 51.743C141.981 52.6922 141.75 52.958 140.805 52.92C138.875 52.8398 136.942 52.8483 135.013 52.92C134.13 52.9495 133.899 52.7091 133.907 51.8189C133.949 46.1363 133.907 40.4536 133.907 34.7709V33.7205C132.276 36.0492 130.839 38.0911 129.41 40.1372L121.214 51.9202C120.99 52.2508 120.69 52.5215 120.338 52.7086C119.986 52.8957 119.594 52.9935 119.196 52.9935C118.798 52.9935 118.406 52.8957 118.055 52.7086C117.703 52.5215 117.402 52.2508 117.179 51.9202C113.018 45.9633 108.85 39.9895 104.674 33.9989C104.296 34.3153 104.473 34.7077 104.473 35.0325C104.473 40.5886 104.431 46.1489 104.473 51.705C104.473 52.7344 104.166 52.9706 103.212 52.9116C101.325 52.8398 99.429 52.8567 97.546 52.9116C96.7053 52.9369 96.3859 52.785 96.3901 51.84C96.4237 38.8294 96.4237 25.8202 96.3901 12.8123C96.3901 12.2639 96.3187 11.6353 96.9954 11.4455C97.609 11.2767 97.836 11.8336 98.1428 12.2386C104.885 21.6745 111.626 31.1091 118.368 40.5422C118.654 40.8755 118.91 41.1961 119.217 41.6011Z" fill="white"/>
<path d="M268.453 51.5194C262.83 46.4034 257.193 41.2973 251.544 36.2011C250.859 35.5852 250.863 35.3152 251.612 34.7794C254.852 32.4591 258.046 30.0713 261.279 27.7214C261.985 27.2109 262.611 26.6963 262.468 25.688C262.325 24.6797 261.59 24.4224 260.85 24.1144L231.344 11.6902C229.457 10.897 228.658 11.4202 228.658 13.4494C228.658 19.8084 228.658 26.1647 228.658 32.5181C228.658 38.9559 228.658 45.3937 228.658 51.8358C228.658 52.5952 228.759 52.9411 229.65 52.9158C232 52.8441 234.353 52.8483 236.703 52.9158C237.577 52.9411 237.737 52.6289 237.724 51.8358C237.682 49.1442 237.724 46.4485 237.695 43.7569C237.657 43.4723 237.717 43.1832 237.864 42.9371C238.012 42.691 238.238 42.5025 238.506 42.4027C239.611 41.8971 240.679 41.3164 241.705 40.6645C242.642 40.057 243.264 40.0866 244.143 40.9092C248.19 44.7061 252.343 48.3806 256.437 52.1227C256.701 52.3852 257.016 52.591 257.362 52.7273C257.708 52.8637 258.078 52.9278 258.45 52.9158C261.64 52.8778 264.83 52.9158 268.021 52.8862C268.441 52.8862 269.046 53.1647 269.231 52.5741C269.416 51.9834 268.79 51.8105 268.453 51.5194ZM237.771 33.5348V22.988L248.434 27.3164L237.771 33.5348Z" fill="white"/>
<path d="M199.346 41.3733L216.251 32.4295C218.045 31.4845 218.625 31.7081 219.34 33.6192C221.601 39.6689 223.846 45.7228 226.141 51.7598C226.498 52.7006 226.38 52.9538 225.329 52.92C222.98 52.8441 220.626 52.8567 218.277 52.92C217.436 52.92 217.016 52.7301 216.759 51.8864C215.952 49.4564 214.994 47.0855 214.17 44.6639C213.909 43.8961 213.666 43.8201 212.964 44.183C207.323 46.942 201.653 49.6674 196.008 52.4011C195.34 52.7448 194.599 52.92 193.848 52.9116C191.919 52.8778 189.985 52.9116 188.056 52.9116C186.202 52.9116 185.875 52.4433 186.518 50.7178C190.939 38.8491 195.367 26.9845 199.8 15.1242C200.892 12.2133 200.161 12.6689 203.397 12.6352C204.864 12.6352 206.34 12.6352 207.802 12.6352C209.265 12.6352 209.526 12.9642 209.021 14.3775C205.967 22.8909 202.913 31.4114 199.858 39.9389C199.703 40.3228 199.573 40.7152 199.346 41.3733Z" fill="white"/>
<path d="M67.1195 41.3733L72.3818 38.6016C76.3439 36.5119 80.3075 34.4222 84.2725 32.3325C85.7309 31.5647 86.4202 31.8052 86.9835 33.3113C89.3036 39.517 91.6069 45.7313 93.9354 51.9286C94.217 52.6711 94.2212 52.9538 93.3008 52.9327C90.7789 52.8849 88.257 52.8849 85.7351 52.9327C85.4711 52.9695 85.2032 52.9022 84.9876 52.7448C84.7721 52.5875 84.6257 52.3524 84.5793 52.0889C83.7387 49.6758 82.814 47.288 82.0112 44.8622C81.7128 43.9594 81.4227 43.8244 80.5485 44.2505C74.9541 47.0053 69.3262 49.6885 63.736 52.4222C63.1072 52.7524 62.4071 52.9219 61.6975 52.9158C59.7262 52.882 57.7549 52.9158 55.7795 52.9158C53.9763 52.9158 53.6527 52.4222 54.3042 50.663C57.2772 42.6839 60.2502 34.7091 63.2232 26.7384C64.8204 22.4564 66.4344 18.1828 67.998 13.8881C68.3342 12.9558 68.8386 12.5677 69.8347 12.6225C71.7219 12.7027 73.6175 12.6225 75.5005 12.6478C77.0725 12.6478 77.2953 12.9685 76.7615 14.4577C73.6932 23.0161 70.6193 31.5788 67.5398 40.1456C67.4137 40.4494 67.3044 40.7953 67.1195 41.3733Z" fill="white"/>
</g>
<defs>
<clipPath id="clip0_595_26999">
<rect width="269" height="54" fill="white" transform="translate(0.5)"/>
</clipPath>
</defs>
</svg>
