<svg width="33" height="32" viewBox="0 0 33 32" fill="none" xmlns="http://www.w3.org/2000/svg">
<g clip-path="url(#clip0_710_14501)">
<rect x="0.666016" width="32" height="32" rx="8" fill="#131129"/>
<g filter="url(#filter0_f_710_14501)">
<circle cx="16.666" cy="16" r="10" fill="#CAFB01"/>
</g>
<path fill-rule="evenodd" clip-rule="evenodd" d="M14.5158 8.11668C15.2639 8.35958 15.9843 8.68034 16.6654 9.07368C17.3465 8.68034 18.067 8.35958 18.815 8.11668C20.6887 7.52451 22.555 7.62993 23.7952 8.87018C25.0355 10.1104 25.1409 11.9777 24.5487 13.8504C24.3058 14.5985 23.985 15.3189 23.5917 16C24.0097 16.7361 24.3297 17.4575 24.5487 18.1496C25.1409 20.0223 25.0355 21.8896 23.7952 23.1298C22.5559 24.3701 20.6877 24.4755 18.815 23.8833C18.067 23.6404 17.3465 23.3197 16.6654 22.9263C15.9843 23.3197 15.2639 23.6404 14.5158 23.8833C12.6431 24.4746 10.7758 24.3701 9.53558 23.1298C8.29533 21.8896 8.19083 20.0223 8.78208 18.1496C9.00116 17.4566 9.32108 16.7361 9.73908 16C9.34574 15.3189 9.02498 14.5985 8.78208 13.8504C8.19083 11.9768 8.29624 10.1104 9.53558 8.87018C10.7758 7.62993 12.6431 7.52451 14.5158 8.11668ZM22.4312 17.7499C21.8904 18.4631 21.2634 19.1799 20.5548 19.8894C19.8852 20.5625 19.1703 21.1892 18.4153 21.7649C18.7444 21.9153 19.0625 22.039 19.3677 22.1353C20.9242 22.6266 21.9491 22.3828 22.4991 21.8328C23.0491 21.2837 23.2929 20.2579 22.8016 18.7023C22.6978 18.3773 22.5741 18.0589 22.4312 17.749V17.7499ZM10.8996 17.7499C10.7571 18.0596 10.6338 18.3776 10.5302 18.7023C10.0388 20.2588 10.2827 21.2837 10.8327 21.8337C11.3817 22.3837 12.4075 22.6266 13.9631 22.1353C14.2692 22.039 14.5864 21.9153 14.9164 21.7649C14.1614 21.1892 13.4466 20.5625 12.7769 19.8894C12.1035 19.2198 11.4757 18.5049 10.8996 17.7499ZM16.6654 11.2333C15.7353 11.8756 14.8674 12.6036 14.0731 13.4077C13.269 14.202 12.541 15.0699 11.8987 16C12.5404 16.93 13.2678 17.7979 14.0712 18.5923C14.954 19.4751 15.8276 20.1965 16.6654 20.7667C17.5955 20.1244 18.4634 19.3965 19.2577 18.5923C20.0615 17.798 20.7892 16.9301 21.4312 16C20.7895 15.0697 20.0622 14.2015 19.2587 13.4068C18.4639 12.6033 17.5957 11.875 16.6654 11.2333ZM16.6654 14.625C17.0301 14.625 17.3798 14.7699 17.6377 15.0277C17.8955 15.2856 18.0404 15.6353 18.0404 16C18.0404 16.3647 17.8955 16.7144 17.6377 16.9723C17.3798 17.2301 17.0301 17.375 16.6654 17.375C16.3007 17.375 15.951 17.2301 15.6931 16.9723C15.4353 16.7144 15.2904 16.3647 15.2904 16C15.2904 15.6353 15.4353 15.2856 15.6931 15.0277C15.951 14.7699 16.3007 14.625 16.6654 14.625ZM10.8317 10.1663C10.2817 10.7163 10.0388 11.7412 10.5302 13.2977C10.6264 13.6029 10.7502 13.921 10.9005 14.251C11.4413 13.536 12.0674 12.8201 12.7769 12.1106C13.4463 11.4375 14.1608 10.8109 14.9155 10.2351C14.6059 10.0923 14.2878 9.96865 13.9631 9.86476C12.4075 9.37343 11.3817 9.61726 10.8317 10.1663ZM19.3677 9.86476C19.0625 9.96101 18.7444 10.0848 18.4153 10.2351C19.1285 10.7759 19.8453 11.402 20.5548 12.1106C21.2282 12.7802 21.8552 13.4951 22.4312 14.2501C22.5816 13.921 22.7044 13.6029 22.8007 13.2977C23.2929 11.7412 23.0491 10.7163 22.4991 10.1663C21.9491 9.61634 20.9242 9.37343 19.3677 9.86476Z" fill="#CAFB01"/>
</g>
<defs>
<filter id="filter0_f_710_14501" x="-28.334" y="-29" width="90" height="90" filterUnits="userSpaceOnUse" color-interpolation-filters="sRGB">
<feFlood flood-opacity="0" result="BackgroundImageFix"/>
<feBlend mode="normal" in="SourceGraphic" in2="BackgroundImageFix" result="shape"/>
<feGaussianBlur stdDeviation="17.5" result="effect1_foregroundBlur_710_14501"/>
</filter>
<clipPath id="clip0_710_14501">
<rect x="0.666016" width="32" height="32" rx="8" fill="white"/>
</clipPath>
</defs>
</svg>
