<svg width="32" height="32" viewBox="0 0 32 32" fill="none" xmlns="http://www.w3.org/2000/svg">
<g clip-path="url(#clip0_710_24769)">
<rect width="32" height="32" rx="8" fill="#131129"/>
<g filter="url(#filter0_f_710_24769)">
<circle cx="16" cy="16" r="10" fill="#CAFB01"/>
</g>
<path d="M22.8437 14.0445V9.64446C22.8437 8.56444 21.9681 7.6889 20.8881 7.6889H9.15477C8.07475 7.6889 7.19922 8.56444 7.19922 9.64446V17.2966C7.19922 18.3767 8.07475 19.2522 9.15477 19.2522H10.6852V23.3333L14.7664 19.2522H15.0214M20.0697 21.7604L22.6205 24.3111V21.7604H22.8437C23.9237 21.7604 24.7992 20.8849 24.7992 19.8048V16.4889C24.7992 15.4089 23.9237 14.5333 22.8437 14.5333H16.977C15.897 14.5333 15.0214 15.4089 15.0214 16.4889V19.8048C15.0214 20.8849 15.897 21.7604 16.977 21.7604H20.0697Z" stroke="#CAFB01" stroke-width="2" stroke-linecap="round" stroke-linejoin="round"/>
</g>
<defs>
<filter id="filter0_f_710_24769" x="-29" y="-29" width="90" height="90" filterUnits="userSpaceOnUse" color-interpolation-filters="sRGB">
<feFlood flood-opacity="0" result="BackgroundImageFix"/>
<feBlend mode="normal" in="SourceGraphic" in2="BackgroundImageFix" result="shape"/>
<feGaussianBlur stdDeviation="17.5" result="effect1_foregroundBlur_710_24769"/>
</filter>
<clipPath id="clip0_710_24769">
<rect width="32" height="32" rx="8" fill="white"/>
</clipPath>
</defs>
</svg>
