<svg width="33" height="32" viewBox="0 0 33 32" fill="none" xmlns="http://www.w3.org/2000/svg">
<g clip-path="url(#clip0_710_24775)">
<rect x="0.332031" width="32" height="32" rx="8" fill="#131129"/>
<g filter="url(#filter0_f_710_24775)">
<circle cx="16.332" cy="16" r="10" fill="#CAFB01"/>
</g>
<path d="M16.3327 6.83334C11.2727 6.83334 7.16602 10.94 7.16602 16C7.16602 21.06 11.2727 25.1667 16.3327 25.1667C21.3927 25.1667 25.4993 21.06 25.4993 16C25.4993 10.94 21.3927 6.83334 16.3327 6.83334ZM10.4752 20.3817C9.54935 19.1625 8.99935 17.65 8.99935 16C8.99935 14.35 9.54935 12.8375 10.4752 11.6183C11.1554 12.1285 11.7075 12.7901 12.0878 13.5506C12.468 14.3111 12.666 15.1497 12.666 16C12.666 16.8503 12.468 17.6889 12.0878 18.4494C11.7075 19.21 11.1554 19.8715 10.4752 20.3817ZM16.3327 23.3333C14.6002 23.3333 13.0052 22.7283 11.7493 21.72C13.4268 20.3725 14.4993 18.3192 14.4993 16C14.4993 13.6808 13.4268 11.6275 11.7493 10.28C13.0052 9.27168 14.6002 8.66668 16.3327 8.66668C18.0652 8.66668 19.6602 9.27168 20.916 10.28C19.2385 11.6275 18.166 13.6808 18.166 16C18.166 18.3192 19.2385 20.3725 20.916 21.72C19.6173 22.7654 17.9999 23.3348 16.3327 23.3333ZM22.1902 20.3817C21.5099 19.8715 20.9578 19.21 20.5776 18.4494C20.1973 17.6889 19.9993 16.8503 19.9993 16C19.9993 15.1497 20.1973 14.3111 20.5776 13.5506C20.9578 12.7901 21.5099 12.1285 22.1902 11.6183C23.116 12.8375 23.666 14.35 23.666 16C23.666 17.65 23.116 19.1625 22.1902 20.3817Z" fill="#CAFB01"/>
</g>
<defs>
<filter id="filter0_f_710_24775" x="-28.668" y="-29" width="90" height="90" filterUnits="userSpaceOnUse" color-interpolation-filters="sRGB">
<feFlood flood-opacity="0" result="BackgroundImageFix"/>
<feBlend mode="normal" in="SourceGraphic" in2="BackgroundImageFix" result="shape"/>
<feGaussianBlur stdDeviation="17.5" result="effect1_foregroundBlur_710_24775"/>
</filter>
<clipPath id="clip0_710_24775">
<rect x="0.332031" width="32" height="32" rx="8" fill="white"/>
</clipPath>
</defs>
</svg>
