<svg xmlns="http://www.w3.org/2000/svg" width="189" height="153" viewBox="0 0 189 153" fill="none">
    <path d="M38.7119 128.848C38.7119 128.848 16.4945 53.6492 20.9057 35.778C25.3169 17.9202 35.5514 7.98875 54.2049 38.3887C75.9515 73.8217 69.644 131.715 69.644 131.715L38.7119 128.848Z" fill="url(#paint0_linear_2329_150485)"/>
    <path d="M144.662 128.7L69.6451 131.715C69.6451 131.715 72.2542 93.6574 64.0235 63.419C55.8063 33.1805 40.9589 21.3381 35.5391 19.333C35.5391 19.333 71.0438 25.5503 92.6963 27.1651C114.362 28.7665 142.241 26.1558 151.064 24.3526C151.064 24.3526 161.89 80.1464 144.649 128.714L144.662 128.7Z" fill="url(#paint1_linear_2329_150485)"/>
    <path style="mix-blend-mode:screen" opacity="0.3" d="M82.085 35.387C85.4203 38.4687 94.3234 40.9045 100.631 41.1063C106.938 41.3082 127.501 33.8663 125.336 30.973C123.171 28.0797 100.335 29.6677 89.4953 28.5642C78.6691 27.4607 75.5624 29.3716 82.0716 35.387H82.085Z" fill="url(#paint2_linear_2329_150485)"/>
    <path style="mix-blend-mode:screen" opacity="0.3" d="M87.895 45.9915C85.0708 49.2212 89.8048 61.8845 91.4993 62.0729C93.2073 62.2748 113.757 48.3196 109.144 47.0143C104.531 45.7089 90.2889 43.2328 87.8816 45.978L87.895 45.9915Z" fill="url(#paint3_linear_2329_150485)"/>
    <path style="mix-blend-mode:soft-light" opacity="0.5" d="M87.2761 128.404C86.8189 97.1023 110.193 107.626 123.346 108.514C136.499 109.416 132.962 125.066 131.186 127.489C129.411 129.911 87.3165 131.566 87.2761 128.404Z" fill="url(#paint4_linear_2329_150485)"/>
    <path d="M69.6437 16.7223C69.6437 16.7223 51.3938 10.0206 23.918 10.505C23.918 10.505 47.7895 18.2968 57.6071 45.615C67.4381 72.9198 69.173 130.678 69.173 130.678L87.2751 128.418C87.2751 128.418 90.2472 97.5062 87.2751 66.097C84.2625 34.1898 69.6437 16.7223 69.6437 16.7223Z" fill="url(#paint5_linear_2329_150485)"/>
    <path d="M119.189 18.8885C119.189 18.8885 144.661 15.3224 161.513 15.9145C161.513 15.9145 171.935 24.1369 172.541 52.0338C173.146 79.9307 151.184 125.187 151.184 125.187L136.269 126.21C136.269 126.21 147.97 96.9541 145.872 64.4683C143.263 23.935 119.189 18.8751 119.189 18.8751V18.8885Z" fill="url(#paint6_linear_2329_150485)"/>
    <path d="M41.5631 37.1905C29.8358 35.8313 33.736 56.2998 35.5516 66.6888C37.3537 77.0778 49.5383 131.714 49.5383 131.714H42.4642C42.4642 131.714 30.8848 88.3684 26.514 65.0335C22.1431 41.6987 24.2546 32.9784 29.5265 30.7175C34.785 28.4567 41.5631 37.1905 41.5631 37.1905Z" fill="url(#paint7_linear_2329_150485)"/>
    <path d="M60.0406 129.722L61.7486 128.525L61.6679 127.798C61.4123 125.43 60.4844 117.409 58.4267 104.611C57.8484 101.032 57.1894 97.0751 56.4229 92.7688C56.2749 91.9613 56.127 91.127 55.979 90.2926C55.3873 87.0225 54.7418 83.564 54.0424 79.9306C53.8407 78.9078 53.639 77.912 53.4372 76.9296C53.3834 76.7143 53.3431 76.499 53.3027 76.2702L53.1414 75.5166C46.7129 45.3319 37.7829 33.1262 31.1795 33.1262C24.5762 33.1262 25.2621 49.1942 29.9691 74.117C30.0498 74.5746 30.144 75.0456 30.2381 75.5166C30.265 75.6511 30.2919 75.7723 30.3188 75.9068C31.1257 79.9844 32.1075 84.4657 33.17 89.0277C33.3448 89.7544 33.5062 90.481 33.681 91.2077C34.6359 95.218 35.6311 99.2552 36.6128 103.104C39.6254 114.933 42.4361 124.999 43.0144 127.044C43.0817 127.3 43.122 127.435 43.122 127.435L48.2729 128.525L36.5725 127.327C36.3977 126.856 36.2228 126.385 36.0614 125.927L36.0076 125.793C33.2641 118.297 30.6685 110.452 28.2881 102.539C27.1046 98.5689 25.9749 94.5855 24.9124 90.6156C24.7241 89.9293 24.5493 89.243 24.3745 88.5432C23.2313 84.1561 22.1689 79.796 21.2006 75.5166C21.1871 75.4493 21.1737 75.382 21.1468 75.3147L21.0526 74.8841C13.5482 41.2275 12.2302 12.2405 23.8903 10.518C36.9894 8.58017 57.9829 31.1884 64.008 63.432C64.7745 67.5364 65.4201 71.8697 65.9849 76.2971C66.0118 76.5259 66.0387 76.7546 66.0656 76.9834C66.6036 81.3705 67.0474 85.8248 67.4105 90.1984C67.4777 91.0328 67.545 91.8537 67.6122 92.688C67.935 96.7387 68.1771 100.695 68.3788 104.436C68.3788 104.436 68.3788 104.463 68.3788 104.477C69.0378 116.857 69.1319 126.816 69.1454 129.776C69.1454 130.368 69.1454 130.678 69.1454 130.678L60.0137 129.736L60.0406 129.722Z" fill="url(#paint8_linear_2329_150485)"/>
    <path d="M119.188 18.8889C113.351 18.8889 108.752 27.6496 108.752 27.6496C108.752 27.6496 117.574 27.5958 120.883 27.4478C120.883 27.4478 132.785 27.9995 138.433 53.5414C144.243 79.8369 132.516 125.686 132.516 125.686L136.255 126.211C136.255 126.211 147.404 101.543 147.404 65.9086C147.404 38.8326 132.112 18.8755 119.175 18.8755L119.188 18.8889Z" fill="url(#paint9_linear_2329_150485)"/>
    <path d="M20.9062 87.6017L21.6056 90.6161L59.948 93.9939L170.631 88.5168L171.384 84.3047L57.9576 87.0769L20.9062 87.6017Z" fill="url(#paint10_linear_2329_150485)"/>
    <path d="M175.539 74.1172L172.54 85.6366L67.4376 90.1852L66.2542 90.239L59.8122 90.5216L55.9793 90.3063L33.1702 89.0278L24.3882 88.5434L18.6993 88.2204C16.5879 82.2454 16.5879 75.3014 16.5879 75.3014L21.2143 75.5033L30.3191 75.907L53.4509 76.9297L58.6018 77.1585L66.0928 76.9567L175.552 74.1172H175.539Z" fill="url(#paint11_linear_2329_150485)"/>
    <path d="M172.244 88.0591L168.989 98.5692L68.4195 104.41L61.4396 104.813L58.454 104.612L36.6401 103.091L28.3288 102.512L23.931 102.203C20.6226 95.945 18.7129 90.1584 18.7129 90.1584L24.9531 90.589L33.7083 91.1946L56.4501 92.7691L59.8257 92.9979L67.6529 92.6615L172.257 88.0591H172.244Z" fill="url(#paint12_linear_2329_150485)"/>
    <path d="M58.6016 77.1585L59.812 90.5081L172.257 86.7536L175.538 74.1172L58.6016 77.1585Z" fill="url(#paint13_linear_2329_150485)"/>
    <path d="M61.4264 104.827L59.8125 93.0114L172.244 88.0591L168.99 98.5692C168.99 98.5692 62.4081 104.894 61.4264 104.827Z" fill="url(#paint14_linear_2329_150485)"/>
    <path d="M18.6992 90.1721L21.2679 89.1493L21.3755 89.6607L62.6229 91.1544L170.872 87.1711L170.939 86.7539L172.244 88.0593L59.8121 93.0115L18.6992 90.1721Z" fill="url(#paint15_linear_2329_150485)"/>
    <path d="M164.605 126.224L157.692 142.749L70.4901 148.778L31.5426 143.153L27.2793 125.699L35.241 123.694L36.0344 125.779L36.0882 125.914L43.0278 127.044L48.3132 126.224L61.6812 127.798L61.7485 128.525L69.1722 129.763L87.2742 128.404L87.3683 127.273L132.516 125.699L136.255 126.224L151.169 125.187L152.285 122.819L164.605 126.224Z" fill="url(#paint16_linear_2329_150485)"/>
    <path d="M164.605 126.224C164.605 126.224 152.07 130.718 124.998 131.714C97.9256 132.71 70.4901 131.674 70.4901 131.674C36.5993 127.314 27.2793 125.685 27.2793 125.685L35.2544 123.68L36.0882 125.914L42.8799 127.018C43.0009 127.044 43.1354 127.044 43.2564 127.018L48.3132 126.224L61.6812 127.798L61.7619 128.525L69.1722 129.749L87.2742 128.39L87.3683 127.26L132.516 125.685L136.255 126.21L151.169 125.187L152.285 122.819L164.605 126.224Z" fill="url(#paint17_linear_2329_150485)"/>
    <path style="mix-blend-mode:multiply" opacity="0.5" d="M87.3691 127.273C97.3212 124.286 132.517 125.699 132.517 125.699C132.517 125.699 124.326 127.61 109.264 128.013C94.2011 128.417 87.3691 127.287 87.3691 127.287V127.273Z" fill="url(#paint18_linear_2329_150485)"/>
    <path d="M70.4902 131.674V148.765L157.692 142.75L164.618 126.224C164.618 126.224 146.274 129.198 120.399 130.961C101.476 132.253 70.5037 131.688 70.5037 131.688L70.4902 131.674Z" fill="url(#paint19_linear_2329_150485)"/>
    <g style="mix-blend-mode:soft-light" opacity="0.5">
        <path d="M70.4902 148.778C78.8688 143.96 116.875 132.966 137.64 132.589C158.405 132.212 157.692 142.749 157.692 142.749L70.4902 148.765V148.778Z" fill="#594275"/>
    </g>
    <path d="M175.539 74.1172L66.0793 76.9567L58.6018 77.1585L53.4509 76.9298L30.3191 75.907L21.2143 75.5033L16.5879 75.3014L21.0798 74.8708L21.1739 75.3014L30.2518 75.5167L37.2317 75.1938L53.1551 75.5167L53.3164 76.2704H65.9986L88.0008 75.5706L87.9604 74.8708L140.034 73.2156L147.216 74.1172L169.931 73.2156L170.079 72.5562L175.539 74.1172Z" fill="url(#paint20_linear_2329_150485)"/>
    <path d="M82.6758 131.714C82.6758 131.714 87.8939 130.611 105.539 129.803C123.183 128.996 159.078 127.018 159.078 127.018C159.078 127.018 152.946 130.651 128.079 132.145C108.04 133.342 82.6758 131.714 82.6758 131.714Z" fill="#E6ADFF"/>
    <path d="M79.1777 25.8058C79.1777 25.8058 80.5899 22.3069 81.7195 22.5222C82.8358 22.7376 95.518 24.1371 102.431 24.0698C102.431 24.0698 107.259 24.8234 108.106 26.4921C112.773 35.6834 119.833 54.86 121.084 63.8226C124.54 88.705 123.707 114.852 123.68 117.154C123.639 120.639 123.559 125.067 124.339 125.268C125.105 125.484 134.936 127.018 135.931 129.79C136.752 132.051 137.613 141.996 137.774 145.32L137.478 145.871L128.051 136.519L119.174 147.459L118.125 147.755C118.125 147.755 116.928 133.087 115.96 131.553C114.091 128.633 108.617 128.296 106.667 126.574C104.73 124.851 104.919 91.9482 103.345 71.9507C101.772 51.9533 93.03 28.9683 86.2787 26.5863L79.1912 25.7924L79.1777 25.8058Z" fill="url(#paint21_linear_2329_150485)"/>
    <g style="mix-blend-mode:multiply" opacity="0.5">
        <path d="M81.7191 22.5217C88.3493 23.3157 90.0708 23.9348 91.8057 25.8457C93.554 27.7432 104.353 56.0976 105.752 70.5238C107.151 84.95 105.927 120.033 108.334 124.232C110.728 128.43 115.906 126.533 117.547 131.135C119.187 135.738 119.174 147.472 119.174 147.472L118.125 147.768L117.923 145.494L114.077 145.763C114.077 145.763 114.157 134.648 113.256 132.575C112.355 130.503 102.43 127.838 102.067 126.721C101.704 125.604 102.067 115.31 102.067 115.31C102.067 115.31 101.462 71.3043 100.426 64.3738C97.481 44.7397 89.1563 30.6096 87.8921 28.416C87.5828 27.8777 82.5126 26.4513 82.5126 26.4513L79.1504 25.8053C79.1504 25.8053 80.5222 22.3737 81.6922 22.5217H81.7191Z" fill="#75125A"/>
    </g>
    <path style="mix-blend-mode:multiply" opacity="0.5" d="M137.477 145.885L137.787 145.333L128.534 136.196L128.05 136.519L126.934 137.918L133.981 144.391L135.339 144.284L135.823 144.23L137.477 145.885Z" fill="url(#paint22_linear_2329_150485)"/>
    <g style="mix-blend-mode:screen" opacity="0.76">
        <path d="M109.317 125.268C110.339 126.318 117.83 129.481 119.336 129.481C120.842 129.481 135.367 129.548 134.735 128.794C134.103 128.041 125.845 125.672 123.263 125.309C120.681 124.959 108.564 124.474 109.317 125.255V125.268Z" fill="#FF4A59"/>
    </g>
    <path opacity="0.55" d="M102.847 47.4182C102.255 51.388 104.959 66.0161 106.263 66.5005C107.568 66.985 119.846 66.2179 120.25 63.7687C120.653 61.333 114.279 42.2909 112.772 41.9949C111.266 41.6988 103.251 44.6998 102.847 47.4182Z" fill="#A20074"/>
    <path opacity="0.23" d="M119.765 130.88C119.375 132.374 119.671 144.876 120.249 144.58C120.827 144.283 128.95 132.63 127.74 131.566C126.543 130.503 120.182 129.265 119.765 130.88Z" fill="#A20074"/>
    <path opacity="0.23" d="M129.327 130.275C128.614 131.365 133.334 140.22 134.747 140.368C136.159 140.516 136.71 130.799 134.747 130.275C132.783 129.75 129.918 129.36 129.327 130.275Z" fill="#A20074"/>
    <path opacity="0.23" d="M108.751 114.099C106.532 116.239 108.751 122.2 109.706 122.819C110.674 123.438 122.025 123.936 122.482 122.819C122.939 121.702 122.939 115.458 121.285 114.624C119.631 113.79 109.773 113.117 108.764 114.099H108.751Z" fill="#A20074"/>
    <g style="mix-blend-mode:screen" opacity="0.21">
        <path d="M93.3654 26.5054C95.7593 27.4205 108.858 28.6855 108.038 27.5551C107.218 26.4247 106.451 24.9444 103.519 24.4868C100.601 24.0427 89.2367 22.9661 90.1915 23.8947C91.1464 24.8232 92.5182 26.169 93.3654 26.4919V26.5054Z" fill="#FF4A59"/>
    </g>
    <path style="mix-blend-mode:multiply" opacity="0.5" d="M108.752 27.6494C108.752 27.6494 112.612 19.7096 119.188 18.8887C125.751 18.0678 138.918 28.2011 143.692 43.6366C148.466 59.0721 147.215 74.1173 147.215 74.1173H140.02L130.472 71.9776C130.472 71.9776 129.355 59.6777 125.496 46.4896C121.636 33.3014 111.415 27.4879 111.415 27.4879L108.765 27.6629L108.752 27.6494Z" fill="url(#paint23_linear_2329_150485)"/>
    <path d="M94.9937 74.6419V69.0975C94.9937 69.0975 117.561 66.6887 131.91 69.582C131.91 69.582 140.84 72.9598 141.594 75.5301C142.347 78.087 140.208 107.007 138.89 108.245C136.497 110.492 129.409 114.112 129.409 114.112L95.6257 115.31L93.9043 102.996L99.1762 102.821C99.1762 102.821 100.01 95.7833 100.615 90.5215L100.682 88.8259C100.682 88.8259 100.83 80.8457 99.7814 76.3375L94.9937 74.6554V74.6419Z" fill="#9220D9"/>
    <path d="M110.958 77.8313C110.648 81.1956 109.707 105.23 109.707 106.737C109.707 108.245 136.43 109.442 138.38 108.393C140.33 107.343 142.172 78.3831 139.94 76.7278C138.743 75.8396 111.079 76.5529 110.958 77.8448V77.8313Z" fill="url(#paint24_linear_2329_150485)"/>
    <g style="mix-blend-mode:soft-light" opacity="0.5">
        <path d="M113.474 97.6541C111.322 97.6002 110.596 80.1731 112.465 78.6255C114.348 77.0779 139.551 75.9206 139.9 77.6835C140.25 79.4464 141.353 99.4977 138.946 99.9014C136.538 100.305 131.67 94.9895 131.199 93.5765C130.728 92.177 127.178 86.9286 125.349 86.7402C123.506 86.5518 120.198 97.8156 113.487 97.6541H113.474Z" fill="#594275"/>
    </g>
    <g style="mix-blend-mode:soft-light" opacity="0.31">
        <path d="M94.9941 69.0976C94.9941 69.0976 97.1459 71.0355 108.672 74.8573C110.299 75.3956 140.464 76.2569 140.545 75.5167C140.706 74.1172 133.538 69.8109 131.911 69.5686C117.077 67.4289 102.539 68.021 94.9941 69.0842V69.0976Z" fill="#E75A29"/>
    </g>
    <path style="mix-blend-mode:multiply" opacity="0.5" d="M105.606 110.21C100.065 112.404 95.627 115.297 95.627 115.297L129.41 114.099C129.41 114.099 136.484 110.56 136.39 109.739C136.296 108.918 110.676 108.218 105.606 110.223V110.21Z" fill="url(#paint25_linear_2329_150485)"/>
    <path d="M118.582 102.149C120.169 102.701 125.71 104.342 130.888 102.364C131.116 102.283 131.237 102.028 131.17 101.785L127.687 90.1853C127.566 89.7143 127.687 89.2299 128.01 88.853C128.682 88.0322 129.032 86.9421 128.884 85.7713C128.642 83.9681 127.162 82.5281 125.36 82.3263C122.94 82.0571 120.895 83.9546 120.895 86.3231C120.895 87.0498 121.393 87.9649 121.837 88.6243C122.281 89.2837 122.415 90.118 122.227 90.8851L118.3 101.53C118.206 101.772 118.34 102.055 118.582 102.135V102.149Z" fill="#630F0F"/>
    <path d="M130.889 102.377C128.481 103.292 125.98 103.427 123.855 103.252C125.146 103.131 126.478 102.875 127.782 102.377C128.011 102.296 128.132 102.041 128.064 101.799L124.581 90.1984C124.46 89.7274 124.581 89.2429 124.904 88.8661C125.576 88.0452 125.926 86.9552 125.778 85.771C125.59 84.3579 124.635 83.1602 123.357 82.622C123.963 82.3663 124.648 82.2586 125.361 82.3394C127.163 82.5412 128.643 83.9811 128.885 85.7844C129.046 86.9552 128.683 88.0452 128.024 88.8796C127.715 89.2564 127.58 89.7408 127.701 90.2118L131.185 101.812C131.252 102.041 131.131 102.296 130.902 102.391L130.889 102.377Z" fill="#941717"/>
    <path d="M134.829 29.4659C135.408 32.884 137.331 39.7069 139.294 40.0971C140.343 40.3125 140.639 39.9357 141.218 39.1551C142.818 37.002 142.603 32.117 140.949 30.5694C139.294 29.0218 134.251 25.9266 134.843 29.4659H134.829Z" fill="url(#paint26_linear_2329_150485)"/>
    <path d="M137.385 34.6876C135.502 35.2393 138.03 40.1916 139.537 40.3396C141.043 40.5011 142.092 33.3149 137.385 34.6876Z" fill="#8753A1"/>
    <path style="mix-blend-mode:multiply" opacity="0.5" d="M136.255 126.224C136.255 126.224 142.952 108.366 144.001 100.023H140.316C140.316 100.023 139.792 106.281 138.891 108.232C138.891 108.232 118.731 109.551 111.415 108.784C109.115 108.541 109.72 104.8 110.124 95.2994C110.527 85.7986 109.68 75.2077 108.671 74.8578C107.663 74.5214 94.994 69.0981 94.994 69.0981L87.9199 74.1177L87.9737 74.8713L93.9181 74.6829L95.6395 76.3112C95.6395 76.3112 97.1189 84.1164 96.6616 89.2706L92.8556 89.3917V90.0242L96.6347 91.3699C96.6347 91.3699 96.5002 98.6772 95.4916 102.822L88.2965 103.293L87.9334 118.459C87.9334 118.459 104.919 116.643 124.743 116.643C125.523 116.643 125.186 122.564 125.348 125.928L132.529 125.672L136.268 126.197L136.255 126.224Z" fill="url(#paint27_linear_2329_150485)"/>
    <path style="mix-blend-mode:multiply" opacity="0.5" d="M70.4905 131.687V148.778L31.5429 143.153L27.2796 125.699L35.2547 123.694L36.0348 125.78C33.2912 118.284 30.6956 110.438 28.3152 102.526L23.9174 102.216C20.609 95.9584 18.6993 90.1718 18.6993 90.1718L21.268 89.149C21.0797 88.4627 21.268 89.0414 21.0797 88.3551L18.6993 88.2205C16.5879 82.2455 16.5879 75.3015 16.5879 75.3015L21.0663 74.8709C13.5619 41.2143 12.2439 12.2274 23.904 10.5048C37.0031 8.56699 57.9966 31.1752 64.0216 63.4188C64.7882 67.5232 65.4337 71.8565 65.9986 76.2839L58.6018 77.1721L59.8122 90.5217L90.1929 89.4989L84.531 90.4275L59.7987 93.0247L61.4126 104.84L68.4059 104.477L69.1591 129.777L60.0408 129.75L70.4905 131.701V131.687Z" fill="url(#paint28_linear_2329_150485)"/>
    <path style="mix-blend-mode:multiply" opacity="0.5" d="M37.07 104.827C41.9519 104.881 45.0317 110.492 45.0317 110.492C45.0317 110.492 52.442 110.802 60.4171 117.719L58.4536 104.625L43.5389 103.656L36.6531 103.118L28.3418 102.539L28.7722 103.939L37.0969 104.84L37.07 104.827Z" fill="url(#paint29_linear_2329_150485)"/>
    <path style="mix-blend-mode:multiply" opacity="0.5" d="M31.1807 33.1262C26.393 32.8301 25.1288 44.3899 27.6437 60.2964C27.6437 60.2964 29.8224 56.0035 33.5881 54.6578C33.5881 54.6578 40.0166 55.7747 45.4095 60.6732C48.691 63.6607 51.448 68.142 51.448 68.142C51.448 68.142 46.983 51.2935 42.2356 43.0038C37.5016 34.7276 33.3594 33.2607 31.1807 33.1262Z" fill="url(#paint30_linear_2329_150485)"/>
    <path d="M58.6022 77.1587C57.7146 78.4371 57.1094 82.4474 57.607 84.3045C58.1046 86.1616 59.7588 89.9431 59.7588 89.9431C59.7588 89.9431 59.8933 84.5602 59.7991 82.7569C59.705 80.9536 58.5887 77.1721 58.5887 77.1721L58.6022 77.1587Z" fill="#9220D9"/>
    <path d="M59.8121 93.0112C61.2242 94.7876 61.6276 97.6002 61.9235 98.5018C62.2194 99.4034 61.4259 104.827 61.4259 104.827C61.4259 104.827 59.3145 99.0401 59.3145 98.1654C59.3145 97.2906 59.8121 93.0112 59.8121 93.0112Z" fill="#9220D9"/>
    <path d="M68.4995 107.518C67.7329 111.636 66.4284 117.382 66.9798 118.472C67.5312 119.562 69.1585 129.749 69.1585 129.749C69.1585 129.749 70.6109 121.715 70.0192 118.634C69.4274 115.552 68.486 107.518 68.486 107.518H68.4995Z" fill="#9220D9"/>
    <path d="M54.2846 35.6967C51.5142 35.7774 56.6785 56.3536 57.4316 56.9592C58.1847 57.5647 61.4797 58.3183 62.5287 57.2552C63.5777 56.2056 64.0887 47.5795 63.6315 45.978C61.9907 40.3394 57.2702 35.6025 54.2846 35.6967Z" fill="url(#paint31_linear_2329_150485)"/>
    <path d="M59.8514 50.6208C56.812 46.3549 55.2923 46.0992 55.3999 48.4273C55.5075 50.742 57.2155 56.9861 57.9148 57.2284C58.6141 57.4706 60.8063 57.982 61.3173 56.7574C61.8284 55.5327 60.9945 52.2223 59.8514 50.6343V50.6208Z" fill="#8753A1"/>
    <g style="mix-blend-mode:soft-light" opacity="0.5">
        <path d="M102.229 90.966C101.611 92.3655 99.19 109.833 99.8893 110.546C100.589 111.26 108.066 107.061 108.564 106.105C109.061 105.15 109.25 94.5994 108.053 92.2175C106.856 89.8356 102.835 89.6202 102.243 90.966H102.229Z" fill="#683C11"/>
    </g>
    <g style="mix-blend-mode:soft-light" opacity="0.29">
        <path d="M56.9873 84.8964C58.117 86.2555 59.1795 89.9159 58.6012 89.9294C58.0363 89.9294 45.0986 89.6199 44.9507 89.1354C44.8028 88.6509 55.6963 83.3353 56.9873 84.8964Z" fill="#FFC29C"/>
    </g>
    <g style="mix-blend-mode:soft-light" opacity="0.5">
        <path d="M67.9365 133.383C61.2659 131.432 30.9255 125.766 29.8227 127.489C28.7199 129.211 29.1099 141 32.9294 142.453C36.7488 143.906 61.9249 146.06 62.9201 145.871C67.9365 144.97 69.2679 133.773 67.9365 133.383Z" fill="#683C11"/>
    </g>
    <g style="mix-blend-mode:soft-light" opacity="0.5">
        <path d="M20.9057 13.1017C13.3206 19.6016 15.7548 42.1559 20.3274 41.1063C21.7933 40.7698 26.4197 33.005 30.0374 32.4667C33.6416 31.9419 38.0663 33.1126 41.3747 33.1126C44.6831 33.1126 47.198 29.21 42.2488 22.1181C37.2997 15.0261 25.8279 8.88959 20.9191 13.1017H20.9057Z" fill="#683C11"/>
    </g>
    <path d="M142.59 89.3644C153.645 92.0424 171.37 88.0591 171.37 88.0591C171.37 88.0591 163.704 88.234 159.71 88.1802C155.729 88.1264 142.576 89.3644 142.576 89.3644H142.59Z" fill="#E6ADFF"/>
    <path d="M66.0801 76.9568C73.0465 78.9215 93.8921 76.2301 93.8921 76.2301C93.8921 76.2301 88.7278 75.8398 78.6816 76.2301C68.6353 76.6204 66.0801 76.9568 66.0801 76.9568Z" fill="#E6ADFF"/>
    <g style="mix-blend-mode:soft-light" opacity="0.5">
        <path d="M127.272 19.8844C130.109 22.1856 138.031 27.7569 139.497 28.2683C151.224 32.3728 169.729 32.3728 168.223 29.5198C166.717 26.6534 164.162 18.2292 158.446 17.6236C152.73 17.0181 125.254 18.2561 127.272 19.8844Z" fill="#594275"/>
    </g>
    <g style="mix-blend-mode:soft-light" opacity="0.3">
        <path d="M142.589 112.107C141.365 113.95 139.092 123.909 140.45 124.218C141.809 124.514 156.818 112.78 156.656 109.321C156.508 105.863 144.297 109.55 142.589 112.12V112.107Z" fill="#D2FFF1"/>
    </g>
    <g style="mix-blend-mode:soft-light" opacity="0.1">
        <path d="M162.508 53.4068C159.845 56.3674 160.706 59.005 162.508 59.005C164.31 59.005 169.125 52.7205 168.829 52.2495C168.533 51.7785 164.525 51.1594 162.508 53.4068Z" fill="#D2FFF1"/>
    </g>
    <g style="mix-blend-mode:soft-light" opacity="0.5">
        <path d="M40.366 11.7294C35.659 11.8101 52.6716 30.2735 58.4143 31.9287C64.1569 33.584 75.3328 34.499 75.2656 30.4215C75.158 24.5003 71.2847 17.5025 65.7169 15.8473C60.1491 14.192 43.5668 11.6755 40.366 11.7294Z" fill="#594275"/>
    </g>
    <g style="mix-blend-mode:soft-light" opacity="0.1">
        <path d="M66.0784 44.4036C64.747 48.7368 67.3023 73.2559 69.1716 74.1172C71.041 74.965 84.5839 74.9919 84.5839 71.9775C84.5839 68.9631 67.2888 40.501 66.0784 44.417V44.4036Z" fill="#D2FFF1"/>
    </g>
    <g style="mix-blend-mode:soft-light" opacity="0.1">
        <path d="M73.0059 44.4036C73.0059 46.1127 77.1616 56.9054 78.6947 56.9054C80.2279 56.9054 82.4738 45.1572 79.9992 44.4036C77.5247 43.65 72.9924 42.5196 73.0059 44.4036Z" fill="#D2FFF1"/>
    </g>
    <path d="M51.4469 90.1447C51.7965 90.0774 59.4085 88.0319 59.812 88.0589C63.08 88.3684 70.7189 89.6737 72.5076 90.0236C72.6824 90.0505 60.2961 90.5081 59.8254 90.5081C56.7726 90.5081 51.1779 90.1851 51.4469 90.1313V90.1447Z" fill="#6720D9"/>
    <path d="M175.176 75.5168C174.974 75.6514 153.739 75.2207 153.631 74.6824C153.591 74.5075 175.539 73.7001 175.539 74.1172C175.539 74.7228 175.351 75.4091 175.176 75.5168Z" fill="#E6ADFF"/>
    <path d="M59.8113 93.0116C60.4031 93.9939 61.748 97.3179 61.99 97.6543C62.6221 98.5559 84.9202 92.0426 83.3332 91.9619C81.7328 91.8946 59.3003 92.1503 59.8113 92.9981V93.0116Z" fill="#E6ADFF"/>
    <path style="mix-blend-mode:multiply" opacity="0.5" d="M161.351 101.046C161.351 101.046 152.569 104.235 142.603 106.401C142.603 106.401 140.371 108.353 135.502 112.107C135.502 112.107 135.287 113.951 134.87 115.31L123.748 116.562C123.748 116.562 123.842 115.499 123.627 115.512C117.79 115.741 113.904 115.875 107.139 116.077C106.749 116.077 105.861 117.571 105.485 117.571C105.189 117.571 91.0542 116.764 88.23 116.669L88.2569 105.634C88.2569 105.634 79.3403 106.657 68.6486 108.407C68.6486 108.407 62.5832 109.645 59.2613 109.847L58.8041 107.532L57.4727 104.558L99.2176 102.822C99.2176 102.822 95.963 105.634 94.7526 108.245L95.6671 115.324L129.45 114.126C129.45 114.126 137.775 110.062 138.932 108.259C140.088 106.455 140.357 100.05 140.357 100.05L162.158 99L161.391 101.072L161.351 101.046Z" fill="url(#paint32_linear_2329_150485)"/>
    <g style="mix-blend-mode:soft-light" opacity="0.5">
        <path d="M171.382 59.3276C170.186 57.2282 147.255 66.3119 147.74 68.1555C148.224 69.9992 146.704 73.996 148.372 73.996C150.039 73.996 167.388 73.5653 168.841 72.556C170.293 71.5333 172.593 61.4403 171.382 59.3276Z" fill="#594275"/>
    </g>
    <g style="mix-blend-mode:soft-light" opacity="0.3">
        <path d="M145.277 75.8125C143.314 76.8756 140.88 86.6994 142.588 86.9417C144.296 87.1704 167.764 86.4168 169.189 85.5959C170.615 84.7616 172.605 76.1489 170.991 75.826C169.377 75.503 147.752 74.4802 145.264 75.826L145.277 75.8125Z" fill="#D2FFF1"/>
    </g>
    <g style="mix-blend-mode:soft-light" opacity="0.29">
        <path d="M18.6984 76.8761C17.2325 80.4827 17.5014 84.8832 18.6984 84.6275C19.8953 84.3718 28.9463 77.8047 26.3776 77.1587C23.8089 76.5262 19.2632 75.4766 18.6984 76.8761Z" fill="#FFC29C"/>
    </g>
    <g style="mix-blend-mode:soft-light" opacity="0.3">
        <path d="M80.5773 132.966C75.7492 135.563 78.5061 143.853 83.0787 142.803C102.445 138.335 87.463 129.252 80.5773 132.966Z" fill="#D2FFF1"/>
    </g>
    <g style="mix-blend-mode:soft-light" opacity="0.29">
        <path d="M32.2432 106.522C32.3508 109.173 35.4171 121.702 36.2509 122.819C36.9906 123.788 40.5007 124.73 40.5142 123.882C40.5545 122.173 32.1356 104.1 32.2432 106.522Z" fill="#FFC29C"/>
    </g>
    <g style="mix-blend-mode:soft-light" opacity="0.29">
        <path d="M53.8943 62.0729C51.1238 64.7778 52.6973 74.0902 54.9029 74.8573C57.1085 75.6244 63.6715 77.3334 63.7925 73.5116C63.9136 69.6897 61.2104 54.954 53.8943 62.0729Z" fill="#FFC29C"/>
    </g>
    <g style="mix-blend-mode:soft-light" opacity="0.9">
        <path d="M170.415 33.9876C170.039 32.7091 142.603 35.6966 142.603 35.6966L141.541 38.3477C141.541 38.3477 144.567 44.6457 145.428 49.3423C145.428 49.3423 145.831 46.5836 147.378 45.978C149.045 45.332 168.923 44.3227 170.644 44.4035C172.366 44.4708 172.258 46.9738 172.258 46.9738C172.258 46.9738 172.123 39.8146 170.429 34.001L170.415 33.9876Z" fill="#CADAFC"/>
    </g>
    <g style="mix-blend-mode:soft-light" opacity="0.9">
        <path d="M52.416 32.4404C56.6793 33.8938 80.228 36.047 80.228 36.047C80.4836 36.6929 82.084 41.1473 82.084 41.1473C82.084 41.1473 66.7927 38.725 59.8263 39.0883C59.8263 39.0883 56.491 35.576 54.2988 35.7105L52.4295 32.4404H52.416Z" fill="#CADAFC"/>
    </g>
    <path d="M27.4007 126.223C25.9751 124.905 11.2891 144.66 11.2891 144.66C11.2891 144.66 21.5236 145.884 37.42 144C37.42 144 28.3824 127.125 27.4007 126.223Z" fill="url(#paint33_linear_2329_150485)"/>
    <path d="M164.295 126.964C165.277 126.896 177.354 145.535 177.354 145.535C177.354 145.535 165.264 145.037 150.779 143.22C150.779 143.22 162.964 127.044 164.295 126.95V126.964Z" fill="url(#paint34_linear_2329_150485)"/>
    <path d="M70.4904 131.674C63.9543 135.105 57.4316 146.88 57.4316 146.88C57.4316 146.88 59.8524 152.075 61.4797 153.986C61.4797 153.986 75.6278 151.173 83.8719 147.849C83.8719 147.849 71.768 131.014 70.5038 131.674H70.4904Z" fill="url(#paint35_linear_2329_150485)"/>
    <path d="M70.4898 131.674C64.6396 138.173 59.9057 154.295 61.4792 153.986C63.0527 153.676 77.9539 150.527 83.8714 147.849C83.8714 147.849 79.9981 142.386 76.8242 138.093C71.8347 131.364 70.5033 131.674 70.5033 131.674H70.4898Z" fill="url(#paint36_linear_2329_150485)"/>
    <path style="mix-blend-mode:multiply" opacity="0.5" d="M160.866 128.094C150.389 129.063 140.101 141.982 144.001 142.359C147.067 142.655 151.384 142.265 155.688 143.368C159.992 144.472 167.63 144.754 168.639 141.054C169.648 137.353 167.482 127.502 160.879 128.108L160.866 128.094Z" fill="url(#paint37_linear_2329_150485)"/>
    <path style="mix-blend-mode:color-dodge" opacity="0.6" d="M88.589 108.721C98.7623 98.5418 98.7623 82.0373 88.589 71.8576C78.4158 61.6779 61.9217 61.6779 51.7484 71.8576C41.5752 82.0373 41.5752 98.5418 51.7484 108.721C61.9217 118.901 78.4158 118.901 88.589 108.721Z" fill="url(#paint38_radial_2329_150485)"/>
    <path style="mix-blend-mode:color-dodge" opacity="0.6" d="M102.095 131.58C116.482 131.58 128.145 119.909 128.145 105.513C128.145 91.1168 116.482 79.4463 102.095 79.4463C87.708 79.4463 76.0449 91.1168 76.0449 105.513C76.0449 119.909 87.708 131.58 102.095 131.58Z" fill="url(#paint39_radial_2329_150485)"/>
    <path style="mix-blend-mode:multiply" opacity="0.5" d="M117.078 82.057C108.955 87.6687 108.524 101.503 112.357 106.105C115.787 110.223 138.313 110.734 138.771 94.6665C139.228 78.5985 123.022 77.966 117.091 82.057H117.078Z" fill="url(#paint40_linear_2329_150485)"/>
    <path d="M133.325 79.8767C124.206 74.5477 114.752 81.1013 113.42 89.7544C112.089 98.4208 120.078 108.285 130.917 104.773C141.757 101.274 141.327 84.5464 133.311 79.8633L133.325 79.8767Z" fill="url(#paint41_linear_2329_150485)"/>
    <path d="M135.785 85.5829C133.284 80.8325 125.107 79.1503 120.131 83.4297C115.155 87.7091 114.752 97.506 121.906 101.328C129.612 105.446 142.039 97.4656 135.785 85.5829Z" fill="url(#paint42_linear_2329_150485)"/>
    <path d="M127.301 101.503C122.002 101.597 117.617 97.2774 117.51 91.8273C117.402 86.3905 121.625 81.8958 126.924 81.7881C132.223 81.6939 136.607 86.0137 136.715 91.4639C136.822 96.9006 132.599 101.395 127.301 101.503Z" fill="url(#paint43_linear_2329_150485)"/>
    <path d="M127.649 101.22C122.498 101.314 118.234 97.1019 118.14 91.8132C118.046 86.5245 122.135 82.1509 127.299 82.0567C132.45 81.9625 136.713 86.1746 136.807 91.4633C136.901 96.752 132.813 101.126 127.649 101.22Z" fill="url(#paint44_linear_2329_150485)"/>
    <path style="mix-blend-mode:multiply" opacity="0.5" d="M127.649 101.22C122.498 101.314 118.234 97.102 118.14 91.8133C118.046 86.5246 122.135 82.151 127.299 82.0568C129.814 82.003 132.1 82.9853 133.808 84.6002C132.544 83.8062 131.038 83.3487 129.424 83.3891C125.08 83.4698 121.623 87.0091 121.704 91.2885C121.785 95.5679 125.376 98.9726 129.72 98.8918C132.302 98.838 134.561 97.573 135.96 95.6621C134.507 98.8918 131.36 101.153 127.662 101.22H127.649Z" fill="url(#paint45_linear_2329_150485)"/>
    <path style="mix-blend-mode:color-dodge" opacity="0.3" d="M129.116 98.071C125.27 98.1383 122.096 95.0027 122.015 91.0598C121.935 87.1168 125.001 83.8601 128.847 83.7794C132.694 83.7121 135.867 86.8476 135.948 90.7906C136.029 94.7336 132.963 97.9903 129.116 98.071Z" fill="url(#paint46_radial_2329_150485)"/>
    <path d="M128.589 86.444C128.28 86.9284 129.477 88.2742 129.921 88.4895C129.921 88.4895 131.36 88.0588 131.427 86.9957C131.427 86.9957 130.755 85.6231 129.665 85.3809C129.665 85.3809 129.033 85.7577 128.589 86.444Z" fill="url(#paint47_linear_2329_150485)"/>
    <path d="M113.421 89.7548C114.43 83.2146 120.051 77.8855 126.682 77.9528C119.137 79.0294 112.641 84.8025 115.452 96.0393C115.802 97.412 119.392 105.002 127.233 105.486C118.343 105.984 112.251 97.412 113.421 89.7548Z" fill="url(#paint48_linear_2329_150485)"/>
    <path style="mix-blend-mode:color-dodge" opacity="0.5" d="M132.193 104.288C131.063 103.831 136.645 97.7213 137.855 98.4884C136.725 100.978 134.856 103.077 132.193 104.288Z" fill="url(#paint49_linear_2329_150485)"/>
    <path style="mix-blend-mode:color-dodge" opacity="0.5" d="M129.33 112.524C141.177 112.524 150.78 102.914 150.78 91.06C150.78 79.2056 141.177 69.5957 129.33 69.5957C117.483 69.5957 107.879 79.2056 107.879 91.06C107.879 102.914 117.483 112.524 129.33 112.524Z" fill="url(#paint50_radial_2329_150485)"/>
    <path d="M84.5713 101.085C79.3935 98.7168 72.8574 90.9655 72.8574 90.9655C72.8574 90.9655 78.8825 82.7027 83.9257 79.8901C88.8614 82.7162 93.9182 89.9965 93.9182 89.9965C93.9182 89.9965 89.3187 97.8825 84.5847 101.085H84.5713Z" fill="url(#paint51_linear_2329_150485)"/>
    <path style="mix-blend-mode:multiply" opacity="0.5" d="M83.9121 79.9033C78.8822 82.7024 72.8438 90.9786 72.8438 90.9786L76.8111 91.2343C80.0119 86.1071 83.8583 82.6217 83.8583 82.6217C83.8583 82.6217 84.0062 81.424 83.8986 79.9033H83.9121Z" fill="url(#paint52_linear_2329_150485)"/>
    <path d="M76.824 91.2215C76.824 91.2215 80.2534 84.8024 83.8711 82.6089C83.8711 82.6089 87.6234 84.3718 92.5456 90.1046C92.5456 90.1046 89.1834 96.3084 84.5032 99.5112C84.5032 99.5112 81.5714 97.0351 76.8105 91.2215H76.824Z" fill="url(#paint53_linear_2329_150485)"/>
    <path d="M83.873 84.8423C79.8922 87.5741 78.1035 91.4363 78.1035 91.4363C80.7126 95.164 84.2362 97.1691 84.2362 97.1691C87.1142 94.6257 89.8039 90.7635 89.8039 90.7635C87.3832 87.9509 83.873 84.8423 83.873 84.8423Z" fill="url(#paint54_linear_2329_150485)"/>
    <path d="M83.873 84.8423L84.2362 97.1691C86.6031 95.1505 89.804 90.7635 89.804 90.7635C87.3832 87.9509 83.873 84.8423 83.873 84.8423Z" fill="url(#paint55_linear_2329_150485)"/>
    <path d="M84.1689 93.4416L86.3341 91.0462L84.0209 88.5835L81.8691 91.1135L84.1689 93.4416Z" fill="url(#paint56_linear_2329_150485)"/>
    <path d="M84.2633 96.2679L84.1692 93.4419L81.8694 91.1138L79.1797 91.2214L84.2633 96.2679Z" fill="url(#paint57_linear_2329_150485)"/>
    <path d="M88.8097 90.9385L86.3352 91.0461L84.1699 93.4415L84.2641 96.2675L88.8097 90.9385Z" fill="url(#paint58_linear_2329_150485)"/>
    <path d="M84.0212 88.5831L81.8694 91.1131L79.1797 91.2208L83.9405 85.7437L84.0212 88.5831Z" fill="url(#paint59_linear_2329_150485)"/>
    <path d="M88.8099 90.9382L86.3353 91.0458L84.0221 88.5831L83.9414 85.7437L88.8099 90.9382Z" fill="url(#paint60_linear_2329_150485)"/>
    <path d="M88.5928 84.8426C89.0231 84.1428 91.9012 87.5879 91.7801 88.4895C91.7263 88.8529 88.3103 85.3136 88.5928 84.8426Z" fill="url(#paint61_linear_2329_150485)"/>
    <path d="M85.1755 91.0329C85.7 89.8622 84.8124 90.0237 84.261 90.3601C83.7096 90.6831 83.5751 92.0153 84.8931 91.3559L85.1755 91.0464V91.0329Z" fill="url(#paint62_linear_2329_150485)"/>
    <path style="mix-blend-mode:multiply" opacity="0.5" d="M83.912 79.9033C78.6804 80.8722 66.2537 90.2385 66.2537 90.2385L64.9492 91.0863C64.9492 91.0863 77.08 99.3356 84.571 101.099L84.5172 99.524C84.5172 99.524 79.1646 94.7467 76.8245 91.2343C76.8245 91.2343 79.178 86.1206 83.8716 82.6217L83.912 79.9033Z" fill="url(#paint63_linear_2329_150485)"/>
    <path d="M156.054 96.9266C151.602 94.6657 146.115 87.5872 146.115 87.5872C146.115 87.5872 151.575 80.3607 156.04 77.9922C160.263 80.6433 164.473 87.2777 164.473 87.2777C164.473 87.2777 160.263 94.2082 156.054 96.94V96.9266Z" fill="url(#paint64_linear_2329_150485)"/>
    <path style="mix-blend-mode:multiply" opacity="0.5" d="M156.027 77.9788C151.575 80.3473 146.102 87.5738 146.102 87.5738L149.518 87.9641C152.436 83.4694 155.919 80.3876 155.919 80.3876C155.919 80.3876 156.081 79.3245 156.027 77.9653V77.9788Z" fill="url(#paint65_linear_2329_150485)"/>
    <path d="M149.531 87.9778C149.531 87.9778 152.719 82.2719 155.933 80.4014C155.933 80.4014 159.161 82.0701 163.289 87.3319C163.289 87.3319 160.21 92.7821 156.054 95.5273C156.054 95.5273 153.526 93.2934 149.531 87.9778Z" fill="url(#paint66_linear_2329_150485)"/>
    <path d="M155.865 82.4065C152.328 84.7481 150.795 87.9105 150.795 87.9105C152.974 91.3152 155.865 93.4146 155.865 93.4146C158.434 91.221 160.881 87.8432 160.881 87.8432C158.851 85.2729 155.865 82.3931 155.865 82.3931V82.4065Z" fill="url(#paint67_linear_2329_150485)"/>
    <path d="M155.865 82.4062V93.4277C157.99 91.6918 160.882 87.8564 160.882 87.8564C158.851 85.2861 155.865 82.4062 155.865 82.4062Z" fill="url(#paint68_linear_2329_150485)"/>
    <path d="M155.905 90.0906L157.842 88.0047L155.892 85.7573L153.955 87.9509L155.905 90.0906Z" fill="url(#paint69_linear_2329_150485)"/>
    <path d="M155.905 92.6204V90.0904L153.955 87.9507L151.615 87.9776L155.905 92.6204Z" fill="url(#paint70_linear_2329_150485)"/>
    <path d="M160.006 87.978L157.841 88.0049L155.904 90.0908V92.6208L160.006 87.978Z" fill="url(#paint71_linear_2329_150485)"/>
    <path d="M155.892 85.7573L153.955 87.9508L151.615 87.9777L155.892 83.2139V85.7573Z" fill="url(#paint72_linear_2329_150485)"/>
    <path d="M160.008 87.9777L157.843 88.0046L155.893 85.7573V83.2139L160.008 87.9777Z" fill="url(#paint73_linear_2329_150485)"/>
    <path d="M159.981 82.5273C160.371 81.9217 162.792 85.0573 162.657 85.8647C162.603 86.1877 159.725 82.9445 159.981 82.5273Z" fill="url(#paint74_linear_2329_150485)"/>
    <path d="M156.833 87.9637C157.317 86.9275 156.537 87.0621 156.053 87.3312C155.569 87.6138 155.408 88.7981 156.578 88.2329L156.833 87.9637Z" fill="url(#paint75_linear_2329_150485)"/>
    <path style="mix-blend-mode:multiply" opacity="0.5" d="M156.025 77.9922C148.252 80.9797 141.393 86.9816 141.393 86.9816L141.285 88.6503C141.285 88.6503 149.57 95.1637 156.038 96.94V95.5405C156.038 95.5405 151.466 91.1938 149.516 87.9909C149.516 87.9909 151.735 83.4155 155.917 80.4145L156.025 77.9922Z" fill="url(#paint76_linear_2329_150485)"/>
    <defs>
        <linearGradient id="paint0_linear_2329_150485" x1="20.3274" y1="75.3019" x2="70.4913" y2="75.3019" gradientUnits="userSpaceOnUse">
            <stop stop-color="#5E4A94"/>
            <stop offset="1" stop-color="#52156B"/>
        </linearGradient>
        <linearGradient id="paint1_linear_2329_150485" x1="94.996" y1="157.606" x2="94.996" y2="15.4708" gradientUnits="userSpaceOnUse">
            <stop stop-color="#D068EE"/>
            <stop offset="0.2" stop-color="#9A45CB"/>
            <stop offset="0.37" stop-color="#732CB1"/>
            <stop offset="0.5" stop-color="#5B1CA1"/>
            <stop offset="0.59" stop-color="#52189C"/>
            <stop offset="0.71" stop-color="#4F3CA9"/>
            <stop offset="0.82" stop-color="#4C56B2"/>
            <stop offset="0.92" stop-color="#4A66B8"/>
            <stop offset="1" stop-color="#4A6CBA"/>
        </linearGradient>
        <linearGradient id="paint2_linear_2329_150485" x1="78.696" y1="34.6872" x2="125.498" y2="34.6872" gradientUnits="userSpaceOnUse">
            <stop stop-color="#1A3780"/>
            <stop offset="0.15" stop-color="#173E89"/>
            <stop offset="0.39" stop-color="#1254A3"/>
            <stop offset="0.7" stop-color="#0977CC"/>
            <stop offset="1" stop-color="#009EFA"/>
        </linearGradient>
        <linearGradient id="paint3_linear_2329_150485" x1="87.0074" y1="53.4064" x2="109.83" y2="53.4064" gradientUnits="userSpaceOnUse">
            <stop stop-color="#1A3780"/>
            <stop offset="0.15" stop-color="#173E89"/>
            <stop offset="0.39" stop-color="#1254A3"/>
            <stop offset="0.7" stop-color="#0977CC"/>
            <stop offset="1" stop-color="#009EFA"/>
        </linearGradient>
        <linearGradient id="paint4_linear_2329_150485" x1="104.033" y1="124.649" x2="121.7" y2="111.216" gradientUnits="userSpaceOnUse">
            <stop stop-color="#36193B"/>
            <stop offset="1" stop-color="#8E37E2"/>
        </linearGradient>
        <linearGradient id="paint5_linear_2329_150485" x1="56.1815" y1="25.2407" x2="56.4913" y2="146.571" gradientUnits="userSpaceOnUse">
            <stop stop-color="#3D9AC4"/>
            <stop offset="0.03" stop-color="#477EC4"/>
            <stop offset="0.08" stop-color="#5657C5"/>
            <stop offset="0.13" stop-color="#613BC6"/>
            <stop offset="0.17" stop-color="#682AC6"/>
            <stop offset="0.19" stop-color="#6B24C7"/>
            <stop offset="0.55" stop-color="#C741D1"/>
            <stop offset="1" stop-color="#F768CA"/>
        </linearGradient>
        <linearGradient id="paint6_linear_2329_150485" x1="145.831" y1="25.0251" x2="146.141" y2="146.342" gradientUnits="userSpaceOnUse">
            <stop stop-color="#3D9AC4"/>
            <stop offset="0.03" stop-color="#477EC4"/>
            <stop offset="0.08" stop-color="#5657C5"/>
            <stop offset="0.13" stop-color="#613BC6"/>
            <stop offset="0.17" stop-color="#682AC6"/>
            <stop offset="0.19" stop-color="#6B24C7"/>
            <stop offset="0.55" stop-color="#C741D1"/>
            <stop offset="1" stop-color="#F768CA"/>
        </linearGradient>
        <linearGradient id="paint7_linear_2329_150485" x1="45.0195" y1="135.63" x2="31.4598" y2="32.6845" gradientUnits="userSpaceOnUse">
            <stop stop-color="#5652D6"/>
            <stop offset="1" stop-color="#D43FB3"/>
        </linearGradient>
        <linearGradient id="paint8_linear_2329_150485" x1="62.7572" y1="70.4297" x2="30.8568" y2="70.6179" gradientUnits="userSpaceOnUse">
            <stop stop-color="#4A0D73"/>
            <stop offset="1" stop-color="#5032AD"/>
        </linearGradient>
        <linearGradient id="paint9_linear_2329_150485" x1="108.752" y1="72.5565" x2="147.404" y2="72.5565" gradientUnits="userSpaceOnUse">
            <stop stop-color="#4A0D73"/>
            <stop offset="1" stop-color="#5032AD"/>
        </linearGradient>
        <linearGradient id="paint10_linear_2329_150485" x1="20.9062" y1="89.1493" x2="171.384" y2="89.1493" gradientUnits="userSpaceOnUse">
            <stop stop-color="#351E52"/>
            <stop offset="1" stop-color="#24289E"/>
        </linearGradient>
        <linearGradient id="paint11_linear_2329_150485" x1="93.972" y1="82.0031" x2="25.074" y2="81.1026" gradientUnits="userSpaceOnUse">
            <stop stop-color="#4A0D73"/>
            <stop offset="1" stop-color="#5032AD"/>
        </linearGradient>
        <linearGradient id="paint12_linear_2329_150485" x1="93.7838" y1="96.1334" x2="24.8993" y2="95.2329" gradientUnits="userSpaceOnUse">
            <stop stop-color="#4A0D73"/>
            <stop offset="1" stop-color="#5032AD"/>
        </linearGradient>
        <linearGradient id="paint13_linear_2329_150485" x1="117.077" y1="32.1709" x2="117.077" y2="169.866" gradientUnits="userSpaceOnUse">
            <stop stop-color="#6B24C7"/>
            <stop offset="0.51" stop-color="#C741D1"/>
            <stop offset="1" stop-color="#F768CA"/>
        </linearGradient>
        <linearGradient id="paint14_linear_2329_150485" x1="116.028" y1="32.1711" x2="116.028" y2="169.866" gradientUnits="userSpaceOnUse">
            <stop stop-color="#6B24C7"/>
            <stop offset="0.51" stop-color="#C741D1"/>
            <stop offset="1" stop-color="#F768CA"/>
        </linearGradient>
        <linearGradient id="paint15_linear_2329_150485" x1="18.6992" y1="89.876" x2="172.244" y2="89.876" gradientUnits="userSpaceOnUse">
            <stop stop-color="#E82AD5"/>
            <stop offset="1" stop-color="#FFA3D1"/>
        </linearGradient>
        <linearGradient id="paint16_linear_2329_150485" x1="95.9352" y1="149.774" x2="95.9352" y2="120.989" gradientUnits="userSpaceOnUse">
            <stop stop-color="#4A0D73"/>
            <stop offset="1" stop-color="#5032AD"/>
        </linearGradient>
        <linearGradient id="paint17_linear_2329_150485" x1="27.2793" y1="127.489" x2="164.605" y2="127.489" gradientUnits="userSpaceOnUse">
            <stop stop-color="#E82AD5"/>
            <stop offset="1" stop-color="#FFA3D1"/>
        </linearGradient>
        <linearGradient id="paint18_linear_2329_150485" x1="87.3691" y1="126.721" x2="132.517" y2="126.721" gradientUnits="userSpaceOnUse">
            <stop stop-color="white"/>
            <stop offset="0.44" stop-color="#881DED"/>
            <stop offset="1" stop-color="#262262"/>
        </linearGradient>
        <linearGradient id="paint19_linear_2329_150485" x1="117.265" y1="25.0928" x2="117.575" y2="146.41" gradientUnits="userSpaceOnUse">
            <stop stop-color="#6B24C7"/>
            <stop offset="0.51" stop-color="#C741D1"/>
            <stop offset="1" stop-color="#F768CA"/>
        </linearGradient>
        <linearGradient id="paint20_linear_2329_150485" x1="16.5879" y1="74.8573" x2="175.539" y2="74.8573" gradientUnits="userSpaceOnUse">
            <stop stop-color="#E82AD5"/>
            <stop offset="1" stop-color="#FFA3D1"/>
        </linearGradient>
        <linearGradient id="paint21_linear_2329_150485" x1="108.483" y1="17.1124" x2="108.483" y2="151.995" gradientUnits="userSpaceOnUse">
            <stop stop-color="#941F63"/>
            <stop offset="0.56" stop-color="#DE108C"/>
            <stop offset="1" stop-color="#FF144B"/>
        </linearGradient>
        <linearGradient id="paint22_linear_2329_150485" x1="129.287" y1="146.127" x2="131.993" y2="142.213" gradientUnits="userSpaceOnUse">
            <stop stop-color="white"/>
            <stop offset="0.44" stop-color="#881DED"/>
            <stop offset="1" stop-color="#262262"/>
        </linearGradient>
        <linearGradient id="paint23_linear_2329_150485" x1="114.118" y1="52.007" x2="146.613" y2="42.5442" gradientUnits="userSpaceOnUse">
            <stop stop-color="white"/>
            <stop offset="0.44" stop-color="#881DED"/>
            <stop offset="1" stop-color="#262262"/>
        </linearGradient>
        <linearGradient id="paint24_linear_2329_150485" x1="125.334" y1="109.039" x2="125.334" y2="83.1469" gradientUnits="userSpaceOnUse">
            <stop stop-color="#655ED6"/>
            <stop offset="1" stop-color="#F07FD8"/>
        </linearGradient>
        <linearGradient id="paint25_linear_2329_150485" x1="116.002" y1="109.133" x2="116.002" y2="118.19" gradientUnits="userSpaceOnUse">
            <stop stop-color="#E54136"/>
            <stop offset="1" stop-color="white"/>
        </linearGradient>
        <linearGradient id="paint26_linear_2329_150485" x1="134.776" y1="33.9875" x2="142.294" y2="33.9875" gradientUnits="userSpaceOnUse">
            <stop stop-color="#351E52"/>
            <stop offset="1" stop-color="#24289E"/>
        </linearGradient>
        <linearGradient id="paint27_linear_2329_150485" x1="103.305" y1="121.393" x2="110.535" y2="103.929" gradientUnits="userSpaceOnUse">
            <stop stop-color="white"/>
            <stop offset="0.44" stop-color="#881DED"/>
            <stop offset="1" stop-color="#262262"/>
        </linearGradient>
        <linearGradient id="paint28_linear_2329_150485" x1="6.972" y1="79.5809" x2="67.5855" y2="79.5809" gradientUnits="userSpaceOnUse">
            <stop stop-color="white"/>
            <stop offset="0.44" stop-color="#881DED"/>
            <stop offset="1" stop-color="#262262"/>
        </linearGradient>
        <linearGradient id="paint29_linear_2329_150485" x1="28.3149" y1="110.115" x2="60.4036" y2="110.115" gradientUnits="userSpaceOnUse">
            <stop stop-color="white"/>
            <stop offset="0.44" stop-color="#881DED"/>
            <stop offset="1" stop-color="#262262"/>
        </linearGradient>
        <linearGradient id="paint30_linear_2329_150485" x1="39.1424" y1="71.0218" x2="38.698" y2="44.3764" gradientUnits="userSpaceOnUse">
            <stop stop-color="white"/>
            <stop offset="0.44" stop-color="#881DED"/>
            <stop offset="1" stop-color="#262262"/>
        </linearGradient>
        <linearGradient id="paint31_linear_2329_150485" x1="53.4777" y1="46.7451" x2="63.7929" y2="46.7451" gradientUnits="userSpaceOnUse">
            <stop stop-color="#351E52"/>
            <stop offset="1" stop-color="#24289E"/>
        </linearGradient>
        <linearGradient id="paint32_linear_2329_150485" x1="57.4323" y1="108.272" x2="162.117" y2="108.272" gradientUnits="userSpaceOnUse">
            <stop stop-color="white"/>
            <stop offset="0.44" stop-color="#881DED"/>
            <stop offset="1" stop-color="#262262"/>
        </linearGradient>
        <linearGradient id="paint33_linear_2329_150485" x1="11.2891" y1="135.603" x2="37.42" y2="135.603" gradientUnits="userSpaceOnUse">
            <stop stop-color="#4A0D73"/>
            <stop offset="1" stop-color="#5032AD"/>
        </linearGradient>
        <linearGradient id="paint34_linear_2329_150485" x1="161.014" y1="129.238" x2="168.85" y2="168.074" gradientUnits="userSpaceOnUse">
            <stop stop-color="#6B24C7"/>
            <stop offset="0.51" stop-color="#C741D1"/>
            <stop offset="1" stop-color="#F768CA"/>
        </linearGradient>
        <linearGradient id="paint35_linear_2329_150485" x1="75.722" y1="24.3386" x2="70.605" y2="148.293" gradientUnits="userSpaceOnUse">
            <stop stop-color="#4A0D73"/>
            <stop offset="1" stop-color="#5032AD"/>
        </linearGradient>
        <linearGradient id="paint36_linear_2329_150485" x1="72.1978" y1="25.2132" x2="72.5075" y2="146.53" gradientUnits="userSpaceOnUse">
            <stop stop-color="#6B24C7"/>
            <stop offset="0.51" stop-color="#C741D1"/>
            <stop offset="1" stop-color="#F768CA"/>
        </linearGradient>
        <linearGradient id="paint37_linear_2329_150485" x1="155.432" y1="148.469" x2="157.843" y2="114.906" gradientUnits="userSpaceOnUse">
            <stop stop-color="white"/>
            <stop offset="0.44" stop-color="#881DED"/>
            <stop offset="1" stop-color="#262262"/>
        </linearGradient>
        <radialGradient id="paint38_radial_2329_150485" cx="0" cy="0" r="1" gradientUnits="userSpaceOnUse" gradientTransform="translate(70.1711 90.2875) scale(26.0502 26.0667)">
            <stop stop-color="#882785"/>
            <stop offset="0.15" stop-color="#7A2377"/>
            <stop offset="0.44" stop-color="#561854"/>
            <stop offset="0.82" stop-color="#1D081C"/>
            <stop offset="1"/>
        </radialGradient>
        <radialGradient id="paint39_radial_2329_150485" cx="0" cy="0" r="1" gradientUnits="userSpaceOnUse" gradientTransform="translate(102.095 105.513) scale(26.0502 26.0667)">
            <stop stop-color="#27A0D7"/>
            <stop offset="0.1" stop-color="#2495C9"/>
            <stop offset="0.3" stop-color="#1E7BA5"/>
            <stop offset="0.57" stop-color="#13506B"/>
            <stop offset="0.89" stop-color="#05151C"/>
            <stop offset="1"/>
        </radialGradient>
        <linearGradient id="paint40_linear_2329_150485" x1="114.227" y1="105.917" x2="121.454" y2="97.7931" gradientUnits="userSpaceOnUse">
            <stop stop-color="white"/>
            <stop offset="0.44" stop-color="#881DED"/>
            <stop offset="1" stop-color="#262262"/>
        </linearGradient>
        <linearGradient id="paint41_linear_2329_150485" x1="113.436" y1="113.807" x2="137.868" y2="113.347" gradientUnits="userSpaceOnUse">
            <stop stop-color="#E07BD8"/>
            <stop offset="0.11" stop-color="#BE73D7"/>
            <stop offset="0.29" stop-color="#8E67D6"/>
            <stop offset="0.42" stop-color="#7060D6"/>
            <stop offset="0.5" stop-color="#655ED6"/>
            <stop offset="0.57" stop-color="#6F60D6"/>
            <stop offset="0.69" stop-color="#8C67D6"/>
            <stop offset="0.84" stop-color="#BA72D7"/>
            <stop offset="1" stop-color="#F07FD8"/>
        </linearGradient>
        <linearGradient id="paint42_linear_2329_150485" x1="114.215" y1="113.765" x2="131.829" y2="113.433" gradientUnits="userSpaceOnUse">
            <stop stop-color="#6544CF"/>
            <stop offset="0.49" stop-color="#993EC7"/>
            <stop offset="1" stop-color="#662D87"/>
        </linearGradient>
        <linearGradient id="paint43_linear_2329_150485" x1="112.992" y1="113.747" x2="125.618" y2="113.509" gradientUnits="userSpaceOnUse">
            <stop stop-color="#351E52"/>
            <stop offset="1" stop-color="#24289E"/>
        </linearGradient>
        <linearGradient id="paint44_linear_2329_150485" x1="127.505" y1="103.838" x2="127.868" y2="123.087" gradientUnits="userSpaceOnUse">
            <stop stop-color="#FFBB00"/>
            <stop offset="0.53" stop-color="#FF5319"/>
            <stop offset="1" stop-color="#FF4000"/>
        </linearGradient>
        <linearGradient id="paint45_linear_2329_150485" x1="118.947" y1="113.634" x2="130.053" y2="113.425" gradientUnits="userSpaceOnUse">
            <stop stop-color="#8B2788"/>
            <stop offset="1" stop-color="white"/>
        </linearGradient>
        <radialGradient id="paint46_radial_2329_150485" cx="0" cy="0" r="1" gradientUnits="userSpaceOnUse" gradientTransform="translate(129.195 112.748) rotate(88.9207) scale(7.17999 6.96646)">
            <stop stop-color="#00FFFF"/>
            <stop offset="0.19" stop-color="#00FCFC"/>
            <stop offset="0.32" stop-color="#00F2F2"/>
            <stop offset="0.44" stop-color="#00E3E3"/>
            <stop offset="0.54" stop-color="#00CDCD"/>
            <stop offset="0.64" stop-color="#00B0B0"/>
            <stop offset="0.74" stop-color="#008D8D"/>
            <stop offset="0.83" stop-color="#006363"/>
            <stop offset="0.92" stop-color="#003434"/>
            <stop offset="1"/>
        </radialGradient>
        <linearGradient id="paint47_linear_2329_150485" x1="135.663" y1="89.8448" x2="138.262" y2="91.1212" gradientUnits="userSpaceOnUse">
            <stop stop-color="white"/>
            <stop offset="1" stop-color="#FFF7C4"/>
        </linearGradient>
        <linearGradient id="paint48_linear_2329_150485" x1="120.087" y1="99.8467" x2="120.609" y2="127.508" gradientUnits="userSpaceOnUse">
            <stop stop-color="#6544CF"/>
            <stop offset="0.49" stop-color="#993EC7"/>
            <stop offset="1" stop-color="#662D87"/>
        </linearGradient>
        <linearGradient id="paint49_linear_2329_150485" x1="135.105" y1="120.331" x2="135.214" y2="126.11" gradientUnits="userSpaceOnUse">
            <stop stop-color="#EBBD38"/>
            <stop offset="1" stop-color="#FFF29E"/>
        </linearGradient>
        <radialGradient id="paint50_radial_2329_150485" cx="0" cy="0" r="1" gradientUnits="userSpaceOnUse" gradientTransform="translate(129.33 91.06) scale(21.4508 21.4643)">
            <stop offset="0.1" stop-color="#EFE332"/>
            <stop offset="0.17" stop-color="#D6CB2C"/>
            <stop offset="0.48" stop-color="#7B7519"/>
            <stop offset="0.73" stop-color="#39360B"/>
            <stop offset="0.91" stop-color="#0F0E03"/>
            <stop offset="1"/>
        </radialGradient>
        <linearGradient id="paint51_linear_2329_150485" x1="72.78" y1="91.3298" x2="93.1488" y2="91.0799" gradientUnits="userSpaceOnUse">
            <stop stop-color="#655ED6"/>
            <stop offset="1" stop-color="#C88FF0"/>
        </linearGradient>
        <linearGradient id="paint52_linear_2329_150485" x1="84.5269" y1="79.7707" x2="75.6986" y2="88.8244" gradientUnits="userSpaceOnUse">
            <stop stop-color="white"/>
            <stop offset="0.44" stop-color="#ED8A1D"/>
            <stop offset="1" stop-color="#B41E2D"/>
        </linearGradient>
        <linearGradient id="paint53_linear_2329_150485" x1="89.5181" y1="91.5231" x2="79.9848" y2="91.7111" gradientUnits="userSpaceOnUse">
            <stop stop-color="#655ED6"/>
            <stop offset="1" stop-color="#C88FF0"/>
        </linearGradient>
        <linearGradient id="paint54_linear_2329_150485" x1="84.9008" y1="91.5573" x2="69.5437" y2="91.7794" gradientUnits="userSpaceOnUse">
            <stop stop-color="#C7C8FF"/>
            <stop offset="1" stop-color="#D8D4FF"/>
        </linearGradient>
        <linearGradient id="paint55_linear_2329_150485" x1="86.433" y1="85.349" x2="86.6765" y2="97.6869" gradientUnits="userSpaceOnUse">
            <stop stop-color="#705AB5"/>
            <stop offset="1" stop-color="#662D87"/>
        </linearGradient>
        <linearGradient id="paint56_linear_2329_150485" x1="78.5164" y1="132.43" x2="80.4386" y2="130.626" gradientUnits="userSpaceOnUse">
            <stop stop-color="#F9B233"/>
            <stop offset="1" stop-color="#FFFB00"/>
        </linearGradient>
        <linearGradient id="paint57_linear_2329_150485" x1="80.3025" y1="131.774" x2="77.5092" y2="135.345" gradientUnits="userSpaceOnUse">
            <stop stop-color="#FFBB00"/>
            <stop offset="1" stop-color="#FF5319"/>
        </linearGradient>
        <linearGradient id="paint58_linear_2329_150485" x1="79.7354" y1="131.046" x2="82.5478" y2="135.499" gradientUnits="userSpaceOnUse">
            <stop stop-color="#FFBB00"/>
            <stop offset="1" stop-color="#FF5319"/>
        </linearGradient>
        <linearGradient id="paint59_linear_2329_150485" x1="78.4511" y1="129.673" x2="77.3029" y2="128.456" gradientUnits="userSpaceOnUse">
            <stop stop-color="#FFBB00"/>
            <stop offset="1" stop-color="#FF5319"/>
        </linearGradient>
        <linearGradient id="paint60_linear_2329_150485" x1="82.8144" y1="128.129" x2="80.8457" y2="131.287" gradientUnits="userSpaceOnUse">
            <stop stop-color="#FFBB00"/>
            <stop offset="1" stop-color="#FF5319"/>
        </linearGradient>
        <linearGradient id="paint61_linear_2329_150485" x1="87.6335" y1="86.2882" x2="87.647" y2="86.2877" gradientUnits="userSpaceOnUse">
            <stop stop-color="white"/>
            <stop offset="1" stop-color="#FFF7C4"/>
        </linearGradient>
        <linearGradient id="paint62_linear_2329_150485" x1="83.261" y1="91.4176" x2="83.2745" y2="91.4174" gradientUnits="userSpaceOnUse">
            <stop stop-color="white"/>
            <stop offset="1" stop-color="#FFF7C4"/>
        </linearGradient>
        <linearGradient id="paint63_linear_2329_150485" x1="64.9492" y1="90.4942" x2="84.571" y2="90.4942" gradientUnits="userSpaceOnUse">
            <stop stop-color="white"/>
            <stop offset="0.44" stop-color="#881DED"/>
            <stop offset="1" stop-color="#262262"/>
        </linearGradient>
        <linearGradient id="paint64_linear_2329_150485" x1="146.618" y1="87.2737" x2="164.374" y2="87.5776" gradientUnits="userSpaceOnUse">
            <stop stop-color="#655ED6"/>
            <stop offset="1" stop-color="#C88FF0"/>
        </linearGradient>
        <linearGradient id="paint65_linear_2329_150485" x1="156.712" y1="77.9468" x2="148.692" y2="85.6949" gradientUnits="userSpaceOnUse">
            <stop stop-color="white"/>
            <stop offset="0.44" stop-color="#ED8A1D"/>
            <stop offset="1" stop-color="#B41E2D"/>
        </linearGradient>
        <linearGradient id="paint66_linear_2329_150485" x1="160.221" y1="88.3067" x2="151.91" y2="88.2255" gradientUnits="userSpaceOnUse">
            <stop stop-color="#655ED6"/>
            <stop offset="1" stop-color="#C88FF0"/>
        </linearGradient>
        <linearGradient id="paint67_linear_2329_150485" x1="156.259" y1="88.214" x2="143.04" y2="88.0177" gradientUnits="userSpaceOnUse">
            <stop stop-color="#C7C8FF"/>
            <stop offset="1" stop-color="#D8D4FF"/>
        </linearGradient>
        <linearGradient id="paint68_linear_2329_150485" x1="157.698" y1="82.7101" x2="157.59" y2="93.731" gradientUnits="userSpaceOnUse">
            <stop stop-color="#705AB5"/>
            <stop offset="1" stop-color="#662D87"/>
        </linearGradient>
        <linearGradient id="paint69_linear_2329_150485" x1="148.124" y1="128.38" x2="149.878" y2="126.836" gradientUnits="userSpaceOnUse">
            <stop stop-color="#F9B233"/>
            <stop offset="1" stop-color="#FFFB00"/>
        </linearGradient>
        <linearGradient id="paint70_linear_2329_150485" x1="149.763" y1="127.852" x2="147.153" y2="131.009" gradientUnits="userSpaceOnUse">
            <stop stop-color="#FFBB00"/>
            <stop offset="1" stop-color="#FF5319"/>
        </linearGradient>
        <linearGradient id="paint71_linear_2329_150485" x1="149.156" y1="127.185" x2="151.575" y2="131.274" gradientUnits="userSpaceOnUse">
            <stop stop-color="#FFBB00"/>
            <stop offset="1" stop-color="#FF5319"/>
        </linearGradient>
        <linearGradient id="paint72_linear_2329_150485" x1="148.156" y1="125.925" x2="147.147" y2="124.781" gradientUnits="userSpaceOnUse">
            <stop stop-color="#FFBB00"/>
            <stop offset="1" stop-color="#FF5319"/>
        </linearGradient>
        <linearGradient id="paint73_linear_2329_150485" x1="152.022" y1="124.653" x2="150.164" y2="127.45" gradientUnits="userSpaceOnUse">
            <stop stop-color="#FFBB00"/>
            <stop offset="1" stop-color="#FF5319"/>
        </linearGradient>
        <linearGradient id="paint74_linear_2329_150485" x1="159.15" y1="83.7476" x2="159.163" y2="83.7476" gradientUnits="userSpaceOnUse">
            <stop stop-color="white"/>
            <stop offset="1" stop-color="#FFF7C4"/>
        </linearGradient>
        <linearGradient id="paint75_linear_2329_150485" x1="154.789" y1="88.0645" x2="154.802" y2="88.0647" gradientUnits="userSpaceOnUse">
            <stop stop-color="white"/>
            <stop offset="1" stop-color="#FFF7C4"/>
        </linearGradient>
        <linearGradient id="paint76_linear_2329_150485" x1="141.347" y1="86.9946" x2="156.322" y2="87.4336" gradientUnits="userSpaceOnUse">
            <stop stop-color="white"/>
            <stop offset="0.44" stop-color="#881DED"/>
            <stop offset="1" stop-color="#262262"/>
        </linearGradient>
    </defs>
</svg>
