<svg width="33" height="32" viewBox="0 0 33 32" fill="none" xmlns="http://www.w3.org/2000/svg">
<g clip-path="url(#clip0_710_13368)">
<rect x="0.332031" width="32" height="32" rx="8" fill="#131129"/>
<g filter="url(#filter0_f_710_13368)">
<circle cx="16.332" cy="16" r="10" fill="#CAFB01"/>
</g>
<path d="M23.4603 8.75244L18.4607 11.1968C15.6875 12.5535 14.0618 14.3322 13.6293 16.489C13.0144 19.5453 15.2892 22.9732 16.0133 23.269C16.1145 23.3112 16.2233 23.3331 16.3333 23.3334C21.9013 23.3334 25.4993 20.4555 25.4993 16.0001C25.4993 10.5483 24.7494 9.22258 24.4219 8.90562C24.2983 8.78466 24.139 8.70478 23.9664 8.67729C23.7938 8.6498 23.6168 8.67609 23.4603 8.75244ZM17.1274 21.6752C17.1187 20.2629 17.547 18.8811 18.356 17.7111C19.165 16.5411 20.3169 15.6376 21.6604 15.1193C21.7625 15.0782 21.8553 15.0176 21.9332 14.9411C22.0112 14.8647 22.0728 14.7738 22.1145 14.6738C22.1563 14.5739 22.1773 14.4668 22.1763 14.3588C22.1753 14.2508 22.1524 14.1441 22.1089 14.0449C22.0654 13.9456 22.0021 13.8558 21.9228 13.7807C21.8435 13.7056 21.7497 13.6466 21.6469 13.6072C21.5441 13.5679 21.4343 13.5489 21.3239 13.5513C21.2135 13.5538 21.1047 13.5777 21.0038 13.6217C19.6498 14.1402 18.4515 14.9846 17.5203 16.0767C16.589 17.1688 15.9549 18.4731 15.6767 19.8688C15.2326 18.905 15.0894 17.8344 15.265 16.7913C15.5983 15.1617 16.9224 13.7716 19.2048 12.6553L23.3962 10.6061C23.7511 12.3824 23.8978 14.1913 23.8328 16.0001C23.8328 19.3107 21.283 21.4349 17.1282 21.6752H17.1274ZM9.26961 10.6061C8.91505 12.3821 8.76883 14.1918 8.8338 16.0001C8.80647 17.1134 9.14513 18.2059 9.79999 19.117C10.4549 20.0281 11.3914 20.7097 12.4719 21.0617C12.5753 21.0997 12.6699 21.1575 12.7502 21.2316C12.8305 21.3058 12.895 21.3948 12.9398 21.4935C12.9846 21.5922 13.0089 21.6986 13.0113 21.8066C13.0137 21.9146 12.9941 22.022 12.9537 22.1225C12.9133 22.223 12.8528 22.3146 12.7758 22.3921C12.6988 22.4695 12.6069 22.5312 12.5053 22.5736C12.4037 22.616 12.2945 22.6382 12.1841 22.639C12.0736 22.6398 11.9641 22.619 11.8619 22.578C10.4695 22.1065 9.26546 21.2162 8.42215 20.0346C7.57885 18.853 7.13958 17.4407 7.16725 16.0001C7.16725 10.5483 7.9172 9.22258 8.24467 8.90562C8.36825 8.78466 8.52762 8.70478 8.7002 8.67729C8.87277 8.6498 9.04982 8.67609 9.20628 8.75244L14.2059 11.1968C14.3071 11.2429 14.3978 11.3083 14.4727 11.3892C14.5476 11.4701 14.6052 11.5649 14.642 11.6679C14.6789 11.7709 14.6942 11.8801 14.6872 11.989C14.6802 12.0979 14.651 12.2044 14.6012 12.302C14.5515 12.3997 14.4822 12.4867 14.3975 12.5578C14.3129 12.6289 14.2145 12.6826 14.1082 12.716C14.0019 12.7493 13.8899 12.7614 13.7788 12.7517C13.6676 12.742 13.5595 12.7106 13.461 12.6594L9.26961 10.6061Z" fill="#CAFB01"/>
</g>
<defs>
<filter id="filter0_f_710_13368" x="-28.668" y="-29" width="90" height="90" filterUnits="userSpaceOnUse" color-interpolation-filters="sRGB">
<feFlood flood-opacity="0" result="BackgroundImageFix"/>
<feBlend mode="normal" in="SourceGraphic" in2="BackgroundImageFix" result="shape"/>
<feGaussianBlur stdDeviation="17.5" result="effect1_foregroundBlur_710_13368"/>
</filter>
<clipPath id="clip0_710_13368">
<rect x="0.332031" width="32" height="32" rx="8" fill="white"/>
</clipPath>
</defs>
</svg>
