<svg width="33" height="32" viewBox="0 0 33 32" fill="none" xmlns="http://www.w3.org/2000/svg">
<g clip-path="url(#clip0_710_24396)">
<rect x="0.666016" width="32" height="32" rx="8" fill="#131129"/>
<g filter="url(#filter0_f_710_24396)">
<circle cx="16.666" cy="16" r="10" fill="#CAFB01"/>
</g>
<path d="M12.9999 23.3334C12.4957 23.3334 12.064 23.1537 11.7046 22.7944C11.3453 22.435 11.1659 22.0036 11.1665 21.5V19.6667C11.1665 19.407 11.2545 19.1891 11.4305 19.0131C11.6065 18.8371 11.8241 18.7494 12.0832 18.75H13.9165V16.6875C13.4582 16.657 13.0035 16.5613 12.5525 16.4006C12.1015 16.2399 11.7083 15.9994 11.3728 15.6792C11.2811 15.5875 11.2087 15.4842 11.1555 15.3694C11.1024 15.2545 11.0755 15.1362 11.0749 15.0146V14.3959H10.4103C10.2881 14.3959 10.1698 14.3729 10.0555 14.3271C9.94126 14.2813 9.83798 14.2125 9.7457 14.1209L7.6832 12.0584C7.49987 11.875 7.4082 11.6611 7.4082 11.4167C7.4082 11.1722 7.49987 10.9584 7.6832 10.775C8.12626 10.332 8.72209 10.0075 9.4707 9.80152C10.2193 9.59558 10.9068 9.4923 11.5332 9.49169C11.9457 9.49169 12.3469 9.52224 12.7368 9.58335C13.1267 9.64446 13.5199 9.75905 13.9165 9.9271C13.9165 9.57571 14.0388 9.2778 14.2832 9.03335C14.5276 8.78891 14.8256 8.66669 15.177 8.66669H23.0832C23.5874 8.66669 24.0191 8.84635 24.3785 9.20569C24.7378 9.56502 24.9171 9.99646 24.9165 10.5V20.5834C24.9165 21.3472 24.6492 21.9965 24.1145 22.5313C23.5797 23.066 22.9304 23.3334 22.1665 23.3334H12.9999ZM15.7499 18.75H20.3332C20.5929 18.75 20.8108 18.838 20.9868 19.014C21.1628 19.19 21.2505 19.4076 21.2499 19.6667V20.5834C21.2499 20.8431 21.3379 21.0609 21.5139 21.2369C21.6899 21.4129 21.9074 21.5006 22.1665 21.5C22.4263 21.5 22.6441 21.412 22.8201 21.236C22.9961 21.06 23.0838 20.8425 23.0832 20.5834V10.5H15.7499V11.05L20.9978 16.2979C21.1353 16.4354 21.2193 16.5922 21.2499 16.7682C21.2804 16.9442 21.2575 17.1159 21.1811 17.2834C21.1047 17.4514 20.9978 17.5849 20.8603 17.6839C20.7228 17.7829 20.5471 17.8327 20.3332 17.8334C20.211 17.8334 20.0924 17.8065 19.9775 17.7527C19.8626 17.6989 19.7673 17.6341 19.6915 17.5584L17.354 15.2209L17.1707 15.4042C16.9568 15.6181 16.7313 15.809 16.4942 15.9771C16.2571 16.1452 16.009 16.275 15.7499 16.3667V18.75ZM10.7999 12.5625H11.9915C12.2513 12.5625 12.4691 12.6505 12.6451 12.8265C12.8211 13.0025 12.9088 13.2201 12.9082 13.4792V14.5334C13.0915 14.6556 13.2825 14.7396 13.4811 14.7854C13.6797 14.8313 13.886 14.8542 14.0999 14.8542C14.4513 14.8542 14.7684 14.8007 15.0514 14.6938C15.3343 14.5868 15.613 14.3959 15.8874 14.1209L16.0707 13.9375L14.7874 12.6542C14.3443 12.2111 13.8478 11.8787 13.2978 11.6569C12.7478 11.435 12.1596 11.3244 11.5332 11.325C11.2276 11.325 10.9374 11.3479 10.6624 11.3938C10.3874 11.4396 10.1124 11.5084 9.83737 11.6L10.7999 12.5625ZM19.4165 20.5834H12.9999V21.5H19.554C19.5082 21.3625 19.4737 21.2174 19.4505 21.0646C19.4272 20.9118 19.4159 20.7514 19.4165 20.5834Z" fill="#CAFB01"/>
</g>
<defs>
<filter id="filter0_f_710_24396" x="-28.334" y="-29" width="90" height="90" filterUnits="userSpaceOnUse" color-interpolation-filters="sRGB">
<feFlood flood-opacity="0" result="BackgroundImageFix"/>
<feBlend mode="normal" in="SourceGraphic" in2="BackgroundImageFix" result="shape"/>
<feGaussianBlur stdDeviation="17.5" result="effect1_foregroundBlur_710_24396"/>
</filter>
<clipPath id="clip0_710_24396">
<rect x="0.666016" width="32" height="32" rx="8" fill="white"/>
</clipPath>
</defs>
</svg>
