<svg width="32" height="42" viewBox="0 0 32 42" fill="none" xmlns="http://www.w3.org/2000/svg">
<path d="M5.20001 14.6V12.7714C5.20001 6.69361 10.0171 1.8 16 1.8C21.9829 1.8 26.8 6.69361 26.8 12.7714V14.6M5.20001 14.6C3.22001 14.6 1.60001 16.2457 1.60001 18.2571V36.5429C1.60001 38.5543 3.22001 40.2 5.20001 40.2H26.8C28.78 40.2 30.4 38.5543 30.4 36.5429V18.2571C30.4 16.2457 28.78 14.6 26.8 14.6M5.20001 14.6H26.8M16 23.7429C17.98 23.7429 19.6 25.3886 19.6 27.4C19.6 29.4114 17.98 31.0571 16 31.0571C14.02 31.0571 12.4 29.4114 12.4 27.4C12.4 25.3886 14.02 23.7429 16 23.7429Z" stroke="#CAFB01" stroke-width="3"/>
</svg>
