<svg width="100" height="100" viewBox="0 0 32 32" fill="none" xmlns="http://www.w3.org/2000/svg">
    <path d="M30.3275 14.7325C25.9809 10.1541 21.6333 5.57581 17.285 0.997477C16.58 0.247477 15.8275 0.0624791 14.8625 0.437479C12.57 1.33748 10.2625 2.19998 7.95503 3.06248C7.62501 3.17425 7.32648 3.36324 7.08427 3.61372C6.84206 3.86419 6.66316 4.1689 6.56251 4.50248C4.50918 10.5825 2.44751 16.6575 0.377512 22.7275C0.231295 23.0867 0.200901 23.4827 0.290537 23.86C0.380172 24.2374 0.585364 24.5774 0.877512 24.8325C2.94251 26.8991 4.99752 28.9741 7.04252 31.0575C7.26198 31.2952 7.53013 31.4828 7.82868 31.6075C8.12724 31.7322 8.44918 31.791 8.77253 31.78C10.97 31.7625 13.1675 31.78 15.365 31.78C17.5625 31.78 19.71 31.765 21.8825 31.78C23.03 31.78 23.8025 31.3 24.3225 30.28C26.4575 26.0625 28.6175 21.86 30.7675 17.65C31.355 16.4875 31.24 15.685 30.3275 14.7325ZM23.945 19.675C23.14 21.105 22.375 22.5575 21.6175 24.015C21.5188 24.2413 21.3552 24.4334 21.1474 24.5669C20.9396 24.7003 20.6969 24.7693 20.45 24.765C17.8375 24.9325 15.225 25.145 12.45 25.355C11.7275 25.5625 11.265 25.105 10.855 24.355C9.72002 22.2825 8.52753 20.2425 7.33003 18.205C7.17587 17.9809 7.09085 17.7164 7.08552 17.4445C7.08019 17.1725 7.15477 16.905 7.30003 16.675C8.75669 14.0433 10.1967 11.4008 11.62 8.74748C11.7217 8.52134 11.8828 8.32703 12.0862 8.18527C12.2896 8.0435 12.5277 7.95959 12.775 7.94248C13.715 7.84498 14.6525 7.69249 15.5875 7.53999C15.8652 7.47308 16.1572 7.49952 16.4184 7.6152C16.6796 7.73088 16.8954 7.92937 17.0325 8.17999C19.2975 11.5483 21.5817 14.9033 23.885 18.245C24.0499 18.4437 24.1457 18.6907 24.1578 18.9487C24.17 19.2067 24.098 19.4616 23.9525 19.675H23.945Z" fill="#CAFB01"/>
</svg>
