<svg width="160" height="32" viewBox="0 0 160 32" fill="none" xmlns="http://www.w3.org/2000/svg">
<g clip-path="url(#clip0_810_12333)">
<path d="M30.3276 14.7325C25.981 10.1542 21.6335 5.57587 17.2851 0.997538C16.5801 0.247538 15.8277 0.0625401 14.8626 0.43754C12.5702 1.33754 10.2626 2.20004 7.95515 3.06254C7.62513 3.17432 7.3266 3.36331 7.08439 3.61378C6.84218 3.86425 6.66328 4.16897 6.56263 4.50254C4.5093 10.5825 2.44763 16.6575 0.377634 22.7275C0.231418 23.0868 0.201024 23.4827 0.290659 23.8601C0.380294 24.2374 0.585486 24.5774 0.877634 24.8325C2.94263 26.8992 4.99764 28.9742 7.04264 31.0575C7.2621 31.2953 7.53025 31.4829 7.82881 31.6076C8.12736 31.7323 8.4493 31.7911 8.77265 31.78C10.9702 31.7625 13.1677 31.78 15.3652 31.78C17.5627 31.78 19.7101 31.765 21.8826 31.78C23.0301 31.78 23.8026 31.3 24.3226 30.28C26.4576 26.0625 28.6176 21.86 30.7676 17.65C31.3551 16.4875 31.2401 15.685 30.3276 14.7325ZM23.9451 19.675C23.1401 21.105 22.3752 22.5575 21.6177 24.015C21.5189 24.2414 21.3553 24.4334 21.1475 24.5669C20.9397 24.7004 20.6971 24.7693 20.4501 24.765C17.8376 24.9325 15.2251 25.145 12.4501 25.355C11.7276 25.5625 11.2651 25.105 10.8551 24.355C9.72014 22.2825 8.52765 20.2425 7.33015 18.205C7.17599 17.9809 7.09097 17.7165 7.08564 17.4445C7.08031 17.1726 7.1549 16.905 7.30015 16.675C8.75682 14.0434 10.1968 11.4009 11.6202 8.74754C11.7218 8.5214 11.8829 8.32709 12.0863 8.18533C12.2897 8.04356 12.5278 7.95965 12.7752 7.94254C13.7152 7.84504 14.6527 7.69255 15.5877 7.54005C15.8654 7.47315 16.1574 7.49958 16.4186 7.61526C16.6797 7.73094 16.8956 7.92943 17.0326 8.18005C19.2976 11.5484 21.5818 14.9034 23.8851 18.245C24.05 18.4438 24.1458 18.6908 24.158 18.9488C24.1701 19.2067 24.0981 19.4616 23.9526 19.675H23.9451Z" fill="#CAFB01"/>
<path d="M108.552 29.99C106.105 25.74 103.667 21.49 101.19 17.2625C100.872 16.7225 100.94 16.44 101.342 16.0125C103.592 13.5625 105.782 11.0825 107.99 8.60751C108.195 8.37751 108.512 8.17251 108.34 7.78001C108.167 7.38751 107.802 7.48001 107.492 7.48001C100.655 7.48001 93.8149 7.48002 86.9774 7.46252C86.4099 7.46252 86.2724 7.61001 86.2749 8.17001C86.3024 11.92 86.2899 15.65 86.2899 19.39C86.2899 23.13 86.3049 26.82 86.2749 30.535C86.2749 31.155 86.3674 31.375 87.0699 31.3725C93.9599 31.34 100.847 31.3525 107.737 31.3525C108.96 31.345 109.152 31.0175 108.552 29.99ZM91.1649 19.725C91.1649 17.225 91.1649 14.7475 91.1649 12.2575C91.1649 11.87 91.2124 11.69 91.6649 11.695C94.2049 11.7175 96.7474 11.695 99.4724 11.695L91.3274 20.11C91.0949 20.0325 91.1649 19.8575 91.1649 19.725ZM92.1974 26.3725C92.2124 26.3125 92.1974 26.235 92.2424 26.1925C93.8858 24.3592 95.5324 22.5209 97.1824 20.6775C97.3249 20.5175 97.4524 20.1775 97.7174 20.6025C98.9274 22.5075 100.15 24.405 101.412 26.3725H92.1974Z" fill="white"/>
<path d="M70.6125 24.6525L74.04 19.875C77.04 15.7084 80.0342 11.5367 83.0225 7.36002C83.215 7.09002 83.355 6.66003 83.7975 6.79003C84.24 6.92003 84.1375 7.34502 84.1375 7.68502C84.1375 15.3434 84.1425 23.0025 84.1525 30.6625C84.1525 31.225 84.015 31.3825 83.4525 31.36C82.305 31.3125 81.155 31.3175 80.0075 31.36C79.4825 31.3775 79.345 31.235 79.35 30.7075C79.375 27.34 79.35 23.9725 79.35 20.605V19.9825C78.38 21.3625 77.525 22.5725 76.675 23.785L71.8 30.7675C71.6671 30.9635 71.4882 31.1239 71.2791 31.2347C71.0699 31.3456 70.8367 31.4036 70.6 31.4036C70.3632 31.4036 70.1301 31.3456 69.9209 31.2347C69.7117 31.1239 69.5329 30.9635 69.4 30.7675C66.925 27.2375 64.4458 23.6975 61.9625 20.1475C61.7375 20.335 61.8425 20.5675 61.8425 20.76C61.8425 24.0525 61.8175 27.3475 61.8425 30.64C61.8425 31.25 61.66 31.39 61.0925 31.355C59.97 31.3125 58.8425 31.3225 57.7225 31.355C57.2225 31.37 57.0325 31.28 57.035 30.72C57.055 23.01 57.055 15.3009 57.035 7.59252C57.035 7.26752 56.9925 6.89502 57.395 6.78252C57.76 6.68252 57.895 7.01252 58.0775 7.25252C62.0875 12.8442 66.0975 18.435 70.1075 24.025C70.2775 24.2225 70.43 24.4125 70.6125 24.6525Z" fill="white"/>
<path d="M159.378 30.53C156.033 27.4983 152.68 24.4725 149.32 21.4525C148.913 21.0875 148.915 20.9275 149.36 20.61C151.288 19.235 153.188 17.82 155.11 16.4275C155.53 16.125 155.903 15.82 155.818 15.2225C155.733 14.625 155.295 14.4725 154.855 14.29L137.305 6.9275C136.183 6.4575 135.708 6.7675 135.708 7.97C135.708 11.7383 135.708 15.505 135.708 19.27C135.708 23.085 135.708 26.9 135.708 30.7175C135.708 31.1675 135.768 31.3725 136.298 31.3575C137.695 31.315 139.095 31.3175 140.493 31.3575C141.013 31.3725 141.108 31.1875 141.1 30.7175C141.075 29.1225 141.1 27.525 141.083 25.93C141.06 25.7613 141.095 25.59 141.183 25.4442C141.271 25.2984 141.405 25.1867 141.565 25.1275C142.222 24.8279 142.858 24.4838 143.468 24.0975C144.025 23.7375 144.395 23.755 144.918 24.2425C147.325 26.4925 149.795 28.67 152.23 30.8875C152.387 31.0431 152.574 31.165 152.78 31.2458C152.986 31.3266 153.206 31.3646 153.428 31.3575C155.325 31.335 157.223 31.3575 159.12 31.34C159.37 31.34 159.73 31.505 159.84 31.155C159.95 30.805 159.578 30.7025 159.378 30.53ZM141.128 19.8725V13.6225L147.47 16.1875L141.128 19.8725Z" fill="white"/>
<path d="M118.272 24.5175L128.327 19.2175C129.395 18.6575 129.74 18.79 130.165 19.9225C131.51 23.5075 132.845 27.095 134.21 30.6725C134.422 31.23 134.352 31.38 133.727 31.36C132.33 31.315 130.93 31.3225 129.532 31.36C129.032 31.36 128.782 31.2475 128.63 30.7475C128.15 29.3075 127.58 27.9025 127.09 26.4675C126.935 26.0125 126.79 25.9675 126.372 26.1825C123.017 27.8175 119.645 29.4325 116.287 31.0525C115.89 31.2562 115.449 31.36 115.002 31.355C113.855 31.335 112.705 31.355 111.557 31.355C110.455 31.355 110.26 31.0775 110.642 30.055C113.272 23.0217 115.906 15.9909 118.542 8.96253C119.192 7.23753 118.757 7.50752 120.682 7.48752C121.555 7.48752 122.432 7.48752 123.302 7.48752C124.172 7.48752 124.327 7.68252 124.027 8.52002C122.211 13.565 120.394 18.6142 118.577 23.6675C118.485 23.895 118.407 24.1275 118.272 24.5175Z" fill="white"/>
<path d="M39.6251 24.5175L42.7551 22.875C45.1118 21.6367 47.4693 20.3983 49.8276 19.16C50.6951 18.705 51.1051 18.8475 51.4401 19.74C52.8201 23.4175 54.1901 27.1 55.5751 30.7725C55.7426 31.2125 55.7451 31.38 55.1976 31.3675C53.6976 31.3392 52.1976 31.3392 50.6976 31.3675C50.5406 31.3893 50.3812 31.3494 50.253 31.2562C50.1248 31.1629 50.0377 31.0236 50.0101 30.8675C49.5101 29.4375 48.9601 28.0225 48.4826 26.585C48.3051 26.05 48.1326 25.97 47.6126 26.2225C44.2851 27.855 40.9376 29.445 37.6126 31.065C37.2386 31.2607 36.8222 31.3611 36.4001 31.3575C35.2276 31.3375 34.0551 31.3575 32.8801 31.3575C31.8076 31.3575 31.6151 31.065 32.0026 30.0225C33.7709 25.2942 35.5393 20.5683 37.3076 15.845C38.2576 13.3075 39.2176 10.775 40.1476 8.22999C40.3476 7.67749 40.6476 7.44749 41.2401 7.47999C42.3626 7.52749 43.4901 7.47999 44.6101 7.49499C45.5451 7.49499 45.6776 7.685 45.3601 8.5675C43.5351 13.6392 41.7067 18.7133 39.8751 23.79C39.8001 23.97 39.7351 24.175 39.6251 24.5175Z" fill="white"/>
</g>
<defs>
<clipPath id="clip0_810_12333">
<rect width="160" height="32" fill="white"/>
</clipPath>
</defs>
</svg>
