<svg width="32" height="32" viewBox="0 0 32 32" fill="none" xmlns="http://www.w3.org/2000/svg">
<g clip-path="url(#clip0_710_7040)">
<rect width="32" height="32" rx="8" fill="#131129"/>
<g filter="url(#filter0_f_710_7040)">
<circle cx="16" cy="16" r="10" fill="#CAFB01"/>
</g>
<path d="M23.3327 24.25V22.4167C23.3327 21.4442 22.9464 20.5116 22.2587 19.8239C21.5711 19.1363 20.6385 18.75 19.666 18.75H12.3327C11.3602 18.75 10.4276 19.1363 9.73996 19.8239C9.05232 20.5116 8.66602 21.4442 8.66602 22.4167V24.25M19.666 11.4167C19.666 13.4417 18.0244 15.0833 15.9993 15.0833C13.9743 15.0833 12.3327 13.4417 12.3327 11.4167C12.3327 9.39162 13.9743 7.75 15.9993 7.75C18.0244 7.75 19.666 9.39162 19.666 11.4167Z" stroke="#CAFB01" stroke-width="2" stroke-linecap="round" stroke-linejoin="round"/>
</g>
<defs>
<filter id="filter0_f_710_7040" x="-29" y="-29" width="90" height="90" filterUnits="userSpaceOnUse" color-interpolation-filters="sRGB">
<feFlood flood-opacity="0" result="BackgroundImageFix"/>
<feBlend mode="normal" in="SourceGraphic" in2="BackgroundImageFix" result="shape"/>
<feGaussianBlur stdDeviation="17.5" result="effect1_foregroundBlur_710_7040"/>
</filter>
<clipPath id="clip0_710_7040">
<rect width="32" height="32" rx="8" fill="white"/>
</clipPath>
</defs>
</svg>
