<svg width="24" height="24" viewBox="0 0 24 24" fill="none" xmlns="http://www.w3.org/2000/svg">
<path d="M3.24862 2.24994C2.42319 1.85566 1.51634 2.60994 1.75205 3.49366L3.48005 9.95051C3.52336 10.1128 3.61338 10.2588 3.73895 10.3703C3.86452 10.4819 4.02009 10.5541 4.18634 10.5779L12.6583 11.7882C12.9035 11.8225 12.9035 12.1774 12.6583 12.2125L4.18719 13.4219C4.02094 13.4458 3.86537 13.518 3.73981 13.6296C3.61424 13.7411 3.52421 13.8871 3.48091 14.0494L1.75205 20.5097C1.51634 21.3925 2.42319 22.1468 3.24862 21.7534L21.6755 12.9685C22.4889 12.5811 22.4889 11.4222 21.6755 11.0339L3.24862 2.24994Z" fill="#BABABA" fill-opacity="0.6"/>
</svg>
