<?xml version="1.0" standalone="no"?>
<!DOCTYPE svg PUBLIC "-//W3C//DTD SVG 20010904//EN"
 "http://www.w3.org/TR/2001/REC-SVG-20010904/DTD/svg10.dtd">
<svg version="1.0" xmlns="http://www.w3.org/2000/svg"
 width="512.000000pt" height="512.000000pt" viewBox="0 0 512.000000 512.000000"
 preserveAspectRatio="xMidYMid meet">

<g transform="translate(0.000000,512.000000) scale(0.100000,-0.100000)"
fill="#78797a" stroke="none">
<path d="M2433 4210 c-474 -49 -870 -300 -1117 -710 -121 -200 -196 -469 -196
-703 l0 -92 -52 -12 c-76 -18 -223 -94 -295 -153 -122 -99 -229 -265 -270
-420 -25 -90 -25 -310 0 -400 41 -155 148 -321 270 -420 71 -58 213 -132 302
-157 90 -25 454 -31 549 -9 115 27 191 70 281 161 89 88 133 165 160 276 21
92 21 606 0 698 -27 111 -71 188 -160 276 -117 118 -248 174 -404 175 l-64 0
7 101 c12 186 47 312 129 471 189 367 571 598 987 598 416 0 798 -231 987
-598 82 -159 117 -285 129 -471 l7 -101 -64 0 c-156 -1 -287 -57 -404 -175
-89 -88 -133 -165 -160 -276 -21 -92 -21 -606 0 -698 27 -111 71 -188 160
-276 117 -118 248 -174 404 -175 l64 0 -6 -65 c-10 -103 -60 -180 -151 -228
-39 -21 -57 -22 -321 -27 -251 -4 -283 -7 -307 -24 -100 -67 -91 -229 15 -279
49 -24 539 -25 636 -2 111 27 188 71 276 160 120 119 175 248 175 410 l0 70
53 12 c28 7 93 33 142 57 164 82 280 197 360 361 66 132 80 195 80 355 0 160
-14 223 -80 355 -80 164 -196 279 -360 361 -49 24 -114 50 -142 57 l-53 12 0
92 c0 512 -305 1007 -772 1253 -232 122 -547 185 -795 160z"/>
</g>
</svg>
